<svg width="11" height="11" viewBox="0 0 11 11" fill="none" xmlns="http://www.w3.org/2000/svg">
<path d="M2.98771 0.412109C1.34984 0.412109 0.0171509 1.7468 0.0171509 3.38657V7.63478C0.0171509 9.27435 1.35062 10.6084 2.9889 10.6084H7.23324C8.87132 10.6084 10.2042 9.27376 10.2042 7.63399V3.38538C10.2042 1.74601 8.87072 0.412109 7.23244 0.412109H2.98771ZM8.16679 2.04352C8.39172 2.04352 8.57427 2.22624 8.57427 2.45138C8.57427 2.67651 8.39172 2.85923 8.16679 2.85923C7.94186 2.85923 7.75931 2.67651 7.75931 2.45138C7.75931 2.22624 7.94186 2.04352 8.16679 2.04352ZM5.11067 2.85923C6.5715 2.85923 7.75931 4.04812 7.75931 5.51028C7.75931 6.97243 6.57129 8.16133 5.11067 8.16133C3.64985 8.16133 2.46204 6.97223 2.46204 5.51028C2.46204 4.04833 3.64985 2.85923 5.11067 2.85923ZM5.11067 3.67494C4.09788 3.67494 3.27701 4.49656 3.27701 5.51028C3.27701 6.524 4.09788 7.34562 5.11067 7.34562C6.12347 7.34562 6.94434 6.524 6.94434 5.51028C6.94434 4.49656 6.12347 3.67494 5.11067 3.67494Z" fill="#979797"/>
</svg>
