<svg width="15" height="13" viewBox="0 0 15 13" fill="none" xmlns="http://www.w3.org/2000/svg">
<path d="M14.9522 1.80319C14.4338 2.04105 13.8763 2.19962 13.2882 2.27456C13.8862 1.90703 14.3461 1.32083 14.562 0.628228C14.0026 0.967878 13.3828 1.21725 12.7234 1.34871C12.1968 0.770686 11.4457 0.412109 10.6135 0.412109C9.01498 0.412109 7.71949 1.74207 7.71949 3.38175C7.71949 3.61373 7.74568 3.83982 7.79507 4.05926C5.39033 3.93419 3.25753 2.75053 1.83064 0.954067C1.57994 1.39295 1.43891 1.90703 1.43891 2.4495C1.43891 3.48047 1.9487 4.38791 2.726 4.92271C2.25152 4.90762 1.80495 4.77104 1.41396 4.55186C1.41396 4.56081 1.41396 4.57411 1.41396 4.58664C1.41396 6.02734 2.41182 7.22686 3.73448 7.50002C3.49267 7.56856 3.23728 7.60667 2.97398 7.60667C2.787 7.60667 2.60497 7.58467 2.42862 7.55193C2.79688 8.7292 3.86539 9.58984 5.13123 9.61516C4.14078 10.4103 2.89346 10.8865 1.53696 10.8865C1.30257 10.8865 1.0736 10.8727 0.847107 10.8443C2.12827 11.6845 3.65 12.1771 5.28338 12.1771C10.6059 12.1771 13.5175 7.65117 13.5175 3.72498C13.5175 3.59633 13.5135 3.4682 13.5076 3.3416C14.0759 2.92624 14.5655 2.40193 14.9522 1.80319Z" fill="white"/>
</svg>
