<svg width="16" height="11" viewBox="0 0 16 11" fill="none" xmlns="http://www.w3.org/2000/svg">
<path d="M15.1503 2.16461C15.0126 1.46386 14.3569 0.953541 13.5958 0.794223C12.457 0.571427 10.3493 0.412109 8.06888 0.412109C5.78982 0.412109 3.6484 0.571427 2.5082 0.794223C1.74851 0.953541 1.09138 1.43149 0.953741 2.16461C0.814758 2.96119 0.677124 4.07642 0.677124 5.51028C0.677124 6.94414 0.814758 8.05936 0.987475 8.85595C1.12646 9.5567 1.78224 10.067 2.54193 10.2263C3.75095 10.4491 5.82355 10.6084 8.10396 10.6084C10.3844 10.6084 12.457 10.4491 13.666 10.2263C14.4257 10.067 15.0815 9.58906 15.2204 8.85595C15.3581 8.05936 15.5308 6.91178 15.5659 5.51028C15.4957 4.07642 15.323 2.96119 15.1503 2.16461ZM6.20407 7.74073V3.27983L10.4181 5.51028L6.20407 7.74073Z" fill="#979797"/>
</svg>
