<svg width="16" height="16" viewBox="0 0 16 16" fill="none" xmlns="http://www.w3.org/2000/svg">
<path d="M7.924 0C3.56065 0 0 3.56062 0 7.924C0 12.2873 3.56077 15.848 7.924 15.848C12.2872 15.848 15.848 12.2872 15.848 7.924C15.848 3.56076 12.2872 0 7.924 0ZM11.6287 6.27745L7.36829 10.3321C7.26535 10.435 7.14188 10.4762 7.01842 10.4762C6.87428 10.4762 6.75081 10.435 6.64802 10.3321L4.21929 7.8828C4.01341 7.6976 4.01341 7.36825 4.21929 7.16236C4.40449 6.95649 4.73384 6.95649 4.93973 7.16236L7.01846 9.26174L10.929 5.53644C11.1349 5.35123 11.4435 5.35123 11.6494 5.55697C11.8346 5.76284 11.8346 6.07166 11.6289 6.2774L11.6287 6.27745Z" fill="#FF5C00"/>
</svg>
