<svg width="57" height="67" viewBox="0 0 57 67" fill="none" xmlns="http://www.w3.org/2000/svg">
<path d="M9.30957 8.62794C8.8593 9.44661 8.20891 10.0788 7.3584 10.5336C6.50789 10.9884 5.49365 11.2159 4.32022 11.2159H0.477005V0.404846H4.32022C5.49365 0.404846 6.50789 0.627689 7.3584 1.06886C8.20891 1.51458 8.86385 2.14224 9.30957 2.95182C9.75984 3.76139 9.9827 4.71196 9.9827 5.79443C9.9827 6.8678 9.75984 7.81381 9.30957 8.62794ZM6.83536 8.36869C7.47211 7.75468 7.79048 6.89964 7.79048 5.79443C7.79048 4.68012 7.47211 3.82052 6.83536 3.20651C6.19861 2.59251 5.29808 2.28777 4.13374 2.28777H2.63284V9.28743H4.13374C5.29808 9.28743 6.19861 8.98269 6.83536 8.36869Z" fill="#5F5F5F"/>
<path d="M4.3157 11.3614H0.32695V0.263855H4.3157C5.50733 0.263855 6.55341 0.491264 7.42211 0.946082C8.29536 1.4009 8.97304 2.05582 9.43241 2.88814C9.89177 3.71591 10.1237 4.69832 10.1237 5.79898C10.1237 6.89055 9.89177 7.86841 9.43241 8.70073C8.97304 9.53759 8.29536 10.2016 7.42211 10.6655C6.55341 11.1249 5.51188 11.3614 4.3157 11.3614ZM0.618033 11.0749H4.32025C5.46639 11.0749 6.46699 10.852 7.29476 10.4108C8.11798 9.96967 8.75473 9.34657 9.19135 8.55973C9.62798 7.76835 9.84629 6.83596 9.84629 5.79443C9.84629 4.7438 9.62343 3.80686 9.19135 3.02458C8.75928 2.24229 8.11798 1.6283 7.29931 1.19623C6.47154 0.764149 5.47094 0.54584 4.3248 0.54584H0.622583V11.0749H0.618033ZM4.13378 9.42842H2.49189V2.14223H4.13378C5.32995 2.14223 6.27142 2.46517 6.93546 3.10192C7.59949 3.73866 7.93605 4.64374 7.93605 5.79443C7.93605 6.93148 7.59949 7.83202 6.93546 8.46876C6.27142 9.10551 5.32995 9.42842 4.13378 9.42842ZM2.77387 9.14644H4.13378C5.25263 9.14644 6.13043 8.85081 6.73988 8.26864C7.34479 7.68648 7.65407 6.85416 7.65407 5.79898C7.65407 4.73016 7.34479 3.89783 6.73988 3.31567C6.13043 2.7335 5.25718 2.43787 4.13378 2.43787H2.77387V9.14644Z" fill="#5F5F5F"/>
<path d="M19.8936 2.11967V4.92136H23.7232V6.57688H19.8936V9.48772H24.1826V11.2206H17.7332V0.409546H24.1826V2.12422H19.8936V2.11967Z" fill="#5F5F5F"/>
<path d="M24.3281 11.3616H17.5923V0.264099H24.3281V2.26528H20.0392V4.78496H23.8688V6.72249H20.0392V9.3468H24.3281V11.3616ZM17.8788 11.0751H24.0416V9.62879H19.7527V6.43143H23.5822V5.06242H19.7527V1.97419H24.0416V0.546084H17.8788V11.0751Z" fill="#5F5F5F"/>
<path d="M7.49125 28.1625C7.21381 28.6264 6.80902 28.9993 6.26779 29.2813C5.72655 29.5633 5.06707 29.7043 4.29388 29.7043C3.52978 29.7043 2.84301 29.5724 2.24265 29.3132C1.64229 29.0539 1.15563 28.6764 0.796327 28.1852C0.432473 27.694 0.227804 27.1255 0.177774 26.4705H2.47461C2.52464 26.9117 2.70201 27.2756 3.00219 27.5666C3.30237 27.8577 3.70261 28.0033 4.20291 28.0033C4.65318 28.0033 4.99885 27.885 5.23535 27.644C5.47641 27.4029 5.59466 27.0936 5.59466 26.7161C5.59466 26.3796 5.49915 26.1021 5.30358 25.8793C5.108 25.6609 4.8624 25.4836 4.56677 25.3517C4.27114 25.2198 3.8618 25.0651 3.34331 24.8923C2.67018 24.6694 2.11985 24.4466 1.68777 24.2237C1.26024 24.0054 0.89184 23.687 0.59166 23.2686C0.29148 22.8502 0.141388 22.3044 0.141388 21.6313C0.141388 20.7034 0.477953 19.9712 1.14654 19.4345C1.81512 18.8978 2.70201 18.6295 3.80267 18.6295C4.94427 18.6295 5.85845 18.9069 6.53613 19.4572C7.21381 20.0076 7.60041 20.7444 7.69137 21.6631H5.3627C5.30357 21.2765 5.13984 20.9581 4.8715 20.708C4.60315 20.4578 4.24385 20.3305 3.78448 20.3305C3.38424 20.3305 3.06587 20.4351 2.82027 20.6443C2.57466 20.8535 2.45186 21.1583 2.45186 21.554C2.45186 21.8723 2.54738 22.1361 2.73385 22.3408C2.92488 22.55 3.16138 22.7228 3.45247 22.8547C3.74355 22.9866 4.13924 23.1367 4.63954 23.3004C5.33541 23.546 5.89938 23.7735 6.33146 23.9918C6.76354 24.2055 7.13649 24.5285 7.44122 24.956C7.74595 25.3835 7.90059 25.9475 7.90059 26.6388C7.90059 27.1937 7.76414 27.6985 7.49125 28.1625Z" fill="#5F5F5F"/>
<path d="M4.28893 29.8455C3.50665 29.8455 2.79713 29.709 2.17858 29.4452C1.55548 29.1769 1.05063 28.7812 0.673132 28.2718C0.295633 27.7624 0.077318 27.162 0.027288 26.4844L0.013644 26.3297H2.59246L2.60611 26.4571C2.65159 26.8664 2.81078 27.1984 3.09276 27.4668C3.36566 27.7306 3.73406 27.8625 4.19797 27.8625C4.60731 27.8625 4.92113 27.7533 5.13035 27.5441C5.34411 27.3303 5.44872 27.062 5.44872 26.7163C5.44872 26.4116 5.36685 26.1705 5.19402 25.975C5.01664 25.7749 4.78469 25.6066 4.50725 25.4838C4.21617 25.3519 3.80683 25.2018 3.29743 25.0289C2.61975 24.8015 2.05578 24.5787 1.6237 24.3558C1.17343 24.1284 0.791385 23.7918 0.47756 23.3552C0.159188 22.914 0 22.3364 0 21.6315C0 20.6627 0.354758 19.885 1.05518 19.321C1.7465 18.7661 2.66978 18.4841 3.80228 18.4841C4.97571 18.4841 5.92628 18.7752 6.6267 19.3437C7.33167 19.9168 7.741 20.69 7.83652 21.6451L7.85016 21.7997H5.24405L5.22586 21.6815C5.17128 21.3267 5.02119 21.0311 4.78014 20.8037C4.54363 20.5808 4.21162 20.4671 3.78864 20.4671C3.42933 20.4671 3.1337 20.5626 2.91539 20.7491C2.70162 20.931 2.59701 21.1948 2.59701 21.5496C2.59701 21.8316 2.67888 22.059 2.84261 22.2409C3.01544 22.4365 3.24285 22.5957 3.51575 22.7185C3.80228 22.8504 4.19797 22.9959 4.68917 23.1551C5.38959 23.4007 5.96721 23.6372 6.39929 23.851C6.85411 24.0738 7.24525 24.4149 7.56362 24.8607C7.88654 25.3109 8.05028 25.9067 8.05028 26.6299C8.05028 27.203 7.90474 27.7442 7.6182 28.2263C7.33167 28.713 6.89959 29.1041 6.33562 29.3998C5.77164 29.6999 5.08487 29.8455 4.28893 29.8455ZM0.32292 26.6163C0.391143 27.1757 0.582169 27.676 0.900541 28.1035C1.2462 28.572 1.71466 28.9358 2.28773 29.1814C2.8699 29.4316 3.54303 29.5589 4.28439 29.5589C5.03484 29.5589 5.67613 29.4225 6.19462 29.1541C6.70857 28.8858 7.10426 28.5311 7.36351 28.0899C7.62275 27.6487 7.75465 27.1621 7.75465 26.639C7.75465 25.9795 7.60911 25.4383 7.32257 25.038C7.03149 24.6287 6.67673 24.3194 6.26284 24.1193C5.83531 23.9101 5.27134 23.6781 4.58457 23.4371C4.08427 23.2733 3.67948 23.1233 3.38385 22.9868C3.07457 22.8458 2.81987 22.6639 2.6152 22.441C2.40144 22.2091 2.29683 21.9089 2.29683 21.5587C2.29683 21.1175 2.43783 20.7764 2.71526 20.5399C2.98816 20.3079 3.34291 20.1897 3.77499 20.1897C4.27074 20.1897 4.66644 20.3307 4.96207 20.6036C5.22131 20.8492 5.39414 21.1585 5.47146 21.5223H7.51814C7.40444 20.7173 7.04058 20.0623 6.43113 19.5711C5.78074 19.0435 4.8893 18.7752 3.78864 18.7752C2.72436 18.7752 1.86021 19.0344 1.21891 19.5484C0.577619 20.0623 0.268344 20.7446 0.268344 21.636C0.268344 22.2773 0.409335 22.8003 0.691322 23.1915C0.977857 23.5872 1.32807 23.8965 1.7374 24.1057C2.16039 24.324 2.71072 24.5423 3.3702 24.7652C3.8887 24.938 4.30713 25.0926 4.60731 25.2291C4.92113 25.3701 5.18493 25.5611 5.38959 25.793C5.60791 26.0386 5.71706 26.3525 5.71706 26.7209C5.71706 27.1348 5.58062 27.4804 5.31682 27.7488C5.04848 28.0171 4.66643 28.149 4.17978 28.149C3.64309 28.149 3.20647 27.9898 2.879 27.6714C2.58337 27.3849 2.39689 27.0301 2.32412 26.6163H0.32292Z" fill="#5F5F5F"/>
<path d="M20.2299 18.784V29.595H18.0695V18.784H20.2299Z" fill="#5F5F5F"/>
<path d="M20.3754 29.7408H17.9285V18.6432H20.3754V29.7408ZM18.215 29.4542H20.0889V18.9252H18.215V29.4542Z" fill="#5F5F5F"/>
<path d="M38.1364 19.648C39.0051 20.2984 39.56 21.1716 39.8056 22.2768H37.5406C37.3268 21.7856 36.9857 21.3945 36.5218 21.1034C36.0579 20.8123 35.5075 20.6668 34.8753 20.6668C34.2522 20.6668 33.7019 20.8078 33.2198 21.0943C32.7377 21.3809 32.3647 21.7902 32.1009 22.3178C31.8371 22.8499 31.7007 23.473 31.7007 24.1871C31.7007 25.3196 32.0054 26.2019 32.6103 26.8387C33.2198 27.4709 34.0476 27.7892 35.0982 27.7892C35.8759 27.7892 36.54 27.5573 37.0949 27.0979C37.6497 26.6386 38.009 26.0018 38.1728 25.1831H34.5115V23.6367H39.9784V25.7198C39.8238 26.4339 39.5281 27.0934 39.0824 27.6937C38.6367 28.2941 38.0545 28.7807 37.3359 29.1401C36.6173 29.5039 35.7895 29.6858 34.8617 29.6858C33.7974 29.6858 32.865 29.4539 32.0509 28.99C31.2413 28.526 30.6091 27.8756 30.168 27.0433C29.7222 26.211 29.5039 25.2604 29.5039 24.1871C29.5039 23.1137 29.7268 22.1631 30.168 21.3308C30.6137 20.4985 31.2368 19.8481 32.0464 19.3796C32.8514 18.9112 33.7883 18.6747 34.848 18.6747C36.1761 18.6747 37.2677 19.0022 38.1364 19.648Z" fill="#5F5F5F"/>
<path d="M34.8753 29.8314C33.7928 29.8314 32.8241 29.5903 31.9918 29.1173C31.1594 28.6397 30.509 27.9666 30.0542 27.1161C29.5994 26.2656 29.372 25.2832 29.372 24.1916C29.372 23.1001 29.604 22.1177 30.0542 21.2672C30.509 20.4121 31.1594 19.7389 31.9827 19.2568C32.8059 18.7747 33.7746 18.5337 34.8571 18.5337C36.1988 18.5337 37.3313 18.8703 38.2182 19.5343C39.1097 20.2029 39.6918 21.1125 39.942 22.245L39.9784 22.4178H37.4405L37.4041 22.3314C37.204 21.872 36.8765 21.4991 36.4399 21.2217C35.9987 20.9442 35.4711 20.8078 34.8707 20.8078C34.2749 20.8078 33.7473 20.9442 33.288 21.2171C32.8332 21.4854 32.4739 21.8811 32.2237 22.3814C31.969 22.8908 31.8417 23.4958 31.8417 24.1871C31.8417 25.2786 32.1373 26.1337 32.7149 26.7386C33.2925 27.339 34.093 27.6437 35.1027 27.6437C35.8395 27.6437 36.4808 27.4208 37.0084 26.9887C37.495 26.584 37.8316 26.0245 37.9999 25.3287H34.375V23.4957H40.1284V25.7198C39.9693 26.4794 39.66 27.1661 39.2052 27.7801C38.7503 28.3987 38.1454 28.899 37.4086 29.2719C36.6764 29.6403 35.8213 29.8314 34.8753 29.8314ZM34.8571 18.8202C33.8247 18.8202 32.9059 19.0522 32.1236 19.507C31.3459 19.9618 30.7319 20.5986 30.2998 21.4036C29.8677 22.2132 29.6494 23.1501 29.6494 24.1916C29.6494 25.2332 29.8677 26.1746 30.2998 26.9797C30.7274 27.7847 31.3459 28.4169 32.1282 28.8671C32.915 29.3174 33.8338 29.5448 34.8662 29.5448C35.7713 29.5448 36.5809 29.3675 37.2767 29.0172C37.9726 28.667 38.5411 28.194 38.9732 27.6118C39.4053 27.0297 39.6964 26.3838 39.8465 25.6925L39.8419 23.7823H34.6615V25.0421H38.3547L38.3228 25.2104C38.1545 26.0564 37.7725 26.7295 37.1949 27.2071C36.6127 27.6846 35.9123 27.9302 35.1073 27.9302C34.0202 27.9302 33.147 27.5937 32.5148 26.9387C31.8826 26.2792 31.5642 25.356 31.5642 24.1916C31.5642 23.4594 31.7052 22.809 31.9781 22.2587C32.2555 21.7038 32.6512 21.2717 33.1515 20.9761C33.6518 20.6759 34.234 20.5258 34.8798 20.5258C35.5393 20.5258 36.117 20.6804 36.6036 20.9852C37.063 21.2717 37.4132 21.6583 37.636 22.1358H39.6281C39.3734 21.1534 38.8459 20.3575 38.0545 19.7662C37.2131 19.134 36.1397 18.8202 34.8571 18.8202Z" fill="#5F5F5F"/>
<path d="M56.5925 29.595H54.4321L49.5928 22.2452V29.595H47.4324V18.784H49.5928L54.4321 26.1975V18.784H56.5925V29.595Z" fill="#5F5F5F"/>
<path d="M56.7337 29.7406H54.355L49.734 22.7227V29.7406H47.2871V18.643H49.6658L54.2867 25.72V18.643H56.7337V29.7406ZM54.5096 29.454H56.4517V18.925H54.5778V26.6751L49.5203 18.925H47.5827V29.454H49.4566V21.7676L54.5096 29.454Z" fill="#5F5F5F"/>
<path d="M7.49125 46.5417C7.21381 47.0056 6.80902 47.3785 6.26779 47.6605C5.72655 47.9425 5.06707 48.0835 4.29388 48.0835C3.52978 48.0835 2.84301 47.9516 2.24265 47.6923C1.64229 47.4331 1.15563 47.0556 0.796327 46.5644C0.432473 46.0732 0.227804 45.5047 0.177774 44.8497H2.47461C2.52464 45.2909 2.70201 45.6547 3.00219 45.9458C3.30237 46.2369 3.70261 46.3825 4.20291 46.3825C4.65318 46.3825 4.99885 46.2642 5.23535 46.0232C5.47641 45.7821 5.59466 45.4728 5.59466 45.0953C5.59466 44.7588 5.49915 44.4813 5.30358 44.2585C5.108 44.0402 4.8624 43.8628 4.56677 43.7309C4.27114 43.599 3.8618 43.4444 3.34331 43.2715C2.67018 43.0487 2.11985 42.8258 1.68777 42.6029C1.26024 42.3846 0.89184 42.0662 0.59166 41.6478C0.29148 41.2294 0.141388 40.6836 0.141388 40.0105C0.141388 39.0826 0.477953 38.3504 1.14654 37.8137C1.81512 37.277 2.70201 37.0087 3.80267 37.0087C4.94427 37.0087 5.85845 37.2861 6.53613 37.8364C7.21381 38.3868 7.60041 39.1236 7.69137 40.0423H5.3627C5.30357 39.6557 5.13984 39.3373 4.8715 39.0872C4.6077 38.837 4.24385 38.7097 3.78448 38.7097C3.38424 38.7097 3.06587 38.8143 2.82027 39.0235C2.57466 39.2327 2.45186 39.5375 2.45186 39.9331C2.45186 40.2515 2.54738 40.5153 2.73385 40.72C2.92488 40.9292 3.16138 41.102 3.45247 41.2339C3.74355 41.3658 4.13924 41.5159 4.63954 41.6797C5.33541 41.9253 5.89938 42.1526 6.33146 42.371C6.76354 42.5847 7.13649 42.9076 7.44122 43.3352C7.74595 43.7627 7.90059 44.3267 7.90059 45.018C7.90059 45.5729 7.76414 46.0777 7.49125 46.5417Z" fill="#5F5F5F"/>
<path d="M4.28893 48.2245C3.50665 48.2245 2.79713 48.0881 2.17858 47.8243C1.55548 47.5559 1.05063 47.1602 0.673132 46.6509C0.295633 46.1415 0.077318 45.5411 0.027288 44.8634L0.013644 44.7088H2.59246L2.60611 44.8361C2.65159 45.2455 2.81078 45.5775 3.09276 45.8458C3.36566 46.1096 3.73406 46.2415 4.19797 46.2415C4.60731 46.2415 4.92113 46.1323 5.13035 45.9231C5.34411 45.7094 5.44872 45.441 5.44872 45.0954C5.44872 44.7906 5.36685 44.5496 5.19402 44.354C5.01664 44.1539 4.78469 43.9856 4.50725 43.8628C4.21617 43.7309 3.80683 43.5808 3.29743 43.408C2.61975 43.1806 2.05578 42.9577 1.6237 42.7348C1.17343 42.5074 0.791385 42.1709 0.47756 41.7343C0.159188 41.2931 0 40.7155 0 40.0105C0 39.0417 0.354758 38.264 1.05518 37.7C1.7465 37.1452 2.66978 36.8632 3.80228 36.8632C4.97571 36.8632 5.92628 37.1542 6.6267 37.7228C7.33167 38.2958 7.741 39.069 7.83652 40.0242L7.85016 40.1788H5.24405L5.22586 40.0605C5.17128 39.7058 5.02119 39.4101 4.78014 39.1827C4.54363 38.9599 4.21162 38.8462 3.78864 38.8462C3.42933 38.8462 3.1337 38.9417 2.91539 39.1281C2.70162 39.3101 2.59701 39.5739 2.59701 39.9286C2.59701 40.2106 2.67888 40.438 2.84261 40.62C3.01544 40.8155 3.24285 40.9747 3.51575 41.0975C3.80228 41.2294 4.19797 41.375 4.68917 41.5341C5.38959 41.7798 5.96721 42.0162 6.39929 42.23C6.85411 42.4529 7.24525 42.794 7.56362 43.2397C7.88654 43.69 8.05028 44.2858 8.05028 45.0089C8.05028 45.582 7.90474 46.1232 7.6182 46.6054C7.33167 47.092 6.89959 47.4832 6.33562 47.7788C5.77164 48.079 5.08487 48.2245 4.28893 48.2245ZM0.32292 44.9953C0.391143 45.5547 0.582169 46.055 0.900541 46.4826C1.2462 46.951 1.71466 47.3149 2.28773 47.5605C2.8699 47.8106 3.54303 47.938 4.28439 47.938C5.03484 47.938 5.67613 47.8015 6.19462 47.5332C6.70857 47.2649 7.10426 46.9101 7.36351 46.4689C7.62275 46.0277 7.75465 45.5411 7.75465 45.018C7.75465 44.3586 7.60911 43.8173 7.32257 43.4171C7.03149 43.0077 6.67673 42.6985 6.26284 42.4984C5.83531 42.2891 5.27134 42.0572 4.58457 41.8161C4.08427 41.6524 3.67948 41.5023 3.38385 41.3659C3.07457 41.2249 2.81987 41.0429 2.6152 40.8201C2.40144 40.5881 2.29683 40.2879 2.29683 39.9377C2.29683 39.4966 2.43783 39.1555 2.71526 38.9189C2.98816 38.687 3.34291 38.5687 3.77499 38.5687C4.27074 38.5687 4.66644 38.7097 4.96207 38.9826C5.22131 39.2282 5.39414 39.5375 5.47146 39.9013H7.51814C7.40444 39.0963 7.04058 38.4414 6.43113 37.9502C5.78074 37.4226 4.8893 37.1542 3.78864 37.1542C2.72436 37.1542 1.86021 37.4135 1.21891 37.9274C0.577619 38.4414 0.268344 39.1236 0.268344 40.015C0.268344 40.6563 0.409335 41.1794 0.691322 41.5705C0.977857 41.9662 1.32807 42.2755 1.7374 42.4847C2.16039 42.703 2.71072 42.9213 3.3702 43.1442C3.8887 43.317 4.30713 43.4717 4.60731 43.6081C4.92113 43.7491 5.18493 43.9401 5.38959 44.1721C5.60791 44.4177 5.71706 44.7315 5.71706 45.0999C5.71706 45.5138 5.58062 45.8595 5.31682 46.1278C5.04848 46.3961 4.66643 46.528 4.17978 46.528C3.64309 46.528 3.20647 46.3689 2.879 46.0505C2.58337 45.764 2.39689 45.4092 2.32412 44.9953H0.32292Z" fill="#5F5F5F"/>
<path d="M22.9733 37.1632V38.8779H19.9851V47.9742H17.8248V38.8779H14.8548V37.1632H22.9733Z" fill="#5F5F5F"/>
<path d="M20.1303 48.1198H17.6834V39.0234H14.7134V37.0222H23.1139V39.0234H20.1257V48.1198H20.1303ZM17.9699 47.8333H19.8438V38.7369H22.8319V37.3088H14.9999V38.7369H17.9699V47.8333Z" fill="#5F5F5F"/>
<path d="M32.379 37.1633V43.5035C32.379 44.3495 32.5654 44.9862 32.9384 45.4092C33.3113 45.8322 33.848 46.0459 34.553 46.0459C35.2489 46.0459 35.781 45.8322 36.154 45.4092C36.5269 44.9862 36.7134 44.3495 36.7134 43.5035V37.1633H38.8556V43.5035C38.8556 44.5041 38.6691 45.3501 38.2962 46.0368C37.9232 46.7282 37.4093 47.2376 36.7498 47.5787C36.0903 47.9152 35.3444 48.0835 34.5075 48.0835C33.2113 48.0835 32.1743 47.6969 31.3966 46.9192C30.6188 46.1414 30.2322 45.0044 30.2322 43.5035V37.1633H32.379Z" fill="#5F5F5F"/>
<path d="M34.5071 48.2245C33.1791 48.2245 32.0966 47.8197 31.2961 47.0193C30.4956 46.2188 30.0908 45.0362 30.0908 43.5035V37.0178H32.5196V43.5035C32.5196 44.3131 32.6969 44.9226 33.0426 45.3183C33.3883 45.7139 33.884 45.905 34.5526 45.905C35.2121 45.905 35.6987 45.7139 36.0444 45.3183C36.3901 44.9226 36.5674 44.3131 36.5674 43.5035V37.0178H38.9962V43.5035C38.9962 44.5223 38.8006 45.4001 38.4186 46.1051C38.032 46.8191 37.4907 47.3558 36.813 47.7015C36.1399 48.0517 35.3622 48.2245 34.5071 48.2245ZM30.3774 37.3043V43.5035C30.3774 44.9589 30.7549 46.0732 31.5008 46.8191C32.2467 47.565 33.2564 47.9425 34.5071 47.9425C35.3167 47.9425 36.049 47.7788 36.6857 47.4513C37.3133 47.1284 37.8136 46.6327 38.173 45.9686C38.5323 45.3046 38.7142 44.4723 38.7142 43.5035V37.3043H36.854V43.5035C36.854 44.3813 36.6539 45.0544 36.2582 45.5047C35.8579 45.9595 35.2849 46.1869 34.5526 46.1869C33.8067 46.1869 33.2291 45.955 32.8288 45.5047C32.4332 45.059 32.233 44.3859 32.233 43.5035V37.3043H30.3774Z" fill="#5F5F5F"/>
<path d="M9.30957 63.7657C8.8593 64.5843 8.20891 65.2165 7.3584 65.6713C6.50789 66.1262 5.49365 66.3536 4.32022 66.3536H0.477005V55.5425H4.32022C5.49365 55.5425 6.50789 55.7654 7.3584 56.2066C8.20891 56.6523 8.86385 57.2799 9.30957 58.0895C9.75984 58.9036 9.9827 59.8497 9.9827 60.9321C9.9827 62.0055 9.75984 62.9515 9.30957 63.7657ZM6.83536 63.5064C7.47211 62.8924 7.79048 62.0373 7.79048 60.9321C7.79048 59.8178 7.47211 58.9582 6.83536 58.3442C6.19861 57.7302 5.29808 57.4255 4.13374 57.4255H2.63284V64.4251H4.13374C5.29808 64.4251 6.19861 64.1204 6.83536 63.5064Z" fill="#5F5F5F"/>
<path d="M4.3157 66.4991H0.32695V55.4016H4.3157C5.50733 55.4016 6.55341 55.629 7.42211 56.0838C8.29536 56.5386 8.97304 57.1935 9.43241 58.0259C9.89177 58.8536 10.1237 59.836 10.1237 60.9367C10.1237 62.0282 9.89177 63.0061 9.43241 63.8384C8.97304 64.6753 8.29536 65.3393 7.42211 65.8032C6.55341 66.2626 5.51188 66.4991 4.3157 66.4991ZM0.618033 66.2126H4.32025C5.46639 66.2126 6.46699 65.9897 7.29476 65.5485C8.11798 65.1074 8.75473 64.4843 9.19135 63.6974C9.62798 62.906 9.84629 61.9737 9.84629 60.9321C9.84629 59.8815 9.62343 58.9446 9.19135 58.1577C8.75928 57.3755 8.11798 56.7614 7.29931 56.3294C6.47154 55.8973 5.47094 55.679 4.3248 55.679H0.622583V66.2126H0.618033ZM4.13378 64.5661H2.49189V57.2845H4.13378C5.32995 57.2845 6.27142 57.6074 6.93546 58.2442C7.59949 58.8809 7.93605 59.786 7.93605 60.9367C7.93605 62.0737 7.59949 62.9743 6.93546 63.611C6.27142 64.2432 5.32995 64.5661 4.13378 64.5661ZM2.77387 64.2841H4.13378C5.25263 64.2841 6.13043 63.9885 6.73988 63.4063C7.34479 62.8242 7.65407 61.9919 7.65407 60.9367C7.65407 59.8679 7.34479 59.0355 6.73988 58.4534C6.13043 57.8712 5.25718 57.5756 4.13378 57.5756H2.77387V64.2841Z" fill="#5F5F5F"/>
<path d="M19.8936 55.5426V66.3536H17.7332V55.5426H19.8936Z" fill="#5F5F5F"/>
<path d="M20.0392 66.4992H17.5923V55.4016H20.0392V66.4992ZM17.8788 66.2126H19.7527V55.6836H17.8788V66.2126Z" fill="#5F5F5F"/>
<path d="M37.3309 56.0928C38.1541 56.5613 38.7999 57.2207 39.2775 58.0621C39.7505 58.9036 39.9916 59.8587 39.9916 60.9184C39.9916 61.9827 39.755 62.9333 39.2775 63.7838C38.8045 64.6297 38.1541 65.2892 37.3309 65.7577C36.5076 66.2262 35.5935 66.4627 34.5838 66.4627C33.5741 66.4627 32.6553 66.2262 31.8367 65.7577C31.0134 65.2892 30.3676 64.6297 29.89 63.7838C29.417 62.9378 29.176 61.9827 29.176 60.9184C29.176 59.8587 29.4125 58.9036 29.89 58.0621C30.3631 57.2207 31.0134 56.5658 31.8367 56.0928C32.6599 55.6243 33.5741 55.3878 34.5838 55.3878C35.5935 55.3878 36.5076 55.6243 37.3309 56.0928ZM32.9146 57.8075C32.4325 58.094 32.0595 58.5033 31.7866 59.04C31.5183 59.5767 31.3818 60.1998 31.3818 60.9184C31.3818 61.6325 31.5183 62.2601 31.7866 62.7968C32.055 63.3335 32.4325 63.7428 32.9146 64.0294C33.3921 64.3159 33.9516 64.4569 34.5838 64.4569C35.216 64.4569 35.7754 64.3159 36.2529 64.0294C36.7305 63.7428 37.108 63.3335 37.3809 62.7968C37.6492 62.2601 37.7857 61.637 37.7857 60.9184C37.7857 60.2044 37.6492 59.5767 37.3809 59.04C37.108 58.5033 36.7351 58.094 36.2529 57.8075C35.7708 57.5209 35.216 57.3799 34.5838 57.3799C33.947 57.3799 33.3921 57.5209 32.9146 57.8075Z" fill="#5F5F5F"/>
<path d="M34.5841 66.6036C33.5516 66.6036 32.6056 66.358 31.7642 65.8805C30.9228 65.3984 30.2496 64.7162 29.763 63.852C29.2763 62.9879 29.0307 62.0009 29.0307 60.9184C29.0307 59.836 29.2763 58.8535 29.763 57.9894C30.2496 57.1298 30.9228 56.4476 31.7596 55.97C32.6011 55.4924 33.5471 55.2468 34.5795 55.2468C35.612 55.2468 36.558 55.4924 37.3994 55.97C38.2408 56.4521 38.9139 57.1298 39.396 57.9894C39.8827 58.849 40.1283 59.836 40.1283 60.9184C40.1283 62.0009 39.8827 62.9879 39.396 63.852C38.9094 64.7207 38.2362 65.4029 37.3948 65.8805C36.5625 66.3626 35.612 66.6036 34.5841 66.6036ZM34.5841 55.5334C33.6017 55.5334 32.7011 55.7653 31.9052 56.2201C31.1093 56.675 30.4725 57.3163 30.0131 58.1349C29.5538 58.9536 29.3173 59.8905 29.3173 60.923C29.3173 61.9554 29.5492 62.8969 30.0131 63.7155C30.4725 64.5342 31.1093 65.1846 31.9052 65.6394C32.7011 66.0943 33.6017 66.3262 34.5841 66.3262C35.5665 66.3262 36.467 66.0943 37.2629 65.6394C38.0589 65.1846 38.6956 64.5388 39.155 63.7155C39.6144 62.8923 39.8509 61.9509 39.8509 60.923C39.8509 59.8905 39.6189 58.9536 39.155 58.1349C38.6956 57.3208 38.0589 56.675 37.2629 56.2201C36.4625 55.7608 35.5619 55.5334 34.5841 55.5334ZM34.5841 64.5979C33.9291 64.5979 33.3424 64.4478 32.8421 64.1476C32.3418 63.8474 31.9416 63.4154 31.6641 62.856C31.3867 62.3011 31.2411 61.6507 31.2411 60.9139C31.2411 60.1816 31.3821 59.5267 31.6641 58.9718C31.9461 58.4124 32.3418 57.9803 32.8421 57.6801C33.3424 57.3799 33.9291 57.2299 34.5841 57.2299C35.239 57.2299 35.8257 57.3799 36.326 57.6801C36.8263 57.9803 37.222 58.4124 37.504 58.9718C37.7814 59.5267 37.927 60.1771 37.927 60.9139C37.927 61.6461 37.786 62.3011 37.504 62.856C37.222 63.4154 36.8263 63.8474 36.326 64.1476C35.8257 64.4478 35.239 64.5979 34.5841 64.5979ZM34.5841 57.5209C33.9792 57.5209 33.4425 57.6574 32.9877 57.9303C32.5328 58.1986 32.1735 58.5943 31.9143 59.1037C31.655 59.6176 31.5231 60.2271 31.5231 60.9139C31.5231 61.6006 31.655 62.2101 31.9143 62.724C32.169 63.2334 32.5328 63.6291 32.9877 63.8975C33.4425 64.1704 33.9792 64.3068 34.5841 64.3068C35.189 64.3068 35.7257 64.1704 36.1805 63.8975C36.6353 63.6291 36.9946 63.2334 37.2538 62.724C37.5131 62.2101 37.645 61.6006 37.645 60.9139C37.645 60.2271 37.5131 59.6176 37.2538 59.1037C36.9946 58.5943 36.6353 58.1986 36.1805 57.9303C35.7211 57.6619 35.1844 57.5209 34.5841 57.5209Z" fill="#5F5F5F"/>
</svg>
