<svg width="111" height="73" viewBox="0 0 111 73" fill="none" xmlns="http://www.w3.org/2000/svg">
<path d="M42.6029 28.3652C42.5047 28.5344 42.3572 28.6655 42.1661 28.7638C41.9696 28.862 41.7348 28.9166 41.4564 28.9166C41.1834 28.9166 40.9377 28.8729 40.7193 28.7747C40.5063 28.6818 40.3316 28.5454 40.2006 28.3706C40.0695 28.1959 39.9986 27.9884 39.9767 27.7591H40.8011C40.8175 27.9175 40.8831 28.0485 40.9923 28.1522C41.1015 28.256 41.2434 28.3106 41.4236 28.3106C41.5819 28.3106 41.7075 28.2669 41.7949 28.1795C41.8822 28.0922 41.9259 27.983 41.9259 27.8465C41.9259 27.7264 41.8931 27.6281 41.8221 27.5462C41.7512 27.4697 41.6638 27.4042 41.5601 27.3551C41.4563 27.306 41.309 27.2514 41.1233 27.1913C40.8831 27.1094 40.6865 27.033 40.5336 26.9511C40.3807 26.8746 40.2497 26.76 40.1405 26.6071C40.0313 26.4597 39.9767 26.2631 39.9767 26.0229C39.9767 25.6898 40.0968 25.4277 40.3371 25.2366C40.5773 25.0455 40.894 24.9473 41.2871 24.9473C41.6966 24.9473 42.0242 25.0455 42.2644 25.2421C42.5047 25.4387 42.6466 25.7007 42.6794 26.0338H41.844C41.8222 25.8973 41.7621 25.7826 41.6693 25.6898C41.5765 25.6025 41.4454 25.5533 41.2816 25.5533C41.1396 25.5533 41.025 25.5915 40.9376 25.668C40.8503 25.7444 40.8066 25.8536 40.8066 25.9956C40.8066 26.1102 40.8394 26.203 40.9104 26.2795C40.9759 26.3559 41.0632 26.416 41.167 26.4651C41.2707 26.5143 41.4127 26.5634 41.5929 26.6235C41.844 26.7108 42.0406 26.7927 42.1989 26.8692C42.3572 26.9456 42.4883 27.0603 42.5975 27.2131C42.7067 27.366 42.7613 27.568 42.7613 27.8137C42.7504 28.0157 42.7012 28.2014 42.6029 28.3652Z" fill="#5F5F5F"/>
<path d="M50.007 25.0073V25.6188H48.9369V28.8729H48.1616V25.6188H47.0969V25.0073H50.007Z" fill="#5F5F5F"/>
<path d="M57.6068 25.0073L56.2964 27.5243V28.8784H55.5211V27.5243L54.2053 25.0073H55.0952L55.9142 26.6999L56.7387 25.0073H57.6068Z" fill="#5F5F5F"/>
<path d="M62.8486 28.2833H64.1481V28.8729H62.0788V25.0073H62.8486V28.2833Z" fill="#5F5F5F"/>
<path d="M69.4386 25.6243V26.6289H70.809V27.2186H69.4386V28.2614H70.9728V28.8784H68.6633V25.0073H70.9728V25.6188H69.4386V25.6243Z" fill="#5F5F5F"/>
<path d="M15.1667 36.8929C14.719 36.9912 14.3915 37.1496 14.1731 37.357C13.9601 37.5645 13.8127 37.8867 13.7417 38.318C13.6707 38.7493 13.6325 39.399 13.6325 40.2617V51.733C13.3432 51.7057 13.1084 51.6893 12.9227 51.6893C12.7644 51.6893 12.4969 51.7057 12.1256 51.733L2.57075 41.2936V47.507C2.57075 48.5717 2.61442 49.3361 2.70178 49.8056C2.78914 50.2752 2.98019 50.6137 3.27503 50.8321C3.56987 51.0451 4.0613 51.2034 4.75471 51.3071V51.7385C4.16504 51.6948 3.36241 51.6729 2.34141 51.6729C1.57702 51.6729 0.981871 51.6948 0.550537 51.7385V51.3071C0.99825 51.2088 1.32588 51.0505 1.54428 50.843C1.76268 50.6356 1.90459 50.3134 1.97557 49.8821C2.04655 49.4508 2.08481 48.8065 2.08481 47.9438V38.7548C2.08481 38.2088 2.04654 37.8157 1.96464 37.57C1.8882 37.3243 1.7463 37.1605 1.54428 37.0731C1.34226 36.9858 1.01463 36.9312 0.550537 36.8984V36.4671C0.981871 36.5108 1.57702 36.5326 2.34141 36.5326C3.11671 36.5326 3.77737 36.5108 4.32336 36.4671L13.1466 45.7817V40.693C13.1466 39.6284 13.1029 38.864 13.0156 38.3944C12.9282 37.9249 12.7371 37.5864 12.4423 37.368C12.1474 37.155 11.656 36.9967 10.9626 36.8929V36.4616C11.5523 36.5053 12.3549 36.5271 13.3759 36.5271C14.1403 36.5271 14.7354 36.5053 15.1667 36.4616V36.8929Z" fill="#5F5F5F"/>
<path d="M34.4785 50.9413C34.7024 51.1652 34.9207 51.2853 35.1337 51.2962V51.7275C34.0963 51.6839 32.7914 51.662 31.208 51.662C29.5701 51.662 28.3634 51.6839 27.5826 51.7275V51.2962C28.1286 51.2689 28.5163 51.1979 28.7456 51.0942C28.9749 50.985 29.0896 50.7939 29.0896 50.5209C29.0896 50.2643 29.0022 49.9148 28.833 49.4835L27.5608 45.9455H23.2038L22.838 46.9174C22.363 48.1404 22.1282 49.074 22.1282 49.7238C22.1282 50.3134 22.292 50.7175 22.6251 50.9304C22.9581 51.1488 23.444 51.2689 24.0937 51.2962V51.7275C23.0181 51.6839 22.0736 51.662 21.2655 51.662C20.5885 51.662 20.037 51.6839 19.6057 51.7275V51.2962C19.9661 51.2416 20.3046 51.0177 20.6212 50.6301C20.9379 50.2424 21.2601 49.6255 21.5931 48.7737L26.3815 36.4616C26.8401 36.4889 27.2223 36.5053 27.5226 36.5053C27.812 36.5053 28.1833 36.4889 28.6419 36.4616L33.8615 49.9203C34.0472 50.3789 34.2547 50.7175 34.4785 50.9413ZM27.4134 45.5196L25.4533 40.1307L23.384 45.5196H27.4134Z" fill="#5F5F5F"/>
<path d="M52.4305 40.7313C52.4305 41.3919 52.4523 41.9106 52.496 42.2819H51.9991C51.5241 40.3982 50.9126 39.0387 50.1646 38.2033C49.4166 37.368 48.614 36.953 47.7513 36.953H47.7295V49.287C47.7295 49.893 47.7895 50.3298 47.9151 50.6028C48.0352 50.8758 48.2591 51.0614 48.5866 51.1542C48.9088 51.2471 49.4221 51.2962 50.1264 51.2962V51.7275C48.1008 51.6839 46.5228 51.662 45.4035 51.662C44.3825 51.662 42.9029 51.6839 40.9592 51.7275V51.2962C41.6635 51.2962 42.1768 51.2525 42.4989 51.1542C42.821 51.0614 43.0449 50.8758 43.1705 50.6028C43.2906 50.3298 43.3561 49.893 43.3561 49.287V36.953H43.3342C42.4552 36.953 41.6471 37.368 40.91 38.1924C40.1675 39.0168 39.5615 40.3818 39.0864 42.2819H38.5896C38.6333 41.9106 38.6551 41.3919 38.6551 40.7313C38.6551 39.4809 38.6059 38.0559 38.5022 36.4616C39.8672 36.5053 42.2204 36.5271 45.5564 36.5271C48.8761 36.5271 51.2184 36.5053 52.5888 36.4616C52.4796 38.0559 52.4305 39.4809 52.4305 40.7313Z" fill="#5F5F5F"/>
<path d="M72.5072 36.8929C72.0594 36.9912 71.7318 37.1495 71.5134 37.357C71.295 37.5645 71.1531 37.8866 71.0821 38.318C71.0111 38.7493 70.9729 39.399 70.9729 40.2617V45.4595C70.9729 47.5288 70.6781 49.0521 70.0884 50.0295C69.7007 50.6737 69.1274 51.1706 68.374 51.52C67.6205 51.864 66.6432 52.0387 65.4529 52.0387C63.7112 52.0387 62.3626 51.6947 61.3962 51.0013C60.6919 50.499 60.2223 49.822 59.9821 48.9757C59.7473 48.1294 59.6272 46.9774 59.6272 45.525V38.7547C59.6272 38.2087 59.589 37.8156 59.518 37.5699C59.447 37.3242 59.305 37.1605 59.0976 37.0731C58.8901 36.9857 58.557 36.9311 58.093 36.8984V36.467C58.9119 36.5107 60.1786 36.5326 61.8876 36.5326C63.5856 36.5326 64.8687 36.5107 65.7478 36.467V36.8984C65.2291 36.9257 64.8523 36.9857 64.6175 37.0731C64.3828 37.1605 64.219 37.3242 64.1317 37.5699C64.0443 37.8156 64.0006 38.2087 64.0006 38.7547V47.5561C64.0006 48.9375 64.2135 49.9039 64.6449 50.4553C65.0762 51.0068 65.7587 51.2853 66.6923 51.2853C68.0573 51.2853 69.0291 50.7993 69.6024 49.8275C70.1757 48.8556 70.4651 47.4797 70.4651 45.6998V40.6985C70.4651 39.6338 70.4215 38.8694 70.3341 38.3998C70.2468 37.9303 70.0556 37.5918 69.7608 37.3734C69.466 37.155 68.9746 37.0021 68.2812 36.8984V36.467C68.8709 36.5107 69.6734 36.5326 70.6944 36.5326C71.4588 36.5326 72.054 36.5107 72.4853 36.467V36.8929H72.5072Z" fill="#5F5F5F"/>
<path d="M93.5984 50.8649C93.1671 51.2962 92.6921 51.5965 92.1734 51.7712C91.6547 51.946 91.0541 52.0279 90.3607 52.0279C89.367 52.0279 88.5971 51.8531 88.0511 51.4983C87.5051 51.1488 87.1666 50.5482 87.0356 49.6965L86.7135 47.5398C86.5715 46.5352 86.3695 45.7708 86.1183 45.2521C85.8671 44.7334 85.4904 44.4768 84.9881 44.4768H84.0162V49.4399C84.0162 49.9859 84.0544 50.3844 84.1363 50.6247C84.2128 50.8704 84.3548 51.0342 84.5568 51.1215C84.7588 51.2089 85.0864 51.2635 85.5505 51.2962V51.7276C84.7151 51.6839 83.514 51.662 81.947 51.662C80.2053 51.662 78.9276 51.6839 78.1086 51.7276V51.2962C78.5673 51.2689 78.9003 51.2089 79.1132 51.1215C79.3207 51.0342 79.4627 50.8704 79.5337 50.6247C79.6047 50.379 79.6428 49.9859 79.6428 49.4399V38.7439C79.6428 38.1979 79.6046 37.8048 79.5227 37.5591C79.4463 37.3134 79.3043 37.1496 79.1023 37.0622C78.9003 36.9749 78.5673 36.9203 78.1086 36.8875V36.4562C78.9276 36.4999 80.1615 36.5217 81.8159 36.5217L84.2947 36.4999C84.5841 36.4835 84.9117 36.478 85.2884 36.478C87.4724 36.478 89.0994 36.7892 90.175 37.4062C91.2452 38.0232 91.7802 38.9677 91.7802 40.229C91.7802 41.3046 91.3762 42.2273 90.5736 42.9917C89.7655 43.7561 88.417 44.2202 86.5169 44.3949C87.9856 44.4932 89.0885 44.7716 89.8365 45.2248C90.5845 45.678 91.0432 46.3441 91.2179 47.2177L91.6711 49.4617C91.7693 49.9913 91.8949 50.3626 92.0369 50.5591C92.1789 50.7612 92.3809 50.8594 92.6429 50.8594C92.8996 50.8594 93.1234 50.7666 93.309 50.581L93.5984 50.8649ZM84.4421 37.0458C84.2783 37.1441 84.1637 37.3243 84.1091 37.5864C84.049 37.843 84.0217 38.2361 84.0217 38.7493V44.0564H84.606C85.627 44.0564 86.3258 43.7452 86.6971 43.1173C87.0684 42.4894 87.2595 41.6103 87.2595 40.4747C87.2595 39.2953 87.0957 38.4054 86.7735 37.7993C86.4514 37.1933 85.9218 36.893 85.1901 36.893C84.8571 36.893 84.6114 36.9421 84.4421 37.0458Z" fill="#5F5F5F"/>
<path d="M110.895 51.7276C109.918 51.6839 108.269 51.6621 105.954 51.6621C102.591 51.6621 100.074 51.6839 98.4084 51.7276V51.2963C98.8671 51.269 99.2002 51.2089 99.4131 51.1216C99.6206 51.0342 99.7625 50.8704 99.8335 50.6247C99.9045 50.379 99.9427 49.9859 99.9427 49.4399V38.7439C99.9427 38.198 99.9045 37.8048 99.8226 37.5591C99.7462 37.3134 99.6042 37.1496 99.4022 37.0623C99.2002 36.9749 98.8671 36.9203 98.4084 36.8876V36.4562C100.074 36.4999 102.591 36.5218 105.954 36.5218C108.067 36.5218 109.569 36.4999 110.464 36.4562C110.36 37.8048 110.311 39.0169 110.311 40.0816C110.311 40.7423 110.333 41.261 110.377 41.6322H109.88C109.623 39.9615 109.137 38.7658 108.433 38.0396C107.729 37.3134 106.888 36.9531 105.91 36.9531H105.632C105.244 36.9531 104.96 36.9858 104.78 37.0514C104.6 37.1169 104.48 37.237 104.414 37.4172C104.349 37.5974 104.316 37.8922 104.316 38.3126V43.8326H104.529C105.277 43.8326 105.916 43.5378 106.445 42.9481C106.975 42.3584 107.314 41.7032 107.461 40.988H107.958C107.914 41.594 107.892 42.2656 107.892 43.0136V44.051C107.892 44.7826 107.936 45.8036 108.023 47.114H107.527C107.396 46.295 107.062 45.6125 106.522 45.0774C105.981 44.5369 105.315 44.2694 104.529 44.2694H104.316V49.8767C104.316 50.2917 104.349 50.592 104.414 50.7721C104.48 50.9523 104.6 51.0724 104.78 51.138C104.96 51.2035 105.244 51.2362 105.632 51.2362H106.342C107.177 51.2362 107.969 50.8322 108.717 50.0187C109.465 49.2051 109.994 47.9111 110.311 46.1257H110.808C110.764 46.6444 110.742 47.3051 110.742 48.1077C110.742 49.571 110.792 50.7831 110.895 51.7276Z" fill="#5F5F5F"/>
<path d="M61.4015 59.388H50.8967V60.7584H61.4015V59.388Z" fill="#5F5F5F"/>
<path d="M61.6362 9.04763C62.8319 8.80193 65.8349 8.06484 68.0953 6.53061C69.5149 5.56966 70.2247 4.55957 70.2575 3.44575C70.2629 3.18913 70.0772 2.96528 69.8206 2.9216C68.947 2.7851 68.1063 3.11816 67.4674 3.42391C65.1688 4.52681 63.2906 6.20847 61.4833 7.87374C62.477 5.82627 63.0067 3.52765 62.8265 1.64398C62.8047 1.44196 62.7555 0.917809 62.3132 0.633893C62.0403 0.464636 61.6963 0.437335 61.3196 0.568373C60.3204 0.912347 59.8236 1.88421 59.4741 2.79056C58.404 5.54236 57.7215 8.44704 57.0827 11.2753C56.9571 11.2971 56.8425 11.3681 56.766 11.4827C55.5157 12.1379 54.2763 12.5911 53.1897 12.9078C53.5392 12.6075 53.8668 12.2581 54.1507 11.854C54.8059 10.9149 55.2482 9.76288 55.5321 8.22864C55.7068 7.28953 55.8924 5.88634 55.4556 4.5705C55.27 4.01905 54.9151 3.69144 54.4783 3.67506C54.1288 3.64776 53.8559 3.85524 53.6702 4.02996C52.1851 5.37856 51.5354 7.35505 51.1313 8.92751C51.0331 9.32062 50.9402 9.71374 50.8474 10.1069C50.5526 11.3626 50.2632 12.5474 49.75 13.6449C47.2985 14.0052 44.8907 14.0544 42.7449 14.0325C42.4719 14.0107 42.2317 14.2564 42.2263 14.5403C42.2263 14.8242 42.4501 15.0535 42.734 15.059C43.0015 15.059 43.2745 15.0645 43.553 15.0645C45.5841 15.0645 47.8226 14.9826 50.0939 14.6331C50.0939 14.6331 50.094 14.6331 50.0994 14.6331C50.5417 14.5676 50.984 14.4857 51.4262 14.3983C51.6391 14.6222 51.852 14.8515 52.065 15.0754C54.0196 17.1611 56.0453 19.3177 58.5514 20.8301C58.6551 20.8902 58.9008 21.0431 59.1957 21.0431C59.3158 21.0431 59.4468 21.0158 59.5778 20.9448C59.7635 20.8465 60.0692 20.579 60.0146 19.9402C59.8945 18.5424 59.1301 17.1611 57.8634 16.0527C56.7605 15.0863 55.4228 14.4366 54.1398 13.8687C54.0579 13.8305 53.976 13.7978 53.8941 13.765C55.0953 13.3883 56.2254 12.9242 57.2628 12.3782C58.8298 13.1043 60.6152 13.6394 62.8483 14.038C63.7164 14.1963 64.6556 14.3274 65.6056 14.3274C66.5611 14.3274 67.5221 14.1909 68.4339 13.8141C68.6086 13.7432 68.7287 13.5794 68.745 13.3937C68.7614 13.2081 68.6795 13.0224 68.5212 12.9187C65.895 11.1442 62.6354 10.4508 59.5396 10.9531C60.3149 10.3689 61.0138 9.73558 61.6362 9.04763ZM67.9151 4.3521C68.2864 4.17192 68.7068 3.9972 69.1272 3.9426C68.9197 4.52135 68.3847 5.09465 67.5166 5.68432C66.4628 6.39411 64.9996 7.0493 63.3834 7.54615C64.7757 6.31221 66.2444 5.1547 67.9151 4.3521ZM60.4351 3.17275C60.7026 2.4848 61.0575 1.75318 61.6581 1.5457C61.7181 1.52386 61.7563 1.5184 61.7618 1.50748C61.7727 1.53478 61.7946 1.6003 61.8055 1.74226C62.0621 4.41762 60.6425 8.18496 58.5732 10.3744C58.4859 10.4399 58.393 10.5054 58.3057 10.5655C58.879 8.07576 59.5123 5.55328 60.4351 3.17275ZM51.8521 10.3471C51.9449 9.95943 52.0322 9.57178 52.1305 9.18958C52.4963 7.75908 53.0806 5.96824 54.3636 4.79981C54.3855 4.77797 54.4018 4.76705 54.4182 4.75067C54.4401 4.78343 54.4619 4.83257 54.4837 4.90354C54.7622 5.74437 54.7731 6.71624 54.5274 8.04846C54.2708 9.43528 53.8831 10.4563 53.3153 11.2698C52.7475 12.0833 51.9831 12.6512 51.1696 12.8914C51.4481 12.056 51.6501 11.1879 51.8521 10.3471ZM57.1864 16.828C58.2074 17.7234 58.8407 18.8045 58.9772 19.8856C56.6895 18.4769 54.7786 16.4567 52.9331 14.4912C53.1952 14.584 53.4573 14.6932 53.7248 14.8133C55.1225 15.4248 56.2473 16.0036 57.1864 16.828ZM66.9706 13.1808C65.6766 13.4265 64.2788 13.2518 63.0285 13.0279C61.5653 12.7658 60.3095 12.4492 59.1847 12.0506C61.7836 11.5155 64.6173 11.9305 66.9706 13.1808Z" fill="#5F5F5F"/>
<path d="M31.6013 26.8525H20.3102V28.223H31.6013V26.8525Z" fill="#5F5F5F"/>
<path d="M90.0056 26.8525H78.7145V28.223H90.0056V26.8525Z" fill="#5F5F5F"/>
<path d="M10.4114 68.5004C10.7063 68.6697 10.9355 68.9045 11.1103 69.2048C11.2795 69.505 11.3669 69.849 11.3669 70.2258C11.3669 70.608 11.2795 70.9465 11.1103 71.2522C10.941 71.5525 10.7063 71.7928 10.4114 71.9566C10.1166 72.1258 9.78898 72.2077 9.42862 72.2077C9.06827 72.2077 8.74071 72.1258 8.44588 71.9566C8.15104 71.7873 7.92171 71.5525 7.75246 71.2522C7.5832 70.9465 7.49579 70.608 7.49579 70.2258C7.49579 69.8436 7.5832 69.505 7.75246 69.2048C7.92171 68.9045 8.1565 68.6697 8.44588 68.5004C8.74071 68.3312 9.06827 68.2493 9.42862 68.2493C9.78898 68.2493 10.1166 68.3312 10.4114 68.5004ZM8.83351 69.1174C8.66425 69.2211 8.52776 69.3686 8.42948 69.5597C8.3312 69.7507 8.28205 69.9746 8.28205 70.2312C8.28205 70.4878 8.3312 70.7117 8.42948 70.9028C8.52776 71.0939 8.65879 71.2413 8.83351 71.345C9.00277 71.4488 9.20476 71.4979 9.42862 71.4979C9.65248 71.4979 9.85448 71.4488 10.0237 71.345C10.193 71.2413 10.3295 71.0939 10.4278 70.9028C10.526 70.7117 10.5752 70.4878 10.5752 70.2312C10.5752 69.9746 10.526 69.7507 10.4278 69.5597C10.3295 69.3686 10.1984 69.2211 10.0237 69.1174C9.85448 69.0137 9.65248 68.9645 9.42862 68.9645C9.1993 68.9591 9.00277 69.0137 8.83351 69.1174Z" fill="#5F5F5F"/>
<path d="M18.0173 72.1751L17.111 70.6682H16.7725V72.1751H15.9972V68.304H17.4713C17.9191 68.304 18.263 68.4132 18.4978 68.6316C18.7326 68.85 18.8527 69.1394 18.8527 69.4997C18.8527 69.7946 18.7708 70.0348 18.607 70.2368C18.4433 70.4334 18.2085 70.5644 17.9027 70.6299L18.8691 72.1751H18.0173ZM16.7725 70.1331H17.4113C17.8535 70.1331 18.0719 69.9365 18.0719 69.5489C18.0719 69.3632 18.0174 69.2158 17.9082 69.1121C17.799 69.0083 17.6351 68.9537 17.4058 68.9537H16.7671V70.1331H16.7725Z" fill="#5F5F5F"/>
<path d="M26.3926 68.615C26.7038 68.8497 26.9003 69.161 26.9877 69.5541H26.1796C26.1032 69.3794 25.983 69.2374 25.8138 69.1337C25.65 69.0299 25.4535 68.9753 25.2241 68.9753C25.0003 68.9753 24.8037 69.0245 24.6344 69.1282C24.4652 69.2319 24.3287 69.3794 24.2359 69.565C24.1376 69.7561 24.0939 69.98 24.0939 70.2311C24.0939 70.6351 24.2031 70.9518 24.4215 71.1811C24.6399 71.4105 24.9347 71.5196 25.3115 71.5196C25.5899 71.5196 25.8247 71.4378 26.0267 71.274C26.2233 71.1102 26.3543 70.8808 26.4144 70.5915H25.104V70.04H27.0587V70.7826C27.0041 71.0392 26.8949 71.274 26.7366 71.4923C26.5782 71.7053 26.3707 71.88 26.1141 72.011C25.8575 72.1421 25.5627 72.2076 25.2296 72.2076C24.8474 72.2076 24.5143 72.1257 24.2249 71.9564C23.9356 71.7926 23.7117 71.5579 23.5534 71.263C23.395 70.9627 23.3132 70.6242 23.3132 70.242C23.3132 69.8598 23.395 69.5159 23.5534 69.221C23.7117 68.9207 23.9356 68.6914 24.2249 68.5222C24.5143 68.3529 24.8474 68.271 25.2296 68.271C25.6937 68.2655 26.0814 68.3802 26.3926 68.615Z" fill="#5F5F5F"/>
<path d="M34.0475 71.3941H32.497L32.224 72.1694H31.405L32.83 68.342H33.7145L35.1341 72.1694H34.3151L34.0475 71.3941ZM33.8401 70.8099L33.2723 69.1773L32.7044 70.8099H33.8401Z" fill="#5F5F5F"/>
<path d="M42.8812 72.175H42.1059L40.3751 69.5434V72.175H39.5998V68.304H40.3751L42.1059 70.9575V68.304H42.8812V72.175Z" fill="#5F5F5F"/>
<path d="M48.4122 68.304V72.175H47.6369V68.304H48.4122Z" fill="#5F5F5F"/>
<path d="M56.1165 68.6371C56.4332 68.8882 56.6461 69.2213 56.7444 69.6526H55.9309C55.849 69.4451 55.718 69.2813 55.5378 69.1612C55.3631 69.0411 55.1447 68.981 54.899 68.981C54.6969 68.981 54.5113 69.0302 54.3475 69.1339C54.1837 69.2377 54.0527 69.3851 53.9653 69.5707C53.8725 69.7618 53.8288 69.9857 53.8288 70.2368C53.8288 70.488 53.8725 70.7118 53.9653 70.8975C54.0581 71.0886 54.1837 71.236 54.3475 71.3343C54.5113 71.438 54.6969 71.4872 54.899 71.4872C55.1447 71.4872 55.3631 71.4271 55.5378 71.307C55.7125 71.1869 55.8435 71.0231 55.9309 70.8156H56.7444C56.6407 71.2415 56.4332 71.58 56.1165 71.8311C55.7998 72.0823 55.3958 72.2024 54.9154 72.2024C54.5441 72.2024 54.2219 72.1205 53.938 71.9512C53.6541 71.7874 53.4357 71.5527 53.2828 71.2524C53.13 70.9521 53.048 70.6136 53.048 70.2314C53.048 69.8492 53.1245 69.5052 53.2828 69.2049C53.4357 68.9046 53.6541 68.6698 53.938 68.506C54.2219 68.3368 54.5441 68.2549 54.9208 68.2549C55.3958 68.2658 55.7998 68.3914 56.1165 68.6371Z" fill="#5F5F5F"/>
<path d="M69.3515 70.5098C69.4935 70.6845 69.5645 70.8865 69.5645 71.1213C69.5645 71.4489 69.4553 71.7055 69.2369 71.8911C69.0185 72.0768 68.7018 72.175 68.2923 72.175H66.6325V68.304H68.2596C68.6527 68.304 68.953 68.3913 69.1605 68.5606C69.3679 68.7298 69.4771 68.9755 69.4771 69.2867C69.4771 69.527 69.4116 69.7235 69.286 69.8764C69.1604 70.0293 68.9966 70.1276 68.7891 70.1767C69.0239 70.2258 69.2096 70.335 69.3515 70.5098ZM67.4024 69.9256H68.1012C68.2923 69.9256 68.4397 69.8819 68.5435 69.7945C68.6418 69.7072 68.6964 69.587 68.6964 69.4232C68.6964 69.2649 68.6472 69.1393 68.5489 69.052C68.4507 68.9646 68.2978 68.9209 68.0958 68.9209H67.4133V69.9256H67.4024ZM68.609 71.4106C68.7182 71.3233 68.7728 71.1923 68.7728 71.0175C68.7728 70.8483 68.7182 70.7118 68.6035 70.619C68.4943 70.5261 68.336 70.477 68.1285 70.477H67.3969V71.5417H68.134C68.3415 71.5417 68.4998 71.498 68.609 71.4106Z" fill="#5F5F5F"/>
<path d="M74.9312 68.921V69.9256H76.3017V70.5153H74.9312V71.5581H76.4655V72.1751H74.1559V68.304H76.4655V68.9155H74.9312V68.921Z" fill="#5F5F5F"/>
<path d="M83.4485 71.3941H81.8978L81.6248 72.1694H80.8058L82.2309 68.342H83.1154L84.535 72.1694H83.716L83.4485 71.3941ZM83.241 70.8099L82.6732 69.1774L82.1053 70.8099H83.241Z" fill="#5F5F5F"/>
<path d="M89.7493 68.304V70.5753C89.7493 70.8756 89.8148 71.105 89.9513 71.2578C90.0823 71.4107 90.2789 71.4871 90.5301 71.4871C90.7758 71.4871 90.9668 71.4107 91.1033 71.2578C91.2344 71.105 91.3054 70.8811 91.3054 70.5753V68.304H92.0752V70.5753C92.0752 70.9357 92.0097 71.236 91.8732 71.4817C91.7422 71.7274 91.5565 71.913 91.3218 72.0331C91.087 72.1533 90.8195 72.2133 90.5192 72.2133C90.0551 72.2133 89.6838 72.0768 89.4053 71.7984C89.1269 71.5199 88.9904 71.1159 88.9904 70.5753V68.304H89.7493Z" fill="#5F5F5F"/>
<path d="M99.4298 68.304V68.9155H98.3597V72.1696H97.5844V68.9155H96.5197V68.304H99.4298Z" fill="#5F5F5F"/>
<path d="M107.036 68.304L105.725 70.821V72.175H104.944V70.821L103.629 68.304H104.519L105.343 69.9965L106.167 68.304H107.036Z" fill="#5F5F5F"/>
</svg>
