<svg width="126" height="107" viewBox="0 0 126 107" fill="none" xmlns="http://www.w3.org/2000/svg">
<path d="M24.1197 45.7679L23.2126 45.7393L21.962 45.7565C21.3367 45.7737 20.8831 45.7852 20.6014 45.7852C20.5327 45.7852 20.464 45.7622 20.3952 45.722C20.3265 45.6761 20.2922 45.6302 20.2922 45.5671C20.2922 45.4007 20.4021 45.2974 20.622 45.2457C21.0755 45.1711 21.3779 45.0678 21.5359 44.9473C21.694 44.8268 21.7696 44.6202 21.7696 44.3275V37.7278C21.7696 37.4179 21.694 37.1998 21.5428 37.0735C21.3916 36.9473 21.0824 36.8383 20.622 36.7522C20.4021 36.7063 20.2922 36.5972 20.2922 36.4308C20.2922 36.3734 20.3265 36.3218 20.3952 36.2758C20.464 36.2299 20.5327 36.2127 20.6014 36.2127C21.0274 36.2127 21.481 36.2299 21.962 36.2586C22.5873 36.2758 23.0065 36.2873 23.2126 36.2873C23.3982 36.2873 23.9204 36.2701 24.7794 36.2299C26.0575 36.184 26.7585 36.1553 26.889 36.1553C27.9679 36.1553 28.978 36.3562 29.9126 36.7522C30.8472 37.1482 31.5893 37.7048 32.1528 38.4222C32.7094 39.1395 32.9911 39.9545 32.9911 40.8669C32.9911 41.7393 32.7506 42.5542 32.2627 43.3174C31.7748 44.0807 31.0602 44.689 30.1119 45.1481C29.1636 45.6073 28.0435 45.8368 26.7447 45.8368C26.2087 45.8426 25.3429 45.8196 24.1197 45.7679ZM28.9643 44.0463C29.5209 43.3806 29.8026 42.4624 29.8026 41.2916C29.8026 39.9717 29.5072 38.9272 28.9162 38.1582C28.3252 37.3892 27.4456 37.0047 26.2912 37.0047C25.7002 37.0047 25.2948 37.0334 25.0749 37.085C24.855 37.1367 24.745 37.2744 24.745 37.4867V43.7938C24.745 44.2414 24.8825 44.557 25.1574 44.7522C25.4322 44.9473 25.8651 45.0448 26.4699 45.0448C27.5693 45.0448 28.4077 44.712 28.9643 44.0463Z" fill="#5F5F5F"/>
<path d="M37.9592 45.7394C37.9042 45.6935 37.8699 45.6361 37.8699 45.5788C37.8699 45.5214 37.9042 45.464 37.9661 45.4066C38.0279 45.3492 38.1173 45.3033 38.2203 45.2746C38.6258 45.177 38.9006 45.0737 39.0449 44.9532C39.1892 44.8384 39.2648 44.6376 39.2648 44.3564V37.728C39.2648 37.4181 39.1961 37.2 39.0587 37.068C38.9212 36.936 38.6395 36.8327 38.2203 36.7581C37.9798 36.7122 37.8561 36.6089 37.8561 36.4539C37.8561 36.3851 37.8905 36.3277 37.9523 36.2875C38.0142 36.2416 38.0966 36.2244 38.2066 36.2244C38.6258 36.2244 39.0587 36.2416 39.5122 36.2703C40.0894 36.2875 40.4949 36.299 40.7148 36.299C42.2678 36.299 43.6215 36.2818 44.7691 36.2531C45.1264 36.2531 45.4357 36.2359 45.683 36.1957C45.9304 36.1555 46.0747 36.1383 46.1091 36.1383C46.2122 36.1383 46.3152 36.1613 46.4046 36.2129C46.4939 36.2646 46.5489 36.3392 46.5626 36.4482C46.597 36.7696 46.6519 37.0623 46.7207 37.3377C46.81 37.8829 46.8581 38.2387 46.8581 38.4109C46.8581 38.497 46.8375 38.5658 46.7963 38.6232C46.755 38.6749 46.7001 38.7036 46.6313 38.7036C46.5626 38.7036 46.4939 38.6806 46.4321 38.6405C46.3702 38.5945 46.3152 38.5372 46.2671 38.4568C46.0953 38.101 45.9648 37.8485 45.8823 37.7165C45.7999 37.5788 45.7037 37.464 45.5868 37.3664C45.4219 37.2287 45.2433 37.1197 45.044 37.0336C44.8447 36.9475 44.6042 36.9016 44.3156 36.9016H43.2161C42.9275 36.9016 42.687 36.9647 42.5014 37.0852C42.3159 37.2057 42.2197 37.3664 42.2197 37.573V40.2473C42.2197 40.4826 42.3709 40.5974 42.6732 40.5974H44.1506C44.4186 40.5974 44.6179 40.5228 44.7485 40.3793C44.879 40.2359 45.0165 40.0063 45.1608 39.6964C45.2501 39.5242 45.3738 39.4324 45.525 39.4324C45.58 39.4324 45.6349 39.4668 45.683 39.5242C45.7311 39.5874 45.7449 39.6677 45.738 39.7653C45.683 40.2301 45.6487 40.6318 45.6487 40.9704C45.6487 41.3894 45.6693 41.7911 45.7174 42.1756V42.2904C45.7174 42.4855 45.6624 42.5831 45.5456 42.5831C45.4631 42.5831 45.3807 42.5486 45.3051 42.4798C45.2226 42.4109 45.1677 42.3305 45.1333 42.233C45.0302 41.9059 44.9065 41.6591 44.7691 41.5041C44.6317 41.3492 44.453 41.2689 44.2468 41.2689H42.6114C42.3571 41.2689 42.2266 41.3779 42.2266 41.6017V44.3506C42.2266 44.6146 42.2953 44.804 42.4258 44.9188C42.5564 45.0336 42.7763 45.0909 43.0787 45.0909H44.6248C45.1608 45.0909 45.58 44.9819 45.8961 44.7581C46.2328 44.5228 46.5626 44.1383 46.8856 43.5931C46.9543 43.4783 47.0643 43.4209 47.2154 43.4209C47.3323 43.4209 47.3872 43.5185 47.3872 43.7136C47.3872 43.8858 47.3597 44.0752 47.2979 44.2818C47.2429 44.4826 47.1467 44.7523 47.0162 45.0795L46.8237 45.6304C46.7756 45.7452 46.6382 45.8026 46.4046 45.8026L45.7243 45.7854C43.4635 45.7567 41.7868 45.7394 40.6942 45.7394C40.3025 45.7394 39.8764 45.7567 39.4229 45.7854C38.8182 45.8026 38.4059 45.814 38.186 45.814C38.0966 45.814 38.021 45.7911 37.9592 45.7394Z" fill="#5F5F5F"/>
<path d="M52.8784 45.3491C52.6791 45.2516 52.5486 45.1311 52.4798 44.9876C52.2737 44.5342 52.1637 43.9431 52.1637 43.2143C52.1637 43.0134 52.1706 42.8585 52.1844 42.7494C52.1844 42.6232 52.2943 42.5601 52.5142 42.5601C52.631 42.5601 52.7135 42.5715 52.7547 42.5945C52.8028 42.6174 52.844 42.6691 52.8921 42.7494C53.1739 43.507 53.5724 44.1095 54.0947 44.5687C54.617 45.022 55.2217 45.2516 55.902 45.2516C56.4036 45.2516 56.7816 45.1138 57.0495 44.8384C57.3175 44.5629 57.4481 44.253 57.4481 43.9144C57.4481 43.507 57.3038 43.1798 57.0152 42.9273C56.7266 42.6748 56.2112 42.3822 55.469 42.0378C54.8162 41.7451 54.294 41.4811 53.9023 41.2401C53.5106 40.9991 53.1739 40.6834 52.899 40.3047C52.6241 39.9202 52.4867 39.4668 52.4867 38.9331C52.4867 38.3707 52.6722 37.8771 53.0433 37.441C53.4144 37.0106 53.916 36.6777 54.5551 36.4424C55.1942 36.2071 55.8882 36.0923 56.6441 36.0923C57.0633 36.0923 57.4825 36.1268 57.9085 36.2014C58.3346 36.276 58.685 36.3563 58.9599 36.4539C59.1111 36.5055 59.2141 36.5572 59.276 36.6146C59.331 36.672 59.3928 36.781 59.4478 36.936C59.5646 37.3262 59.6196 37.9116 59.6196 38.6978C59.6196 38.7437 59.5921 38.7896 59.5302 38.8298C59.4684 38.87 59.3928 38.8872 59.2897 38.8872C59.1867 38.8872 59.0905 38.8642 59.008 38.824C58.9255 38.7781 58.8774 38.7265 58.8499 38.6576C58.6644 38.0665 58.3758 37.6131 57.9772 37.3032C57.5855 36.9933 57.0977 36.8384 56.5342 36.8384C55.5034 36.8384 54.988 37.2516 54.988 38.0723C54.988 38.3707 55.1736 38.6576 55.5378 38.9216C55.902 39.1856 56.4998 39.5242 57.3244 39.9317C58.3139 40.4252 58.9874 40.8958 59.3516 41.3491C59.7158 41.8025 59.9013 42.3477 59.9013 42.9962C59.9013 43.9948 59.5302 44.7351 58.7812 45.2229C58.0322 45.705 56.9946 45.9517 55.6752 45.9517C54.6032 45.946 53.6686 45.7451 52.8784 45.3491Z" fill="#5F5F5F"/>
<path d="M65.0622 45.7165C64.9935 45.6706 64.9592 45.6246 64.9592 45.5615C64.9592 45.3951 65.0691 45.2918 65.289 45.2401C65.7425 45.1655 66.0449 45.0622 66.2029 44.9417C66.361 44.8212 66.4366 44.6146 66.4366 44.3219V37.7222C66.4366 37.4123 66.361 37.1942 66.2098 37.068C66.0586 36.9417 65.7494 36.8327 65.289 36.7466C65.0691 36.7007 64.9592 36.5917 64.9592 36.4252C64.9592 36.3678 64.9935 36.3162 65.0622 36.2703C65.1309 36.2244 65.1997 36.2072 65.2684 36.2072C65.6944 36.2072 66.148 36.2244 66.629 36.2531C67.2543 36.2703 67.6735 36.2818 67.8796 36.2818C68.0995 36.2818 68.5325 36.2703 69.1853 36.2531C69.8587 36.2358 70.326 36.2244 70.5802 36.2244C70.7658 36.2244 70.862 36.299 70.862 36.4424C70.862 36.5285 70.8345 36.5974 70.7864 36.6376C70.7314 36.6835 70.649 36.7179 70.5321 36.7466C70.058 36.8614 69.7488 36.9819 69.6113 37.1082C69.4739 37.2344 69.4052 37.441 69.4052 37.7337V44.3047C69.4052 44.5744 69.4808 44.7753 69.6319 44.8958C69.7831 45.0163 70.0855 45.1311 70.539 45.2401C70.6558 45.2688 70.7383 45.3033 70.7933 45.3492C70.8482 45.3951 70.8689 45.4582 70.8689 45.5443C70.8689 45.6878 70.7726 45.7624 70.5871 45.7624C70.3329 45.7624 69.8656 45.7509 69.1921 45.7337C68.5393 45.7165 68.1064 45.705 67.8865 45.705C67.6804 45.705 67.2612 45.7165 66.6359 45.7337C66.1686 45.7624 65.7219 45.7796 65.2752 45.7796C65.2065 45.7853 65.1378 45.7624 65.0622 45.7165Z" fill="#5F5F5F"/>
<path d="M78.7576 45.3435C77.823 44.9418 77.0877 44.3794 76.5449 43.6506C76.002 42.9217 75.734 42.0953 75.734 41.1656C75.734 40.2818 76.002 39.4497 76.5449 38.675C77.0877 37.8945 77.8574 37.2689 78.8607 36.7983C79.8639 36.3278 81.0253 36.0925 82.3515 36.0925C82.8256 36.0925 83.4304 36.1441 84.1519 36.2532C84.8803 36.3622 85.4438 36.4827 85.8492 36.6147C86.0691 36.695 86.1997 36.8213 86.234 37.0049C86.3715 37.7969 86.4402 38.388 86.4402 38.7668C86.4402 38.8643 86.4127 38.9389 86.3646 38.9849C86.3096 39.0308 86.2409 39.0595 86.1447 39.0595C86.0141 39.0595 85.9179 39.0365 85.8492 38.9849C85.7805 38.9389 85.7186 38.8643 85.6568 38.7668C85.3544 38.2216 85.0521 37.8256 84.7497 37.5731C84.4955 37.3608 84.2069 37.1943 83.877 37.0738C83.5541 36.9533 83.1486 36.8902 82.6607 36.8902C81.8705 36.8902 81.1902 37.0681 80.6267 37.4181C80.0563 37.774 79.6303 38.2445 79.3486 38.8299C79.0668 39.4153 78.9225 40.0523 78.9225 40.741C78.9225 42.1068 79.1836 43.18 79.7128 43.9547C80.2419 44.7295 81.0527 45.1197 82.1385 45.1197C82.4408 45.1197 82.7707 45.0107 83.128 44.7983C83.2448 44.7295 83.3342 44.6147 83.396 44.454C83.4579 44.2933 83.4991 44.1097 83.506 43.8916C83.5266 43.5645 83.5403 43.1341 83.5403 42.6118C83.5403 42.3593 83.3891 42.1872 83.0868 42.0896C82.7363 41.9748 82.4065 41.8887 82.0972 41.8256C81.9804 41.7969 81.8773 41.751 81.7949 41.6936C81.7056 41.6362 81.6643 41.5673 81.6643 41.4927C81.6643 41.4239 81.6987 41.3722 81.7743 41.3321C81.8499 41.2919 81.9392 41.2747 82.0423 41.2747C82.4821 41.2747 82.9631 41.2919 83.4853 41.3206C84.1588 41.3378 84.5986 41.3493 84.8116 41.3493C85.0315 41.3493 85.3957 41.3378 85.9111 41.3206C86.4471 41.3034 86.8387 41.2919 87.093 41.2919C87.2785 41.2919 87.3747 41.3665 87.3747 41.51C87.3747 41.596 87.3473 41.6649 87.2991 41.7108C87.2442 41.7567 87.1617 41.7912 87.0449 41.8141C86.7082 41.8945 86.4745 41.9805 86.3509 42.0781C86.2203 42.1757 86.1378 42.3249 86.0897 42.5315C86.0073 42.8586 85.966 43.2259 85.966 43.6219V44.1154C85.966 44.1728 86.0073 44.2359 86.076 44.2991C86.1516 44.3622 86.1928 44.3966 86.2065 44.4081C86.3234 44.5057 86.3783 44.6089 86.3783 44.7295C86.3783 44.8098 86.3508 44.8787 86.289 44.9418C86.234 45.0049 86.1378 45.0394 86.0073 45.0508C85.9248 45.0623 85.7668 45.114 85.5194 45.2115C84.9971 45.4124 84.4474 45.5903 83.8633 45.7338C83.2861 45.8772 82.6058 45.9518 81.8292 45.9518C80.716 45.9461 79.6921 45.7453 78.7576 45.3435Z" fill="#5F5F5F"/>
<path d="M103.035 45.7622C102.692 45.59 102.348 45.3318 101.998 44.9875L95.2291 38.9846C95.1467 38.887 95.0848 38.8411 95.0367 38.8411C94.9543 38.8411 94.913 38.9329 94.913 39.1166C94.913 39.8225 94.9336 40.6259 94.968 41.5154C94.9818 41.8655 94.9886 42.2615 95.0024 42.7091C95.0161 43.1568 95.023 43.6216 95.023 44.1037C95.023 44.425 95.1398 44.6718 95.3803 44.844C95.6208 45.0162 95.9782 45.1539 96.4661 45.2514C96.7822 45.3203 96.9333 45.4236 96.9333 45.5556C96.9333 45.6245 96.8921 45.6761 96.8028 45.7163C96.7134 45.7565 96.6172 45.7737 96.5141 45.7737C96.1431 45.7737 95.7583 45.7622 95.3666 45.745L94.5145 45.7278C94.1778 45.7278 93.8479 45.7335 93.5249 45.7507C93.202 45.7679 92.989 45.7794 92.8996 45.7852C92.8172 45.7852 92.7278 45.7622 92.6385 45.722C92.5423 45.6761 92.5011 45.6302 92.5011 45.5671C92.5011 45.4867 92.5354 45.4294 92.6041 45.3834C92.6728 45.3375 92.7759 45.2916 92.9202 45.2457C93.4425 45.0735 93.7311 44.6776 93.7929 44.0692C94.0334 41.9172 94.1571 40.0119 94.1571 38.3591C94.1571 37.9057 94.0266 37.5614 93.7655 37.3261C93.5043 37.0908 93.1195 36.8956 92.611 36.7292C92.2949 36.6604 92.1437 36.557 92.1437 36.4078C92.1437 36.2529 92.2949 36.1783 92.5973 36.1783L93.9235 36.207C95.3185 36.2357 96.0537 36.2529 96.1362 36.2529C96.2874 36.2529 96.4042 36.3045 96.4867 36.3964L102.912 42.3418C103.029 42.4566 103.111 42.514 103.152 42.514C103.242 42.514 103.29 42.4451 103.29 42.3131V40.7866C103.29 39.2773 103.269 38.25 103.235 37.7048C103.221 37.4351 103.111 37.2342 102.905 37.108C102.699 36.9817 102.355 36.8669 101.881 36.7579C101.613 36.7005 101.482 36.5972 101.482 36.4537C101.482 36.3964 101.517 36.3447 101.592 36.2988C101.668 36.2529 101.75 36.2357 101.847 36.2357L102.98 36.2529C103.132 36.2644 103.372 36.2701 103.695 36.2701L104.499 36.2529C104.87 36.2357 105.221 36.2242 105.544 36.2242C105.674 36.2242 105.77 36.2414 105.846 36.2816C105.922 36.3218 105.956 36.3734 105.956 36.4423C105.956 36.5972 105.812 36.7005 105.523 36.7464C105.104 36.8153 104.808 36.9129 104.637 37.0449C104.465 37.1768 104.375 37.3834 104.375 37.6646C104.375 38.2443 104.334 39.3519 104.252 40.9817C104.197 41.9344 104.162 42.6976 104.162 43.2773C104.162 43.5011 104.183 43.7766 104.224 44.0979C104.265 44.425 104.293 44.6316 104.3 44.7292C104.348 45.0965 104.369 45.2916 104.369 45.3088C104.369 45.7852 104.197 46.0204 103.867 46.0204C103.647 46.0147 103.379 45.9344 103.035 45.7622Z" fill="#5F5F5F"/>
<path d="M0.10324 71.9604C0.0482658 71.9145 0.013909 71.8571 0.013909 71.7997C0.013909 71.7424 0.0482673 71.685 0.110113 71.6218C0.171959 71.5644 0.261293 71.5185 0.364369 71.4898C0.769802 71.3923 1.04467 71.289 1.18898 71.1685C1.33328 71.0537 1.40887 70.8528 1.40887 70.5716V63.9432C1.40887 63.6333 1.34016 63.4152 1.20272 63.2833C1.06529 63.1513 0.783545 63.048 0.364369 62.9734C0.123858 62.9274 0.000167847 62.8241 0.000167847 62.6692C0.000167847 62.6003 0.0345261 62.5429 0.0963718 62.5028C0.158217 62.4569 0.247547 62.4396 0.350623 62.4396C0.769799 62.4396 1.23021 62.4569 1.74559 62.497C2.21287 62.5372 2.57707 62.5544 2.84507 62.5544C3.07871 62.5544 3.41542 62.5372 3.85521 62.497C4.41183 62.4396 4.94095 62.4109 5.44258 62.4109C6.87191 62.4109 7.93703 62.5774 8.63795 62.9102C9.33886 63.2431 9.68932 63.7998 9.68932 64.5745C9.68932 64.8672 9.60686 65.1427 9.43506 65.4124C9.26327 65.6821 9.0365 65.9117 8.74789 66.1183C8.36307 66.388 7.93703 66.5716 7.45601 66.6577C7.4079 66.6692 7.38729 66.6921 7.38729 66.7323C7.38729 66.7725 7.4079 66.7954 7.45601 66.8069C8.26687 66.9332 8.94717 67.1627 9.49004 67.5071C10.0329 67.8457 10.3078 68.3966 10.3078 69.1484C10.3078 69.6534 10.2116 70.0666 10.0192 70.3822C9.82675 70.7036 9.60686 70.9446 9.35948 71.1111C9.11209 71.2775 8.80974 71.4325 8.46615 71.5759C7.71026 71.8744 6.69324 72.0293 5.42197 72.0293C5.13336 72.0293 4.70731 72.0178 4.1507 72.0006C3.59409 71.9834 3.16117 71.9719 2.86568 71.9719C2.48086 71.9719 2.05482 71.9891 1.58066 72.0178C1.00344 72.035 0.591137 72.0465 0.364369 72.0465C0.240678 72.035 0.158214 72.0063 0.10324 71.9604ZM5.7793 66.5257C5.98545 66.4683 6.1916 66.365 6.39088 66.2216C6.5077 66.124 6.61765 65.969 6.7276 65.751C6.83755 65.5329 6.89252 65.2517 6.89252 64.9131C6.89252 64.2761 6.75509 63.8112 6.48022 63.5243C6.20535 63.2373 5.79992 63.0939 5.25018 63.0939C4.65921 63.0939 4.36372 63.3005 4.36372 63.7022V66.101C4.36372 66.256 4.43931 66.3823 4.58362 66.4741C4.72792 66.5659 4.8791 66.6118 5.04402 66.6118C5.32576 66.6118 5.56627 66.5831 5.7793 66.5257ZM6.25345 70.9217C6.52832 70.7495 6.74134 70.52 6.90626 70.233C7.07119 69.9403 7.14677 69.619 7.14677 69.2574C7.14677 68.5286 6.88565 67.9891 6.3634 67.6276C6.26032 67.553 6.0954 67.4784 5.8755 67.4095C5.65561 67.3406 5.40823 67.3062 5.12649 67.3062C4.94095 67.3062 4.76915 67.3464 4.60423 67.421C4.43931 67.4956 4.36372 67.6161 4.36372 67.7711V70.2732C4.36372 70.5659 4.45305 70.784 4.62485 70.9447C4.79664 71.0996 5.04403 71.1742 5.35325 71.1742C5.6831 71.1742 5.98545 71.0881 6.25345 70.9217Z" fill="#5F5F5F"/>
<path d="M24.1197 71.8855C23.6112 71.633 23.144 71.2772 22.7248 70.8124C22.3056 70.336 21.9345 69.8827 21.6116 69.4465C21.2886 69.0103 20.9725 68.5168 20.6701 67.9659C20.5533 67.7535 20.4159 67.6101 20.251 67.5297C20.1204 67.4609 19.983 67.4264 19.8318 67.4264C19.715 67.4264 19.66 67.524 19.66 67.7191V70.5426C19.66 70.8353 19.7562 71.0362 19.9486 71.1509C20.141 71.2657 20.4983 71.3748 21.0206 71.4723C21.1374 71.4895 21.2199 71.524 21.2748 71.5756C21.3298 71.6215 21.3504 71.6904 21.3504 71.7765C21.3504 71.92 21.2542 71.9946 21.0687 71.9946L19.5569 71.9659L18.1482 71.9372C17.942 71.9372 17.5229 71.9487 16.8975 71.9659C16.4303 71.9946 15.9836 72.0118 15.5369 72.0118C15.4682 72.0118 15.3995 71.9888 15.3308 71.9487C15.2621 71.9027 15.2277 71.8568 15.2277 71.7937C15.2277 71.6273 15.3377 71.524 15.5576 71.4723C16.0111 71.3977 16.3134 71.2944 16.4715 71.1739C16.6295 71.0534 16.7051 70.8468 16.7051 70.5541V63.9544C16.7051 63.6445 16.6364 63.4264 16.499 63.2944C16.3615 63.1624 16.0798 63.0591 15.6606 62.9845C15.4201 62.9386 15.2964 62.8353 15.2964 62.6804C15.2964 62.6115 15.3308 62.5541 15.3926 62.5139C15.4545 62.468 15.5438 62.4508 15.6469 62.4508C16.0661 62.4508 16.5265 62.468 17.0418 62.5082C17.5023 62.5484 17.8733 62.5656 18.1413 62.5656C18.3612 62.5656 18.6842 62.5484 19.0965 62.5082C19.605 62.4508 20.1204 62.4221 20.6426 62.4221C22.0376 62.4221 23.1027 62.6172 23.838 63.0018C24.5733 63.392 24.9443 63.9716 24.9443 64.7464C24.9443 65.3375 24.7245 65.8138 24.2847 66.1753C23.8449 66.5369 23.302 66.8009 22.6629 66.9558C22.6286 66.9673 22.608 66.9903 22.608 67.0304C22.608 67.0706 22.6217 67.105 22.6423 67.1337C23.2195 67.8626 23.7555 68.4881 24.2434 69.0218C24.7313 69.5555 25.2055 70.0032 25.6728 70.3762C26.0301 70.6574 26.408 70.8353 26.7928 70.9157C27.1845 70.9903 27.6518 71.0304 28.1947 71.0304C28.3665 71.0304 28.4558 71.1223 28.4558 71.3059C28.4558 71.9544 27.7137 72.2815 26.2294 72.2815C25.336 72.2643 24.6351 72.138 24.1197 71.8855ZM21.639 66.4336C21.9483 66.1065 22.0994 65.6531 22.0994 65.0792C22.0994 64.402 21.9483 63.897 21.6459 63.5756C21.3436 63.2485 20.9106 63.0878 20.3403 63.0878C20.0998 63.0878 19.9211 63.1797 19.818 63.3576C19.715 63.5355 19.66 63.8913 19.66 64.425V66.3705C19.66 66.7378 19.8661 66.9214 20.2716 66.9214C20.8763 66.9271 21.3367 66.7664 21.639 66.4336Z" fill="#5F5F5F"/>
<path d="M32.4626 71.7883C32.4626 71.7023 32.4969 71.6334 32.5588 71.5932C32.6206 71.5473 32.7168 71.5071 32.8474 71.467C33.1979 71.3924 33.4933 71.2661 33.7407 71.1054C33.9881 70.939 34.1736 70.7496 34.2905 70.5373C35.3899 68.3967 36.3863 66.2905 37.2659 64.2303C37.4034 63.9089 37.5133 63.6219 37.5958 63.3637C37.6782 63.1054 37.7263 62.9792 37.7538 62.9792C38.2555 62.8816 38.6884 62.7783 39.0594 62.675C39.2587 62.6176 39.4443 62.5373 39.6161 62.4397C39.7878 62.3422 39.9253 62.2503 40.0146 62.1643C40.1108 62.1241 40.1658 62.1069 40.1864 62.1069C40.2414 62.1069 40.2895 62.1413 40.3238 62.2102C40.4063 62.3536 40.4681 62.4914 40.5163 62.6176C41.2378 64.5746 42.028 66.6578 42.9007 68.8673L43.5467 70.5373C43.7116 70.9849 44.172 71.2948 44.9417 71.467C45.0722 71.5071 45.1684 71.5416 45.2303 71.5817C45.2921 71.6219 45.3265 71.6851 45.3265 71.7711C45.3265 71.84 45.2921 71.8916 45.2303 71.9318C45.1684 71.972 45.086 71.9892 44.9966 71.9892C44.763 71.9892 44.3026 71.9777 43.6017 71.9605C42.8801 71.9433 42.3854 71.9318 42.1036 71.9318C41.87 71.9318 41.4302 71.9433 40.7774 71.9605C40.2414 71.9892 39.7535 72.0064 39.3137 72.0064C39.2106 72.0064 39.1213 71.9892 39.0526 71.949C38.9839 71.9089 38.9495 71.8572 38.9495 71.7883C38.9495 71.6219 39.0801 71.5186 39.3343 71.467C39.7397 71.3981 40.0421 71.312 40.2276 71.2145C40.42 71.1112 40.5163 70.9677 40.5163 70.784C40.5163 70.6865 40.5025 70.6119 40.4819 70.5488L39.939 68.8615C39.9184 68.7754 39.8841 68.7123 39.8428 68.6721C39.8016 68.632 39.7397 68.6148 39.6573 68.6148H36.6269C36.5306 68.6148 36.4688 68.632 36.4344 68.6721C36.4001 68.7123 36.3657 68.7754 36.3314 68.8615L36.0909 69.4871C36.0565 69.5961 36.0015 69.7338 35.9328 69.9117C35.8641 70.0839 35.8022 70.2388 35.761 70.3766C35.7129 70.5028 35.6923 70.6291 35.6923 70.7554C35.6923 70.939 35.7748 71.0825 35.9465 71.1858C36.1115 71.2891 36.4138 71.3809 36.8399 71.467C37.0941 71.5129 37.2247 71.6219 37.2247 71.7883C37.2247 71.9261 37.101 71.9892 36.8605 71.9892C36.5925 71.9892 36.2489 71.9777 35.8366 71.9605L34.8952 71.9433C34.5722 71.9433 34.2492 71.9605 33.94 71.9892C33.8369 72.0007 33.6789 72.0064 33.4727 72.0179C33.2666 72.0294 33.081 72.0294 32.9161 72.0294C32.6138 72.0351 32.4626 71.949 32.4626 71.7883ZM39.3 67.7711C39.4718 67.7711 39.5611 67.7367 39.5611 67.6678C39.5611 67.6564 39.5473 67.6047 39.5267 67.5071L38.4135 64.2934C38.3791 64.1958 38.3448 64.1499 38.3104 64.1499C38.2898 64.1499 38.2554 64.1958 38.2073 64.2934L36.8674 67.5071C36.8467 67.5473 36.833 67.5818 36.833 67.6219C36.833 67.6736 36.8605 67.708 36.9223 67.731C36.9773 67.7539 37.0529 67.7654 37.1285 67.7654H39.3V67.7711Z" fill="#5F5F5F"/>
<path d="M60.1829 71.9834C59.8393 71.8112 59.4957 71.553 59.1453 71.2029L52.3766 65.2001C52.2941 65.1025 52.2323 65.0566 52.1842 65.0566C52.1017 65.0566 52.0605 65.1484 52.0605 65.332C52.0605 66.0379 52.0811 66.8414 52.1155 67.7309C52.1292 68.081 52.1361 68.4769 52.1498 68.9246C52.1636 69.3722 52.1704 69.8371 52.1704 70.3191C52.1704 70.6405 52.2873 70.8873 52.5278 71.0594C52.7683 71.2316 53.1256 71.3693 53.6135 71.4669C53.9296 71.5358 54.0808 71.6391 54.0808 71.7711C54.0808 71.8399 54.0396 71.8916 53.9502 71.9317C53.8609 71.9719 53.7647 71.9891 53.6616 71.9891C53.2905 71.9891 52.9057 71.9777 52.514 71.9604L51.6619 71.9432C51.3252 71.9432 50.9954 71.949 50.6724 71.9662C50.3494 71.9834 50.1364 71.9949 50.0471 72.0006C49.9646 72.0006 49.8753 71.9777 49.7859 71.9375C49.6897 71.8916 49.6485 71.8457 49.6485 71.7825C49.6485 71.7079 49.6829 71.6448 49.7516 71.5989C49.8203 71.553 49.9234 71.5071 50.0677 71.4612C50.5899 71.289 50.8786 70.893 50.9404 70.2847C51.1809 68.1326 51.3046 66.2273 51.3046 64.5688C51.3046 64.1154 51.174 63.7711 50.9129 63.5358C50.6518 63.3005 50.267 63.1054 49.7585 62.9389C49.4424 62.8701 49.2912 62.761 49.2912 62.6176C49.2912 62.4626 49.4424 62.3823 49.7447 62.3823L51.071 62.411C52.4659 62.4397 53.2012 62.4569 53.2837 62.4569C53.4348 62.4569 53.5517 62.5028 53.6341 62.6003L60.0592 68.5458C60.176 68.6606 60.2585 68.718 60.2997 68.718C60.389 68.718 60.4371 68.6491 60.4371 68.5114V66.9848C60.4371 65.4755 60.4165 64.4483 60.3822 63.9031C60.3684 63.6333 60.2585 63.4325 60.0523 63.3062C59.8462 63.18 59.5026 63.0652 59.0284 62.9562C58.7604 62.8988 58.6299 62.7955 58.6299 62.652C58.6299 62.5946 58.6642 62.5429 58.7398 62.497C58.8154 62.4511 58.8979 62.4339 58.9941 62.4339L60.1279 62.4454C60.2791 62.4569 60.5196 62.4626 60.8426 62.4626L61.6466 62.4454C62.0176 62.4282 62.3681 62.4167 62.6911 62.4167C62.8216 62.4167 62.9178 62.4339 62.9934 62.4741C63.069 62.5143 63.1034 62.5659 63.1034 62.6348C63.1034 62.7897 62.9591 62.893 62.6705 62.9389C62.2513 63.0078 61.9558 63.1054 61.784 63.2373C61.6122 63.3693 61.5229 63.5759 61.5229 63.8571C61.5229 64.4368 61.4816 65.5444 61.3992 67.1742C61.3442 68.1269 61.3099 68.8901 61.3099 69.4698C61.3099 69.6936 61.3305 69.9691 61.3717 70.2904C61.4129 70.6175 61.4404 70.8241 61.4473 70.9217C61.4954 71.289 61.516 71.4841 61.516 71.5013C61.516 71.9777 61.3511 72.213 61.0144 72.213C60.7945 72.2359 60.5265 72.1498 60.1829 71.9834Z" fill="#5F5F5F"/>
<path d="M71.5216 71.989L70.6145 71.9603L69.3639 71.9775C68.7385 71.9948 68.285 72.0062 68.0032 72.0062C67.9345 72.0062 67.8658 71.9833 67.7971 71.9431C67.7284 71.8972 67.694 71.8513 67.694 71.7882C67.694 71.6217 67.804 71.5184 68.0239 71.4668C68.4774 71.3922 68.7797 71.2889 68.9378 71.1684C69.0958 71.0478 69.1714 70.8412 69.1714 70.5486V63.9489C69.1714 63.639 69.0959 63.4209 68.9447 63.2946C68.7935 63.1684 68.4843 63.0593 68.0239 62.9733C67.804 62.9273 67.694 62.8183 67.694 62.6519C67.694 62.5945 67.7284 62.5428 67.7971 62.4969C67.8658 62.451 67.9345 62.4338 68.0032 62.4338C68.4293 62.4338 68.8828 62.451 69.3639 62.4797C69.9892 62.4969 70.4084 62.5084 70.6145 62.5084C70.8 62.5084 71.3223 62.4912 72.1813 62.451C73.4594 62.4051 74.1603 62.3764 74.2909 62.3764C75.3698 62.3764 76.3799 62.5773 77.3145 62.9733C78.249 63.3692 78.9912 63.9259 79.5546 64.6433C80.1113 65.3606 80.393 66.1755 80.393 67.0823C80.393 67.9546 80.1525 68.7695 79.6646 69.5328C79.1767 70.2961 78.462 70.9044 77.5137 71.3635C76.5654 71.8226 75.4453 72.0521 74.1466 72.0521C73.6106 72.0636 72.7379 72.0349 71.5216 71.989ZM76.3593 70.2674C76.9159 69.6016 77.1976 68.6834 77.1976 67.5127C77.1976 66.1928 76.9022 65.1483 76.3112 64.3793C75.7202 63.6103 74.8406 63.2258 73.6862 63.2258C73.0952 63.2258 72.6898 63.2545 72.4699 63.3061C72.25 63.3578 72.14 63.4955 72.14 63.7078V70.0149C72.14 70.4625 72.2775 70.7781 72.5523 70.9732C72.8272 71.1684 73.2601 71.2659 73.8648 71.2659C74.9712 71.2602 75.8027 70.9331 76.3593 70.2674Z" fill="#5F5F5F"/>
<path d="M85.3611 71.9373C85.2923 71.8914 85.258 71.8455 85.258 71.7823C85.258 71.6159 85.3679 71.5126 85.5878 71.461C86.0414 71.3864 86.3437 71.2831 86.5018 71.1625C86.6598 71.042 86.7354 70.8354 86.7354 70.5427V63.943C86.7354 63.6331 86.6598 63.4151 86.5086 63.2888C86.3575 63.1626 86.0482 63.0535 85.5878 62.9674C85.3679 62.9215 85.258 62.8125 85.258 62.646C85.258 62.5887 85.2923 62.537 85.3611 62.4911C85.4298 62.4452 85.4985 62.428 85.5672 62.428C85.9933 62.428 86.4468 62.4452 86.9278 62.4739C87.5531 62.4911 87.9723 62.5026 88.1785 62.5026C88.3984 62.5026 88.8313 62.4911 89.4841 62.4739C90.1575 62.4567 90.6248 62.4452 90.8791 62.4452C91.0646 62.4452 91.1608 62.5198 91.1608 62.6633C91.1608 62.7493 91.1333 62.8182 91.0852 62.8584C91.0302 62.9043 90.9478 62.9387 90.831 62.9674C90.3568 63.0822 90.0476 63.2027 89.9102 63.329C89.7727 63.4552 89.704 63.6618 89.704 63.9545V70.5255C89.704 70.7953 89.7796 70.9904 89.9308 71.1166C90.0819 71.2371 90.3843 71.3519 90.8378 71.461C90.9547 71.4897 91.0371 71.5241 91.0921 71.57C91.1471 71.6159 91.1677 71.679 91.1677 71.7651C91.1677 71.9086 91.0715 71.9832 90.8859 71.9832C90.6317 71.9832 90.1644 71.9717 89.491 71.9545C88.8382 71.9373 88.4052 71.9258 88.1853 71.9258C87.9792 71.9258 87.56 71.9373 86.9347 71.9545C86.4674 71.9832 86.0207 72.0004 85.5741 72.0004C85.4985 72.0062 85.4298 71.9832 85.3611 71.9373Z" fill="#5F5F5F"/>
<path d="M106.678 71.9834C106.334 71.8112 105.99 71.553 105.64 71.2029L98.8712 65.2001C98.7888 65.1025 98.7269 65.0566 98.6788 65.0566C98.5963 65.0566 98.5551 65.1484 98.5551 65.332C98.5551 66.0379 98.5757 66.8414 98.6101 67.7309C98.6238 68.081 98.6307 68.4769 98.6445 68.9246C98.6582 69.3722 98.6651 69.8371 98.6651 70.3191C98.6651 70.6405 98.7819 70.8873 99.0224 71.0594C99.2629 71.2316 99.6202 71.3693 100.108 71.4669C100.424 71.5358 100.575 71.6391 100.575 71.7711C100.575 71.8399 100.534 71.8916 100.445 71.9317C100.356 71.9719 100.259 71.9891 100.156 71.9891C99.7852 71.9891 99.4003 71.9777 99.0087 71.9604L98.1566 71.9432C97.8198 71.9432 97.49 71.949 97.167 71.9662C96.8441 71.9834 96.631 71.9949 96.5417 72.0006C96.4592 72.0006 96.3699 71.9777 96.2806 71.9375C96.1844 71.8916 96.1431 71.8457 96.1431 71.7825C96.1431 71.7079 96.1775 71.6448 96.2462 71.5989C96.3149 71.553 96.418 71.5071 96.5623 71.4612C97.0846 71.289 97.3732 70.893 97.435 70.2847C97.6755 68.1326 97.7992 66.2273 97.7992 64.5688C97.7992 64.1154 97.6687 63.7711 97.4075 63.5358C97.1464 63.3005 96.7616 63.1054 96.2531 62.9389C95.937 62.8701 95.7858 62.761 95.7858 62.6176C95.7858 62.4626 95.937 62.3823 96.2393 62.3823L97.5656 62.411C98.9606 62.4397 99.6958 62.4569 99.7783 62.4569C99.9295 62.4569 100.046 62.5028 100.129 62.6003L106.554 68.5458C106.671 68.6606 106.753 68.718 106.794 68.718C106.884 68.718 106.932 68.6491 106.932 68.5114V66.9848C106.932 65.4755 106.911 64.4483 106.877 63.9031C106.863 63.6333 106.753 63.4325 106.547 63.3062C106.341 63.18 105.997 63.0652 105.523 62.9562C105.255 62.8988 105.125 62.7955 105.125 62.652C105.125 62.5946 105.159 62.5429 105.234 62.497C105.31 62.4511 105.393 62.4339 105.489 62.4339L106.623 62.4454C106.774 62.4569 107.014 62.4626 107.337 62.4626L108.141 62.4454C108.512 62.4282 108.863 62.4167 109.186 62.4167C109.316 62.4167 109.412 62.4339 109.488 62.4741C109.564 62.5143 109.598 62.5659 109.598 62.6348C109.598 62.7897 109.454 62.893 109.165 62.9389C108.746 63.0078 108.45 63.1054 108.279 63.2373C108.107 63.3693 108.018 63.5759 108.018 63.8571C108.018 64.4368 107.976 65.5444 107.894 67.1742C107.839 68.1269 107.804 68.8901 107.804 69.4698C107.804 69.6936 107.825 69.9691 107.866 70.2904C107.908 70.6175 107.935 70.8241 107.942 70.9217C107.99 71.289 108.011 71.4841 108.011 71.5013C108.011 71.9777 107.846 72.213 107.509 72.213C107.289 72.2359 107.021 72.1498 106.678 71.9834Z" fill="#5F5F5F"/>
<path d="M117.383 71.5586C116.448 71.1569 115.713 70.5945 115.17 69.8657C114.627 69.1368 114.359 68.3104 114.359 67.3807C114.359 66.4969 114.627 65.6705 115.17 64.89C115.713 64.1096 116.482 63.484 117.486 63.0134C118.489 62.5428 119.65 62.3076 120.977 62.3076C121.451 62.3076 122.055 62.3592 122.777 62.4682C123.505 62.5773 124.069 62.6978 124.474 62.8298C124.694 62.9101 124.825 63.0364 124.859 63.22C124.997 64.0177 125.065 64.6031 125.065 64.9819C125.065 65.0794 125.038 65.154 124.99 65.2C124.935 65.2516 124.866 65.2746 124.77 65.2746C124.639 65.2746 124.543 65.2516 124.474 65.2C124.406 65.154 124.344 65.0794 124.282 64.9819C123.979 64.4367 123.677 64.0407 123.375 63.7882C123.121 63.5758 122.832 63.4094 122.502 63.2889C122.179 63.1684 121.774 63.1053 121.286 63.1053C120.496 63.1053 119.815 63.2832 119.252 63.6332C118.681 63.989 118.255 64.4539 117.974 65.045C117.692 65.6304 117.548 66.2674 117.548 66.956C117.548 68.3219 117.809 69.3951 118.338 70.1698C118.867 70.9446 119.678 71.3348 120.764 71.3348C121.066 71.3348 121.396 71.2258 121.753 71.0134C121.87 70.9446 121.959 70.8298 122.021 70.6691C122.083 70.5084 122.124 70.3248 122.131 70.1067C122.152 69.7796 122.165 69.3492 122.165 68.8269C122.165 68.5744 122.014 68.4022 121.712 68.3047C121.361 68.1899 121.032 68.1038 120.722 68.0407C120.605 68.012 120.502 67.9661 120.42 67.9087C120.331 67.8513 120.289 67.7824 120.289 67.7021C120.289 67.6332 120.324 67.5816 120.399 67.5414C120.475 67.5012 120.564 67.484 120.667 67.484C121.107 67.484 121.588 67.5012 122.11 67.5299C122.784 67.5472 123.224 67.5586 123.437 67.5586C123.657 67.5586 124.021 67.5472 124.536 67.5299C125.072 67.5127 125.464 67.5012 125.718 67.5012C125.904 67.5012 126 67.5758 126 67.7193C126 67.8054 125.972 67.8743 125.924 67.9259C125.869 67.9718 125.787 68.0063 125.67 68.0292C125.333 68.1096 125.1 68.1956 124.976 68.2932C124.845 68.3908 124.763 68.54 124.715 68.7408C124.632 69.068 124.591 69.4352 124.591 69.8312V70.3248C124.591 70.3822 124.632 70.4453 124.701 70.5084C124.777 70.5715 124.818 70.606 124.832 70.6174C124.948 70.715 125.003 70.8183 125.003 70.9388C125.003 71.0134 124.976 71.088 124.914 71.1512C124.859 71.2143 124.763 71.2487 124.632 71.2602C124.55 71.2717 124.392 71.3233 124.144 71.4209C123.622 71.6218 123.072 71.7997 122.488 71.9431C121.911 72.0866 121.231 72.1612 120.454 72.1612C119.341 72.1612 118.31 71.9603 117.383 71.5586Z" fill="#5F5F5F"/>
<path d="M53.1939 52.5737C53.4413 52.7114 53.6131 52.8951 53.723 53.1246V52.413H54.7607V55.8391H53.723V55.1217C53.62 55.3513 53.4413 55.5349 53.1939 55.6784C52.9465 55.8162 52.6511 55.885 52.3075 55.885C51.9639 55.885 51.6478 55.8162 51.3729 55.6727C51.098 55.5349 50.8781 55.3284 50.727 55.0644C50.5689 54.8004 50.4933 54.4847 50.4933 54.1289C50.4933 53.7674 50.5689 53.4575 50.727 53.1935C50.885 52.9295 51.098 52.7229 51.3729 52.5852C51.6478 52.4474 51.9639 52.3728 52.3075 52.3728C52.6511 52.3671 52.9465 52.436 53.1939 52.5737ZM51.8402 53.3943C51.6409 53.5723 51.5447 53.8133 51.5447 54.1232C51.5447 54.4331 51.6409 54.6741 51.8402 54.852C52.0395 55.0299 52.3006 55.116 52.6236 55.116C52.9397 55.116 53.2008 55.0242 53.407 54.8463C53.6131 54.6684 53.7162 54.4273 53.7162 54.1232C53.7162 53.819 53.6131 53.578 53.407 53.3943C53.2008 53.2164 52.9397 53.1246 52.6236 53.1246C52.3006 53.1304 52.0395 53.2164 51.8402 53.3943Z" fill="#5F5F5F"/>
<path d="M62.9856 52.7515C63.2674 53.0098 63.4048 53.377 63.4048 53.8476V55.839H62.3672V53.9452C62.3672 53.6755 62.2847 53.4631 62.1129 53.3082C61.948 53.159 61.7143 53.0844 61.4257 53.0844C61.1302 53.0844 60.8897 53.1647 60.7179 53.3254C60.5393 53.4861 60.4499 53.7156 60.4499 54.0198V55.839H59.4054V52.4129H60.4499V53.1016C60.5599 52.872 60.7386 52.6884 60.9859 52.5621C61.2333 52.4301 61.5219 52.367 61.8518 52.367C62.3259 52.3613 62.7039 52.4933 62.9856 52.7515Z" fill="#5F5F5F"/>
<path d="M70.525 52.5739C70.7724 52.7116 70.9442 52.8952 71.0541 53.1248V51.2596H72.0917V55.8393H71.0541V55.1219C70.9442 55.3515 70.7724 55.5351 70.525 55.6786C70.2776 55.8163 69.9821 55.8852 69.6385 55.8852C69.2949 55.8852 68.9788 55.8163 68.704 55.6728C68.4291 55.5351 68.2092 55.3285 68.058 55.0645C67.9 54.8005 67.8244 54.4849 67.8244 54.1291C67.8244 53.7675 67.9 53.4576 68.058 53.1936C68.2161 52.9297 68.4291 52.7231 68.704 52.5853C68.9788 52.4476 69.2949 52.373 69.6385 52.373C69.9821 52.3672 70.2776 52.4361 70.525 52.5739ZM69.1781 53.3945C68.9788 53.5724 68.8826 53.8134 68.8826 54.1233C68.8826 54.4332 68.9788 54.6743 69.1781 54.8522C69.3774 55.0301 69.6385 55.1162 69.9615 55.1162C70.2776 55.1162 70.5387 55.0243 70.7449 54.8464C70.951 54.6685 71.0541 54.4275 71.0541 54.1233C71.0541 53.8192 70.951 53.5781 70.7449 53.3945C70.5387 53.2166 70.2776 53.1248 69.9615 53.1248C69.6385 53.1305 69.3774 53.2166 69.1781 53.3945Z" fill="#5F5F5F"/>
<path d="M12.2942 27.26L11.7994 27.9601L7.84126 28.1093L10.6862 29.5211L10.1914 30.2212L6.00651 28.1438L6.50127 27.4436L10.4869 27.3059L7.61449 25.8826L8.10926 25.1825L12.2942 27.26Z" fill="#5F5F5F"/>
<path d="M16.1149 21.59L14.8849 22.8582L15.4278 23.5986L14.7818 24.2643L12.1706 20.5684L12.8715 19.8511L17.7367 21.2284L17.0907 21.8941L16.1149 21.59ZM15.3728 21.3719L13.325 20.7578L14.4657 22.3016L15.3728 21.3719Z" fill="#5F5F5F"/>
<path d="M19.8256 13.7334L20.3547 14.204L19.372 14.973L22.1757 17.4637L21.4679 18.0203L18.6642 15.5239L17.6885 16.2872L17.1593 15.8166L19.8256 13.7334Z" fill="#5F5F5F"/>
<path d="M24.4716 10.6059L26.1277 12.5456C26.3475 12.8038 26.5812 12.9588 26.8286 13.0047C27.076 13.0506 27.3302 12.999 27.5845 12.844C27.8387 12.6948 27.9762 12.5112 28.0036 12.2988C28.0311 12.0865 27.928 11.8512 27.7082 11.5929L26.0521 9.6532L26.8354 9.18262L28.4915 11.1224C28.7527 11.4265 28.9038 11.7307 28.9519 12.0234C28.9932 12.316 28.9382 12.5858 28.787 12.8325C28.6358 13.0793 28.4022 13.2974 28.0998 13.4753C27.6257 13.7565 27.1447 13.8655 26.6568 13.7967C26.1689 13.7278 25.7291 13.4638 25.3374 13.0047L23.6813 11.065L24.4716 10.6059Z" fill="#5F5F5F"/>
<path d="M35.9328 9.48095L34.0431 8.51683L33.6651 8.68326L34.5447 10.0893L33.6858 10.468L31.425 6.86403L33.0673 6.14667C33.5689 5.92859 34.0156 5.85973 34.4073 5.95155C34.799 6.04337 35.0945 6.24997 35.3075 6.58857C35.4793 6.85829 35.5274 7.12802 35.4656 7.39201C35.3968 7.656 35.2113 7.89129 34.9089 8.10363L36.888 9.0735L35.9328 9.48095ZM33.3559 8.18397L34.0637 7.87407C34.5585 7.66173 34.689 7.36905 34.4623 7.0075C34.3523 6.83534 34.208 6.7263 34.0294 6.68039C33.8507 6.63447 33.6308 6.66891 33.3765 6.77795L32.6687 7.08785L33.3559 8.18397Z" fill="#5F5F5F"/>
<path d="M43.4435 5.96307L41.6018 6.50827L41.6087 7.37483L40.6398 7.66178L40.7154 3.37484L41.7599 3.06494L45.0583 6.35331L44.0894 6.64026L43.4435 5.96307ZM42.9487 5.45231L41.5812 4.03481L41.595 5.85403L42.9487 5.45231Z" fill="#5F5F5F"/>
<path d="M50.0682 4.64295L51.6693 4.35601L51.8273 4.96433L49.2779 5.4177L48.2609 1.44066L49.2092 1.26849L50.0682 4.64295Z" fill="#5F5F5F"/>
<path d="M64.8769 4.12105L64.1485 3.38647C64.1073 3.46108 64.0798 3.52421 64.0454 3.56438C63.9561 3.74228 63.8118 3.88002 63.6056 3.98332C63.3995 4.08662 63.1521 4.13827 62.8772 4.13253C62.568 4.12679 62.3 4.0694 62.0732 3.96036C61.8465 3.85132 61.6678 3.70211 61.5441 3.51273C61.4204 3.32335 61.3654 3.11101 61.3723 2.87572C61.3792 2.64042 61.4342 2.43382 61.5441 2.26166C61.6541 2.08375 61.8052 1.95176 61.9908 1.8542C62.1763 1.75664 62.3893 1.71072 62.6161 1.70498L62.5336 1.60168C62.4443 1.49265 62.3756 1.38361 62.3275 1.28031C62.2794 1.17701 62.2588 1.05649 62.2588 0.924497C62.2588 0.75807 62.3137 0.603123 62.4237 0.46539C62.5268 0.321918 62.6848 0.207137 62.891 0.121054C63.0971 0.0349707 63.3445 -0.00520085 63.6262 0.000538025C64.0385 0.0062769 64.3478 0.0866245 64.5677 0.241574C64.7876 0.396524 64.925 0.59738 64.9868 0.838413C65.0281 0.953191 65.0487 1.07945 65.0487 1.2057L65.0418 1.31474L64.1416 1.30326C64.1416 1.2057 64.1416 1.14257 64.1348 1.10814C64.1348 0.970408 64.0867 0.861371 64.0042 0.786765C63.9149 0.71216 63.798 0.67199 63.64 0.67199C63.4957 0.67199 63.3857 0.700683 63.3033 0.769549C63.2208 0.838416 63.1796 0.918757 63.1727 1.02206C63.1727 1.10814 63.1933 1.18849 63.2277 1.25161C63.2689 1.31474 63.3376 1.40082 63.427 1.49838L65.8527 4.13253L64.8769 4.12105ZM63.3857 3.31187C63.5163 3.21431 63.5781 3.08232 63.585 2.92163C63.585 2.7552 63.5163 2.61172 63.3789 2.49695C63.2346 2.38217 63.0628 2.32478 62.8703 2.32478C62.6848 2.32478 62.5268 2.37069 62.4031 2.46252C62.2794 2.55434 62.2175 2.69207 62.2107 2.86998C62.2107 3.04788 62.2725 3.19136 62.4031 3.29465C62.5336 3.40369 62.7054 3.45534 62.8978 3.46108C63.0971 3.46108 63.262 3.40943 63.3857 3.31187Z" fill="#5F5F5F"/>
<path d="M80.5715 1.9976L79.4102 5.94594L78.4619 5.75082L78.9635 4.03489L76.9432 3.6217L76.4416 5.33762L75.5002 5.1425L76.6615 1.19415L77.6029 1.38928L77.1356 2.99042L79.1559 3.40362L79.6232 1.80247L80.5715 1.9976Z" fill="#5F5F5F"/>
<path d="M86.3033 4.28748L85.8428 5.26882L87.444 5.7968L87.1691 6.37643L85.568 5.84845L85.0869 6.86423L86.8805 7.45534L86.5919 8.05792L83.8913 7.16839L85.6779 3.38647L88.3785 4.276L88.0968 4.87858L86.3033 4.28748Z" fill="#5F5F5F"/>
<path d="M93.7868 10.1639L92.0826 9.3662L91.3061 9.94008L90.4128 9.52115L94.3297 6.74353L95.2986 7.1969L94.5083 11.4322L93.615 11.0132L93.7868 10.1639ZM93.9173 9.52115L94.2953 7.73062L92.6667 8.93578L93.9173 9.52115Z" fill="#5F5F5F"/>
<path d="M99.3391 13.458L100.652 14.273L100.205 14.7722L98.1159 13.4695L101.023 10.2098L101.806 10.6976L99.3391 13.458Z" fill="#5F5F5F"/>
<path d="M109.365 16.138L108.829 16.6028L107.853 15.8281L105.022 18.3015L104.321 17.7391L107.152 15.2657L106.183 14.4966L106.719 14.0318L109.365 16.138Z" fill="#5F5F5F"/>
<path d="M115.282 21.8598L111.475 24.3964L110.863 23.7594L112.519 22.6575L111.22 21.2974L109.564 22.3992L108.96 21.7622L112.767 19.2256L113.371 19.8627L111.832 20.8899L113.131 22.25L114.67 21.2228L115.282 21.8598Z" fill="#5F5F5F"/>
<path d="M120.325 28.4136L116.758 28.5685L115.288 29.2916L114.793 28.5857L116.264 27.8626L118.153 25.3318L118.717 26.1352L117.404 27.7823L119.768 27.6216L120.325 28.4136Z" fill="#5F5F5F"/>
<path d="M15.2759 82.7201C15.3172 83.0759 15.2484 83.4145 15.0629 83.7473C14.8774 84.0744 14.5887 84.3556 14.2039 84.5909C13.8122 84.8205 13.3999 84.9582 12.967 84.9984C12.5341 85.0386 12.1218 84.9812 11.737 84.832C11.3522 84.6827 11.0223 84.4532 10.7612 84.1433C10.5001 83.8334 10.342 83.5005 10.3008 83.1505C10.2596 82.7947 10.3283 82.4561 10.5138 82.1232C10.6993 81.7961 10.988 81.5149 11.3796 81.2796C11.7713 81.05 12.1836 80.9123 12.6097 80.8721C13.0426 80.832 13.4549 80.8894 13.8397 81.0386C14.2245 81.1878 14.5544 81.4173 14.8155 81.7272C15.0766 82.0314 15.2347 82.3642 15.2759 82.7201ZM13.4893 81.7387C13.2556 81.6526 13.0082 81.6297 12.7403 81.6641C12.4723 81.6985 12.2111 81.7904 11.9431 81.951C11.682 82.106 11.4896 82.2839 11.359 82.4848C11.2353 82.6856 11.1804 82.8865 11.201 83.0988C11.2216 83.3112 11.3109 83.512 11.4827 83.7014C11.6476 83.8965 11.8469 84.0343 12.0737 84.1203C12.3073 84.2064 12.5547 84.2294 12.8227 84.1949C13.0907 84.1605 13.3518 84.063 13.6198 83.908C13.881 83.7531 14.0734 83.5751 14.2039 83.3743C14.3276 83.1734 14.3826 82.9726 14.362 82.7602C14.3414 82.5479 14.252 82.347 14.0802 82.1576C13.9153 81.9625 13.7229 81.8248 13.4893 81.7387Z" fill="#5F5F5F"/>
<path d="M16.8974 90.2611L17.5021 88.482L17.2066 88.2238L15.8254 89.3084L15.1589 88.7173L18.7047 85.934L19.976 87.0645C20.3608 87.4089 20.56 87.7474 20.56 88.086C20.56 88.4246 20.402 88.7231 20.0722 88.9813C19.8042 89.1936 19.5087 89.3027 19.1857 89.3256C18.8627 89.3429 18.5398 89.2568 18.2168 89.0731L17.6327 90.921L16.8974 90.2611ZM17.6945 87.8393L18.2443 88.3271C18.6222 88.6657 18.9933 88.6943 19.3506 88.4131C19.5224 88.2811 19.6049 88.1319 19.6117 87.977C19.6117 87.822 19.5155 87.6556 19.3231 87.4834L18.7734 86.9956L17.6945 87.8393Z" fill="#5F5F5F"/>
<path d="M26.6142 92.5395C26.731 92.9355 26.676 93.32 26.4492 93.7045L25.659 93.165C25.7208 92.9699 25.714 92.7748 25.6384 92.5797C25.5559 92.3845 25.4116 92.2124 25.1848 92.0632C24.9649 91.9139 24.7313 91.8279 24.4839 91.7934C24.2365 91.7647 23.9892 91.7934 23.7486 91.8853C23.5081 91.9771 23.2814 92.1263 23.0752 92.3386C22.7522 92.6715 22.6079 92.9986 22.6423 93.3257C22.6767 93.6528 22.8759 93.9455 23.2401 94.1923C23.5081 94.3759 23.8105 94.4677 24.1335 94.4677C24.4564 94.4677 24.7657 94.3644 25.0543 94.1636L23.7761 93.297L24.2159 92.8436L26.1263 94.1406L25.5353 94.7489C25.281 94.9211 24.9856 95.0416 24.6626 95.1105C24.3396 95.1794 23.996 95.1851 23.6387 95.1162C23.2814 95.0531 22.9447 94.9096 22.6217 94.6858C22.2506 94.4333 21.9895 94.1464 21.8383 93.8135C21.6871 93.4864 21.6528 93.1478 21.7352 92.7977C21.8177 92.4477 22.0101 92.1205 22.3125 91.8049C22.6148 91.495 22.9653 91.2654 23.357 91.1277C23.7486 90.99 24.1541 90.9498 24.5664 91.0015C24.9787 91.0531 25.3773 91.2081 25.7483 91.4606C26.2087 91.7934 26.4973 92.1435 26.6142 92.5395Z" fill="#5F5F5F"/>
<path d="M31.2588 98.6629L29.589 97.8193L28.785 98.3702L27.9054 97.9283L31.9323 95.2655L32.8806 95.7476L31.9185 99.9599L31.039 99.518L31.2588 98.6629ZM31.4169 98.0202L31.8704 96.2411L30.1937 97.4004L31.4169 98.0202Z" fill="#5F5F5F"/>
<path d="M39.6429 102.984L38.7496 102.663L38.0556 99.4031L36.7499 101.945L35.8566 101.624L37.7807 97.888L38.674 98.2094L39.3543 101.492L40.6737 98.9325L41.567 99.2539L39.6429 102.984Z" fill="#5F5F5F"/>
<path d="M46.4117 100.597L45.0099 104.488L44.0822 104.252L45.484 100.361L46.4117 100.597Z" fill="#5F5F5F"/>
<path d="M53.9633 102.364C54.3 102.68 54.4856 103.07 54.5199 103.529L53.5167 103.38C53.4617 103.151 53.3311 102.955 53.1387 102.795C52.9463 102.64 52.6989 102.536 52.3897 102.491C52.1354 102.45 51.8949 102.473 51.6682 102.548C51.4414 102.623 51.249 102.749 51.0978 102.932C50.9398 103.11 50.8367 103.334 50.7817 103.598C50.7267 103.856 50.7336 104.097 50.8023 104.31C50.871 104.522 51.0016 104.7 51.1803 104.832C51.3589 104.964 51.5788 105.056 51.8331 105.096C52.1423 105.142 52.4172 105.119 52.6646 105.027C52.9119 104.935 53.1112 104.792 53.2624 104.591L54.2657 104.74C54.0458 105.165 53.7091 105.475 53.2624 105.67C52.8157 105.871 52.2866 105.922 51.6956 105.831C51.2352 105.762 50.8504 105.618 50.5412 105.389C50.2251 105.165 50.0052 104.884 49.8815 104.545C49.7578 104.206 49.7372 103.839 49.8197 103.449C49.9021 103.053 50.0739 102.714 50.335 102.433C50.5962 102.152 50.9191 101.951 51.304 101.831C51.6888 101.71 52.1148 101.687 52.5752 101.756C53.1593 101.848 53.6266 102.049 53.9633 102.364Z" fill="#5F5F5F"/>
<path d="M64.6215 105.119L64.6834 106.628L63.7144 106.657L63.5426 102.594L65.3156 102.542C65.8928 102.525 66.3257 102.628 66.6281 102.852C66.9304 103.076 67.0885 103.38 67.1022 103.776C67.1159 104.166 66.9785 104.476 66.6899 104.717C66.4013 104.958 65.9752 105.084 65.4186 105.102L64.6215 105.119ZM66.1196 103.799C66.1127 103.598 66.0371 103.443 65.8997 103.34C65.7622 103.237 65.5423 103.191 65.24 103.196L64.5459 103.219L64.6009 104.47L65.2949 104.447C65.8653 104.43 66.1402 104.218 66.1196 103.799Z" fill="#5F5F5F"/>
<path d="M74.1803 105.842L72.7579 104.43L72.3387 104.488L72.6411 106.054L71.679 106.181L70.9025 102.163L72.7373 101.917C73.2939 101.842 73.7405 101.899 74.0773 102.089C74.414 102.278 74.6201 102.559 74.6888 102.927C74.7507 103.231 74.6957 103.495 74.5308 103.73C74.3659 103.96 74.1047 104.138 73.7337 104.258L75.2386 105.699L74.1803 105.842ZM72.2288 103.937L73.019 103.828C73.5687 103.753 73.8024 103.512 73.7268 103.11C73.6924 102.915 73.5962 102.777 73.4382 102.686C73.287 102.594 73.0671 102.571 72.7854 102.605L71.9951 102.709L72.2288 103.937Z" fill="#5F5F5F"/>
<path d="M81.6496 100.327C82.0619 100.407 82.433 100.574 82.7491 100.821C83.0652 101.073 83.292 101.389 83.4294 101.773C83.5668 102.158 83.5943 102.525 83.4981 102.881C83.4019 103.237 83.2095 103.547 82.9209 103.805C82.6254 104.063 82.2681 104.247 81.8283 104.361C81.3954 104.471 80.9693 104.488 80.5502 104.407C80.131 104.327 79.7668 104.161 79.4507 103.908C79.1346 103.656 78.9078 103.34 78.7704 102.955C78.6329 102.571 78.6054 102.204 78.7017 101.848C78.7979 101.492 78.9903 101.188 79.2789 100.924C79.5744 100.666 79.9386 100.482 80.3715 100.367C80.8113 100.264 81.2304 100.247 81.6496 100.327ZM79.9729 101.423C79.8011 101.578 79.6981 101.768 79.65 101.991C79.6019 102.215 79.6293 102.45 79.7187 102.709C79.8149 102.967 79.9523 103.174 80.1378 103.34C80.3234 103.501 80.5433 103.61 80.7838 103.661C81.0312 103.713 81.2854 103.702 81.5603 103.633C81.8352 103.564 82.0551 103.449 82.22 103.294C82.3918 103.139 82.4949 102.95 82.543 102.726C82.5911 102.502 82.5636 102.267 82.4742 102.009C82.378 101.75 82.2406 101.544 82.0551 101.377C81.8695 101.217 81.6496 101.108 81.4091 101.056C81.1617 101.004 80.9075 101.016 80.6326 101.085C80.3646 101.159 80.1379 101.268 79.9729 101.423Z" fill="#5F5F5F"/>
<path d="M91.5657 100.017C91.5382 100.367 91.3939 100.689 91.1328 100.976C90.8717 101.268 90.5006 101.503 90.0264 101.693L88.4597 102.307L86.3913 98.6283L87.958 98.0143C88.4391 97.8249 88.8926 97.7388 89.3255 97.756C89.7584 97.7732 90.1432 97.8823 90.48 98.0831C90.8167 98.2897 91.0916 98.5767 91.2977 98.9439C91.5039 99.3055 91.5932 99.667 91.5657 100.017ZM90.5074 100.321C90.6518 100.011 90.6174 99.6671 90.4044 99.294C90.1914 98.9153 89.8959 98.6742 89.5179 98.5652C89.14 98.4561 88.7139 98.4963 88.2398 98.6857L87.6282 98.9267L88.9682 101.308L89.5798 101.067C90.0539 100.884 90.3631 100.631 90.5074 100.321Z" fill="#5F5F5F"/>
<path d="M94.4795 95.07L96.0325 97.0729C96.2386 97.3426 96.4654 97.5033 96.7128 97.5607C96.9602 97.6181 97.2144 97.5722 97.4755 97.4287C97.7367 97.2852 97.8878 97.113 97.9222 96.9007C97.9566 96.6884 97.8741 96.4531 97.668 96.1834L96.1149 94.1805L96.9258 93.7386L98.4788 95.7415C98.7262 96.0571 98.8636 96.3613 98.8911 96.6539C98.9186 96.9466 98.8499 97.2164 98.685 97.4574C98.52 97.6984 98.2795 97.905 97.9634 98.0772C97.4755 98.3412 96.9876 98.433 96.5066 98.3469C96.0256 98.2608 95.5996 97.9796 95.2285 97.509L93.6755 95.5062L94.4795 95.07Z" fill="#5F5F5F"/>
<path d="M103.262 89.9569C103.771 89.934 104.245 90.0602 104.699 90.33L103.929 90.8866C103.675 90.7776 103.42 90.7374 103.152 90.7661C102.884 90.7948 102.63 90.8924 102.396 91.0588C102.204 91.1965 102.067 91.3687 101.998 91.5638C101.929 91.759 101.922 91.9598 101.991 92.1779C102.06 92.3902 102.204 92.6026 102.41 92.8034C102.616 93.0043 102.843 93.1478 103.084 93.2338C103.324 93.3199 103.572 93.3486 103.812 93.3199C104.053 93.2855 104.272 93.1994 104.465 93.0617C104.699 92.8895 104.857 92.6944 104.925 92.4763C104.994 92.2582 104.987 92.0402 104.891 91.8163L105.661 91.2597C105.915 91.6729 105.99 92.0803 105.894 92.4993C105.798 92.9182 105.516 93.2912 105.056 93.6183C104.705 93.8709 104.327 94.0315 103.922 94.0947C103.517 94.1578 103.118 94.1234 102.719 93.9914C102.328 93.8594 101.97 93.6413 101.661 93.3429C101.345 93.0387 101.139 92.7116 101.036 92.3673C100.94 92.0229 100.953 91.6843 101.084 91.363C101.215 91.0359 101.455 90.7489 101.812 90.4907C102.273 90.1521 102.754 89.9799 103.262 89.9569Z" fill="#5F5F5F"/>
<path d="M108.56 84.8434L109.137 85.2738L108.244 86.1117L111.302 88.39L110.656 88.9983L107.598 86.7257L106.712 87.5579L106.134 87.1275L108.56 84.8434Z" fill="#5F5F5F"/>
<path d="M116.16 82.2036C116.264 82.3872 116.298 82.5938 116.257 82.8234C116.222 83.053 116.105 83.2825 115.906 83.5235C115.707 83.7588 115.487 83.9425 115.233 84.0745C114.979 84.2065 114.717 84.2753 114.443 84.2811C114.168 84.2868 113.907 84.2294 113.652 84.1032L114.243 83.3915C114.422 83.4719 114.601 83.4949 114.786 83.4604C114.972 83.4317 115.13 83.3399 115.253 83.185C115.37 83.0472 115.411 82.9152 115.384 82.789C115.356 82.6627 115.274 82.5594 115.137 82.4791C115.013 82.4045 114.882 82.3758 114.752 82.3872C114.621 82.3987 114.491 82.4389 114.367 82.502C114.243 82.5652 114.078 82.657 113.879 82.7832C113.625 82.9439 113.398 83.0644 113.206 83.1505C113.013 83.2366 112.8 83.2825 112.573 83.2825C112.34 83.2882 112.099 83.2136 111.852 83.0702C111.508 82.8693 111.323 82.6111 111.295 82.2897C111.268 81.9683 111.398 81.6355 111.68 81.2969C111.976 80.9411 112.312 80.723 112.69 80.6312C113.068 80.5393 113.439 80.5795 113.803 80.7459L113.206 81.4633C113.048 81.4002 112.89 81.383 112.725 81.4116C112.567 81.4403 112.422 81.5264 112.305 81.6641C112.202 81.7847 112.161 81.9109 112.175 82.0314C112.189 82.152 112.271 82.2553 112.415 82.3413C112.532 82.4102 112.656 82.4389 112.78 82.4217C112.903 82.4102 113.034 82.37 113.158 82.3126C113.281 82.2495 113.439 82.1634 113.625 82.0429C113.893 81.8822 114.126 81.756 114.312 81.6699C114.504 81.5838 114.717 81.5379 114.951 81.5322C115.192 81.5322 115.439 81.601 115.693 81.7502C115.906 81.8708 116.057 82.02 116.16 82.2036Z" fill="#5F5F5F"/>
<path d="M81.3269 85.1254C80.4404 84.5917 79.3203 84.5056 78.4476 84.4941C75.3279 84.4482 72.3249 85.1139 69.4113 85.8083C71.6446 84.3851 73.5137 82.5257 74.3796 80.7237C74.4758 80.5285 74.7163 80.0121 74.3864 79.5472C74.1803 79.2603 73.8023 79.0709 73.3144 79.0192C72.0088 78.87 70.9162 79.5415 70.016 80.2129C67.2673 82.2559 64.8691 84.6146 62.5533 86.9217C62.3952 86.8872 62.2303 86.8987 62.0791 86.9676C60.3612 86.9905 58.7532 86.8413 57.3926 86.6347C57.9424 86.5199 58.4852 86.3535 59.0144 86.1182C60.2719 85.5558 61.4126 84.7007 62.6014 83.4152C63.3298 82.629 64.3262 81.4181 64.6011 80.0063C64.7179 79.4037 64.5049 78.9331 64.0307 78.7151C63.5909 78.5085 63.1237 78.6175 62.9312 78.6634C60.5261 79.2201 58.6845 80.7409 57.3514 81.9977C57.0215 82.3133 56.6917 82.629 56.3687 82.9504C55.3311 83.9661 54.3416 84.9245 53.1528 85.6993C50.2597 84.8958 47.5798 83.8227 45.2365 82.8126C44.9204 82.6749 44.5287 82.7782 44.3638 83.0422C44.1989 83.3062 44.3226 83.6333 44.6387 83.771C47.0987 84.8327 49.9162 85.9575 52.981 86.7897C53.5032 86.9331 54.0323 87.0651 54.5615 87.1856C54.6645 87.4898 54.7676 87.794 54.8707 88.0981C55.8327 90.9274 56.8291 93.8542 58.7257 96.408C58.8357 96.5572 59.1655 96.9991 59.7702 96.9991C59.7771 96.9991 59.7909 96.9991 59.7977 96.9991C60.0589 96.9934 60.5468 96.8901 60.8491 96.276C61.5157 94.9331 61.4607 93.3033 60.6979 91.6907C60.0382 90.2904 58.9319 89.0622 57.8393 87.9489C57.7774 87.8858 57.7156 87.8284 57.6537 87.7653C59.035 87.9547 60.3887 88.0522 61.7081 88.0522C61.8455 88.0522 61.9829 88.0407 62.1204 88.035C63.4329 89.4353 65.089 90.7495 67.3154 92.1498C69.0608 93.2516 71.1705 94.3937 73.5893 94.5314C73.6031 94.5314 73.6168 94.5314 73.6305 94.5314C73.8504 94.5314 74.0566 94.4396 74.1734 94.2846C74.304 94.1182 74.3108 93.9059 74.194 93.7337C72.3249 90.893 69.1502 88.7523 65.4738 87.771C66.6351 87.5931 67.7483 87.3291 68.8135 86.9848C69.9885 87.2488 72.6273 87.7595 75.376 87.7595C76.0357 87.7595 76.7091 87.7308 77.3619 87.6562C79.4715 87.4267 80.8252 86.8241 81.4987 85.814C81.6705 85.5845 81.5949 85.2803 81.3269 85.1254ZM57.3514 83.6562C57.6744 83.3406 57.9905 83.025 58.3203 82.7151C59.5366 81.5673 61.1996 80.1842 63.2748 79.7021C63.3023 79.6964 63.3229 79.6907 63.3435 79.6849C63.3435 79.7251 63.3436 79.771 63.3298 79.8341C63.158 80.7352 62.622 81.6361 61.5844 82.7495C60.5124 83.9087 59.5022 84.672 58.4165 85.1598C57.3445 85.6419 56.1901 85.8141 55.1662 85.6648C55.9496 85.0278 56.6573 84.3334 57.3514 83.6562ZM59.5091 92.0866C60.1207 93.3779 60.1963 94.6576 59.7428 95.7136C58.0454 93.3664 57.0971 90.6404 56.1901 87.9833C56.4168 88.1842 56.6367 88.4023 56.8566 88.6261C58.0386 89.8427 58.9456 90.8987 59.5091 92.0866ZM70.875 81.0164C71.5621 80.5056 72.3593 80.0006 73.1427 80.0867C73.1976 80.0924 73.2389 80.1039 73.2595 80.0981C73.2526 80.1326 73.2388 80.2014 73.177 80.3162C71.9263 82.9159 68.1744 85.7567 64.6286 86.7954C64.5324 86.8069 64.4293 86.8184 64.3331 86.8241C66.3809 84.8097 68.5042 82.7839 70.875 81.0164ZM72.3318 93.2516C70.7788 92.8786 69.3426 92.0752 68.1057 91.2889C66.6626 90.3765 65.4669 89.5099 64.4568 88.6318C67.5972 89.3377 70.4627 91.0192 72.3318 93.2516ZM77.2107 86.5945C75.6646 86.761 73.7061 86.6864 71.6721 86.4051C73.8848 85.9173 76.1319 85.5386 78.4201 85.573C78.9218 85.5788 79.4715 85.6132 79.9594 85.7452C79.4028 86.1756 78.4957 86.4511 77.2107 86.5945Z" fill="#5F5F5F"/>
<path d="M80.6876 22.3307C77.8083 21.0911 74.4412 19.7597 70.7579 18.9104C70.6548 18.6062 70.5518 18.3078 70.4487 18.0036C69.4866 15.1744 68.4902 12.2475 66.5936 9.68799C66.4837 9.53878 66.147 9.07393 65.5148 9.09689C65.2536 9.10263 64.7657 9.20593 64.4634 9.81999C63.7968 11.1629 63.8518 12.7927 64.6146 14.4053C65.2743 15.8056 66.3806 17.0338 67.4732 18.1471C67.5351 18.2102 67.6038 18.2734 67.6656 18.3365C66.1401 18.1299 64.642 18.0323 63.1921 18.0553C61.8796 16.655 60.2235 15.3408 57.9971 13.9405C56.2517 12.8386 54.142 11.6966 51.7232 11.5589C51.4895 11.5417 51.2628 11.6392 51.1322 11.8056C51.0017 11.9721 50.9948 12.1844 51.1116 12.3566C52.9807 15.2031 56.1623 17.3437 59.8456 18.325C58.6774 18.5029 57.5504 18.7612 56.4853 19.1055C55.0216 18.7784 51.304 18.0668 47.9506 18.434C45.841 18.6636 44.4872 19.2662 43.8138 20.2762C43.6558 20.5173 43.7382 20.8157 43.9993 20.9764C44.8858 21.5101 46.0059 21.5962 46.8786 21.6076C46.9886 21.6076 47.0916 21.6076 47.2016 21.6076C50.2045 21.6076 53.1044 20.9591 55.9149 20.2934C53.6816 21.7167 51.8125 23.5761 50.9467 25.3781C50.8505 25.5732 50.61 26.0897 50.9398 26.5545C51.146 26.8415 51.5239 27.0309 52.0118 27.0825C52.1355 27.094 52.2523 27.1055 52.376 27.1055C53.5167 27.1055 54.4925 26.4972 55.3171 25.8888C58.0658 23.8458 60.464 21.4814 62.7798 19.1744C62.8348 19.1858 62.8898 19.2088 62.9447 19.2088C63.0547 19.2088 63.1578 19.1801 63.254 19.1342C64.9719 19.1112 66.573 19.2604 67.9336 19.467C67.3839 19.5818 66.841 19.7482 66.3119 19.9835C65.0544 20.5459 63.9137 21.401 62.7248 22.6865C61.9964 23.4728 61 24.6837 60.7252 26.0954C60.6083 26.698 60.8214 27.1686 61.3024 27.3924C61.4948 27.4842 61.701 27.5129 61.8796 27.5129C62.1064 27.5129 62.2988 27.467 62.4087 27.4441C64.807 26.8874 66.6486 25.3666 67.9886 24.1098C68.3184 23.7941 68.6483 23.4785 68.9712 23.1571C70.0089 22.1413 70.9984 21.183 72.1872 20.4082C75.0802 21.2117 77.7602 22.2848 80.1035 23.2949C80.1997 23.335 80.3027 23.3523 80.399 23.3523C80.6326 23.3523 80.8594 23.2432 80.9762 23.0596C81.1342 22.7898 81.0037 22.4685 80.6876 22.3307ZM52.9945 12.8559C54.5475 13.2289 55.9837 14.0323 57.2206 14.8185C58.6636 15.731 59.8593 16.5976 60.8695 17.4756C57.7291 16.764 54.8636 15.0825 52.9945 12.8559ZM46.9061 20.5345C46.4045 20.5287 45.8547 20.4943 45.3668 20.3623C45.9303 19.9319 46.8305 19.6507 48.1155 19.513C49.6617 19.3465 51.6201 19.4211 53.6541 19.7023C51.4346 20.1901 49.1944 20.5804 46.9061 20.5345ZM54.4513 25.0854C53.7641 25.5962 52.967 26.1012 52.1836 26.0151C52.1286 26.0094 52.0874 25.9979 52.0668 26.0036C52.0736 25.9692 52.0874 25.9003 52.1492 25.7855C53.3999 23.1858 57.1519 20.3451 60.6977 19.3064C60.7939 19.2949 60.897 19.2834 60.9932 19.2777C58.9454 21.2977 56.822 23.3236 54.4513 25.0854ZM65.824 14.0151C65.2124 12.7239 65.1368 11.4441 65.5904 10.3881C67.2945 12.7353 68.2428 15.4613 69.143 18.1184C68.9163 17.9175 68.6964 17.6995 68.4765 17.4756C67.2877 16.259 66.3875 15.2088 65.824 14.0151ZM67.9817 22.4513C67.6587 22.7669 67.3427 23.0825 67.0128 23.3867C65.7965 24.5345 64.1267 25.9175 62.0583 26.3996C62.0308 26.4053 62.0102 26.4111 61.9896 26.4168C61.9896 26.3766 61.9896 26.3307 62.0033 26.2676C62.1751 25.3666 62.7111 24.4656 63.7487 23.3523C64.8207 22.193 65.8309 21.4297 66.9166 20.9419C67.7481 20.5746 68.6139 20.3853 69.4385 20.3853C69.6859 20.3853 69.9264 20.4025 70.1601 20.4369C69.3835 21.0739 68.6689 21.7683 67.9817 22.4513Z" fill="#5F5F5F"/>
</svg>
