<svg width="121" height="113" viewBox="0 0 121 113" fill="none" xmlns="http://www.w3.org/2000/svg">
<path d="M3.75806 38.5751L5.13943 38.9573L4.93195 39.6999L1.20282 38.668L1.57956 37.3084C1.69967 36.8717 1.89624 36.5659 2.16924 36.4021C2.44223 36.2383 2.75891 36.2055 3.12472 36.3038C3.47962 36.4021 3.73077 36.5986 3.87819 36.8826C4.02561 37.1719 4.04197 37.5268 3.92185 37.9527L3.75806 38.5751ZM2.91724 37.0627C2.7316 37.0081 2.57324 37.0245 2.44766 37.0955C2.32209 37.1719 2.22383 37.3248 2.16377 37.5541L2.01634 38.0892L3.16291 38.4059L3.31034 37.8708C3.425 37.4395 3.29944 37.1665 2.91724 37.0627Z" fill="#5F5F5F"/>
<path d="M3.6048 31.4445L5.68503 32.3509C5.96348 32.471 6.19825 32.4983 6.38934 32.4383C6.58044 32.3782 6.72785 32.2308 6.82613 32.0015C6.92441 31.7721 6.92986 31.5701 6.84796 31.3845C6.7606 31.1989 6.58042 31.0514 6.30197 30.9259L4.22174 30.0195L4.52749 29.3152L6.60775 30.2215C6.93535 30.3635 7.18647 30.5437 7.36119 30.7675C7.53591 30.9914 7.62874 31.2316 7.64512 31.4937C7.6615 31.7558 7.61238 32.0288 7.49226 32.3018C7.30662 32.7276 7.03362 33.0115 6.6678 33.1535C6.30199 33.2955 5.87612 33.2627 5.37927 33.0498L3.29901 32.1434L3.6048 31.4445Z" fill="#5F5F5F"/>
<path d="M10.8723 25.8481L9.11415 25.8263L8.93396 26.1156L10.2171 26.9073L9.81304 27.5625L6.52069 25.5369L7.29599 24.2811C7.53077 23.8989 7.80376 23.6641 8.11498 23.5768C8.42619 23.4894 8.73195 23.544 9.0377 23.7297C9.28886 23.8825 9.45268 24.0791 9.53458 24.3248C9.61647 24.565 9.60556 24.838 9.50182 25.1329L11.3254 25.1219L10.8723 25.8481ZM8.48625 25.8372L8.81933 25.2967C9.04864 24.9199 8.99949 24.6305 8.66643 24.4231C8.5081 24.3248 8.35521 24.2975 8.21325 24.3302C8.06583 24.3685 7.93481 24.4831 7.81469 24.6742L7.48164 25.2148L8.48625 25.8372Z" fill="#5F5F5F"/>
<path d="M11.3801 19.5744L12.1554 20.2078L13.0235 19.1485L13.4821 19.5253L12.614 20.5845L13.4221 21.2451L14.3939 20.0549L14.8744 20.448L13.4166 22.2334L10.4191 19.7873L11.8769 18.002L12.3519 18.3896L11.3801 19.5744Z" fill="#5F5F5F"/>
<path d="M23.0863 12.9135L22.4748 13.3885L19.4937 12.373L21.1044 14.4532L20.4928 14.9282L18.1232 11.8707L18.7347 11.3957L21.7268 12.4276L20.0997 10.331L20.7112 9.85596L23.0863 12.9135Z" fill="#5F5F5F"/>
<path d="M27.8854 9.02595L26.5314 9.78488L26.6733 10.5984L25.958 10.997L25.3356 6.9621L26.1055 6.53076L29.2122 9.17882L28.4969 9.5774L27.8854 9.02595ZM27.4159 8.61645L26.1219 7.46987L26.4222 9.17336L27.4159 8.61645Z" fill="#5F5F5F"/>
<path d="M33.4217 3.18402L33.6455 3.75731L32.6518 4.14497L33.8312 7.18068L33.1105 7.45914L31.9311 4.42342L30.9374 4.80562L30.7136 4.23232L33.4217 3.18402Z" fill="#5F5F5F"/>
<path d="M37.9644 1.81901L38.4885 4.02481C38.5595 4.31965 38.6742 4.52712 38.838 4.64178C39.0018 4.75644 39.2093 4.7892 39.455 4.72914C39.6952 4.67454 39.8644 4.55442 39.9573 4.37425C40.0501 4.19407 40.0665 3.95929 39.9955 3.66446L39.4768 1.45865L40.2248 1.28394L40.7489 3.48974C40.8308 3.83917 40.8363 4.15039 40.7653 4.41793C40.6944 4.69092 40.5524 4.90932 40.3504 5.07858C40.1484 5.24783 39.9027 5.37341 39.6133 5.43893C39.1601 5.54267 38.767 5.49353 38.4339 5.29151C38.1009 5.08404 37.8716 4.71822 37.746 4.19953L37.2273 1.99372L37.9644 1.81901Z" fill="#5F5F5F"/>
<path d="M46.8042 4.28693L45.7668 2.86735L45.4283 2.90011L45.5648 4.40159L44.7949 4.47257L44.4455 0.617866L45.9142 0.486825C46.3619 0.448605 46.7114 0.525044 46.968 0.721601C47.2246 0.918158 47.3665 1.19662 47.3993 1.55151C47.4266 1.84089 47.3665 2.09204 47.2246 2.30498C47.0826 2.51791 46.8588 2.67079 46.5585 2.75815L47.6614 4.21049L46.8042 4.28693ZM45.3791 2.3705L46.0125 2.3159C46.4547 2.27768 46.6568 2.05928 46.6185 1.67163C46.6022 1.48599 46.5366 1.34403 46.4165 1.25121C46.3019 1.1584 46.1271 1.12018 45.9033 1.14202L45.2699 1.20208L45.3791 2.3705Z" fill="#5F5F5F"/>
<path d="M52.1164 0.934464L52.0728 1.93909L53.4432 1.99369L53.4214 2.58336L52.0509 2.52876L52.0072 3.5716L53.5415 3.63713L53.5142 4.25409L51.2101 4.16128L51.3684 0.295654L53.6725 0.388472L53.6452 0.999984L52.1164 0.934464Z" fill="#5F5F5F"/>
<path d="M96.9586 34.9716C96.7457 34.9716 96.5436 34.8405 96.4727 34.6221C91.3567 19.7166 79.2739 8.17976 64.1554 3.76815C63.8824 3.68625 63.7241 3.40233 63.806 3.12934C63.8879 2.85634 64.1718 2.70346 64.4448 2.7799C79.8855 7.28433 92.2194 19.0668 97.4445 34.2891C97.5374 34.5566 97.3954 34.8515 97.1279 34.9443C97.0733 34.9607 97.0132 34.9716 96.9586 34.9716Z" fill="#5F5F5F"/>
<path d="M24.2658 36.3969C24.1676 36.5607 24.0201 36.6972 23.829 36.7955C23.6379 36.8938 23.3977 36.9484 23.1247 36.9484C22.8517 36.9484 22.606 36.8992 22.3931 36.8064C22.1747 36.7136 22.0054 36.5771 21.8744 36.4024C21.7433 36.2277 21.6724 36.0202 21.6505 35.7909H22.475C22.4914 35.9492 22.5569 36.0802 22.6661 36.184C22.7753 36.2877 22.9172 36.3423 23.0974 36.3423C23.2557 36.3423 23.3813 36.2986 23.4687 36.2113C23.556 36.1239 23.5997 36.0147 23.5997 35.8782C23.5997 35.7581 23.567 35.6598 23.496 35.5779C23.425 35.5015 23.3376 35.436 23.2339 35.3868C23.1302 35.3377 22.9827 35.2831 22.7971 35.223C22.5569 35.1411 22.3603 35.0647 22.2074 34.9828C22.0546 34.9064 21.9235 34.7917 21.8143 34.6388C21.7051 34.4914 21.6505 34.2948 21.6505 34.0546C21.6505 33.7216 21.7706 33.4595 22.0109 33.2684C22.2511 33.0773 22.5678 32.979 22.9609 32.979C23.3704 32.979 23.698 33.0773 23.9382 33.2738C24.1839 33.4704 24.3204 33.7325 24.3532 34.0655H23.5178C23.496 33.929 23.4359 33.8144 23.3431 33.7216C23.2503 33.6342 23.1192 33.5851 22.9554 33.5851C22.8135 33.5851 22.6989 33.6233 22.6115 33.6997C22.5241 33.7762 22.4804 33.8853 22.4804 34.0273C22.4804 34.142 22.5132 34.2348 22.5842 34.3112C22.6497 34.3877 22.7371 34.4477 22.8408 34.4969C22.9445 34.546 23.0865 34.5951 23.2667 34.6552C23.5178 34.7426 23.7144 34.8245 23.8727 34.9009C24.0256 34.9773 24.1621 35.092 24.2713 35.2449C24.3805 35.3977 24.4351 35.5998 24.4351 35.8455C24.4187 36.0475 24.3641 36.2277 24.2658 36.3969Z" fill="#5F5F5F"/>
<path d="M31.6695 33.0391V33.6506H30.5993V36.9047H29.8295V33.6506H28.7648V33.0391H31.6695Z" fill="#5F5F5F"/>
<path d="M39.2693 33.0391L37.959 35.5561V36.9101H37.1837V35.5561L35.8678 33.0391H36.7578L37.5823 34.7316L38.4067 33.0391H39.2693Z" fill="#5F5F5F"/>
<path d="M44.5165 36.315H45.816V36.9047H43.7466V33.0336H44.5219V36.315H44.5165Z" fill="#5F5F5F"/>
<path d="M51.1016 33.6507V34.6553H52.472V35.245H51.1016V36.2878H52.6358V36.9048H50.3317V33.0337H52.6358V33.6452H51.1016V33.6507Z" fill="#5F5F5F"/>
<path d="M31.9096 55.1027C31.5875 54.9116 31.2599 54.6168 30.9268 54.2182L24.5059 47.4042C24.4295 47.295 24.3694 47.2404 24.3258 47.2404C24.2493 47.2404 24.2111 47.3442 24.2111 47.5516C24.2111 48.3543 24.2275 49.2606 24.2602 50.2761C24.2712 50.6747 24.2821 51.1224 24.293 51.6302C24.3039 52.138 24.3094 52.6621 24.3094 53.2136C24.3094 53.5794 24.4241 53.8579 24.6479 54.0544C24.8718 54.251 25.2158 54.4093 25.6798 54.5185C25.9747 54.5949 26.1276 54.7096 26.1276 54.8679C26.1276 54.9444 26.0839 55.0044 26.002 55.0481C25.9201 55.0918 25.8272 55.1136 25.729 55.1136C25.3741 55.1136 25.0137 55.1027 24.6424 55.0809L23.8344 55.0645C23.5177 55.0645 23.201 55.07 22.8953 55.0918C22.5895 55.1082 22.3875 55.1246 22.3002 55.1355C22.2237 55.1355 22.1418 55.1082 22.0545 55.059C21.9671 55.0099 21.9234 54.9498 21.9234 54.8843C21.9234 54.797 21.9562 54.726 22.0217 54.6768C22.0872 54.6277 22.1855 54.5731 22.3165 54.5185C22.8134 54.3219 23.0864 53.8742 23.141 53.1808C23.3703 50.7402 23.4849 48.5781 23.4849 46.6944C23.4849 46.1757 23.3594 45.7881 23.1137 45.5206C22.868 45.2585 22.5022 45.0292 22.0162 44.8435C21.7214 44.7671 21.5685 44.647 21.5685 44.4777C21.5685 44.303 21.7105 44.2156 21.9998 44.2156L23.2556 44.2484C24.5769 44.2812 25.2758 44.2975 25.3522 44.2975C25.4942 44.2975 25.6034 44.3521 25.6798 44.4613L31.7676 51.2098C31.8768 51.3408 31.9533 51.4063 31.997 51.4063C32.0843 51.4063 32.128 51.3299 32.128 51.177V49.4462C32.128 47.7318 32.1116 46.5634 32.0789 45.9464C32.0679 45.6407 31.9642 45.4114 31.7676 45.2694C31.5711 45.1274 31.2435 44.9964 30.7958 44.8708C30.5446 44.8053 30.4136 44.6906 30.4136 44.5268C30.4136 44.4613 30.4464 44.4013 30.5228 44.3521C30.5938 44.303 30.6757 44.2757 30.763 44.2757L31.8331 44.2921C31.9751 44.303 32.2044 44.3085 32.5102 44.3085L33.2691 44.2921C33.6185 44.2702 33.9516 44.2593 34.2574 44.2593C34.3775 44.2593 34.4758 44.2812 34.5467 44.3248C34.6177 44.3685 34.6559 44.4286 34.6559 44.505C34.6559 44.6797 34.5194 44.7944 34.241 44.849C33.8424 44.9254 33.5639 45.0401 33.4001 45.1875C33.2363 45.3349 33.1545 45.5697 33.1545 45.8864C33.1545 46.547 33.1162 47.8028 33.0398 49.6483C32.9852 50.7239 32.9579 51.5974 32.9579 52.2581C32.9579 52.5092 32.9743 52.8205 33.018 53.1917C33.0562 53.563 33.0835 53.7978 33.0944 53.907C33.1381 54.3274 33.1599 54.5458 33.1599 54.5676C33.1599 55.1082 33.0016 55.3757 32.6795 55.3757C32.4938 55.3921 32.2372 55.2938 31.9096 55.1027Z" fill="#5F5F5F"/>
<path d="M37.7956 54.8785C37.7956 54.7802 37.8283 54.7038 37.8884 54.6547C37.9484 54.6055 38.0412 54.5564 38.1614 54.5127C38.489 54.4253 38.7729 54.2888 39.0131 54.0977C39.2479 53.9121 39.4226 53.6937 39.5318 53.4535C40.5747 51.0238 41.5192 48.6324 42.3546 46.2901C42.4856 45.9242 42.5894 45.6021 42.6658 45.3073C42.7422 45.0179 42.7914 44.8705 42.8132 44.8705C43.2882 44.7613 43.6977 44.6466 44.0526 44.5265C44.2382 44.461 44.4184 44.3736 44.5822 44.2644C44.746 44.1552 44.8716 44.0515 44.9644 43.9532C45.0518 43.9095 45.1064 43.8877 45.1282 43.8877C45.1828 43.8877 45.2265 43.9259 45.2593 44.0024C45.3357 44.1662 45.3958 44.319 45.4394 44.4665C46.1219 46.6886 46.8754 49.0528 47.6998 51.5643L48.3113 53.4644C48.4642 53.9722 48.9065 54.3216 49.6327 54.5182C49.7528 54.5618 49.8456 54.6055 49.9057 54.6492C49.9657 54.6929 49.9985 54.7639 49.9985 54.8621C49.9985 54.9386 49.9657 54.9986 49.9057 55.0423C49.8456 55.086 49.7691 55.1078 49.6818 55.1078C49.4634 55.1078 49.0211 55.0969 48.3605 55.0751C47.678 55.0532 47.203 55.0423 46.9409 55.0423C46.7225 55.0423 46.3021 55.0532 45.6851 55.0751C45.1773 55.1078 44.7187 55.1242 44.2983 55.1242C44.2 55.1242 44.1181 55.1024 44.0526 55.0587C43.9871 55.015 43.9543 54.955 43.9543 54.8785C43.9543 54.6929 44.0744 54.5728 44.3201 54.5127C44.7078 54.4363 44.9862 54.338 45.1719 54.2233C45.3521 54.1087 45.4449 53.9449 45.4449 53.7374C45.4449 53.6282 45.434 53.5408 45.4121 53.4753L44.8989 51.5589C44.877 51.4606 44.8443 51.3896 44.8061 51.3459C44.7679 51.3023 44.7078 51.2804 44.6314 51.2804H41.7594C41.6721 51.2804 41.612 51.3023 41.5793 51.3459C41.5465 51.3896 41.5138 51.4606 41.481 51.5589L41.2517 52.2687C41.2189 52.3888 41.1698 52.5471 41.1043 52.7491C41.0388 52.9457 40.9841 53.1259 40.9404 53.2788C40.8968 53.4207 40.8749 53.5627 40.8749 53.7101C40.8749 53.9176 40.9568 54.0814 41.1152 54.196C41.2735 54.3107 41.5574 54.4199 41.9669 54.5182C42.2071 54.5728 42.3328 54.6929 42.3328 54.884C42.3328 55.0368 42.2181 55.1133 41.9833 55.1133C41.7322 55.1133 41.4045 55.1024 41.0114 55.0805L40.1215 55.0641C39.8157 55.0641 39.51 55.0805 39.2151 55.1133C39.1168 55.1242 38.9694 55.1351 38.7674 55.1461C38.5709 55.157 38.3907 55.1624 38.2378 55.1624C37.9375 55.157 37.7956 55.0641 37.7956 54.8785ZM44.2819 50.3249C44.4457 50.3249 44.5276 50.2867 44.5276 50.2103C44.5276 50.1994 44.5167 50.1393 44.4949 50.0301L43.4411 46.3829C43.4083 46.2737 43.3756 46.2191 43.3428 46.2191C43.321 46.2191 43.2882 46.2737 43.2445 46.3829L41.9724 50.0301C41.9505 50.0738 41.9396 50.1175 41.9396 50.1611C41.9396 50.2157 41.9669 50.2594 42.0215 50.2867C42.0761 50.314 42.1416 50.3304 42.2181 50.3304H44.2819V50.3249Z" fill="#5F5F5F"/>
<path d="M96.091 54.8785C96.091 54.7802 96.1238 54.7038 96.1838 54.6547C96.2439 54.6055 96.3367 54.5564 96.4568 54.5127C96.7844 54.4253 97.0683 54.2888 97.3086 54.0977C97.5433 53.9121 97.718 53.6937 97.8272 53.4535C98.8701 51.0238 99.8147 48.6324 100.65 46.2901C100.781 45.9242 100.885 45.6021 100.961 45.3073C101.038 45.0179 101.087 44.8705 101.109 44.8705C101.584 44.7613 101.993 44.6466 102.348 44.5265C102.534 44.461 102.714 44.3736 102.878 44.2644C103.041 44.1552 103.167 44.0515 103.26 43.9532C103.347 43.9095 103.402 43.8877 103.424 43.8877C103.478 43.8877 103.522 43.9259 103.555 44.0024C103.631 44.1662 103.691 44.319 103.735 44.4665C104.417 46.6886 105.171 49.0528 105.995 51.5643L106.607 53.4644C106.76 53.9722 107.202 54.3216 107.928 54.5182C108.048 54.5618 108.141 54.6055 108.201 54.6492C108.261 54.6929 108.294 54.7639 108.294 54.8621C108.294 54.9386 108.261 54.9986 108.201 55.0423C108.141 55.086 108.065 55.1078 107.977 55.1078C107.759 55.1078 107.317 55.0969 106.656 55.0751C105.973 55.0532 105.498 55.0423 105.236 55.0423C105.018 55.0423 104.598 55.0532 103.981 55.0751C103.473 55.1078 103.014 55.1242 102.594 55.1242C102.495 55.1242 102.414 55.1024 102.348 55.0587C102.283 55.015 102.25 54.955 102.25 54.8785C102.25 54.6929 102.37 54.5728 102.616 54.5127C103.003 54.4363 103.282 54.338 103.467 54.2233C103.648 54.1087 103.74 53.9449 103.74 53.7374C103.74 53.6282 103.729 53.5408 103.708 53.4753L103.194 51.5589C103.172 51.4606 103.14 51.3896 103.102 51.3459C103.063 51.3023 103.003 51.2804 102.927 51.2804H100.055C99.9675 51.2804 99.9075 51.3023 99.8747 51.3459C99.8419 51.3896 99.8092 51.4606 99.7764 51.5589L99.5471 52.2687C99.5144 52.3888 99.4652 52.5471 99.3997 52.7491C99.3342 52.9457 99.2796 53.1259 99.2359 53.2788C99.1922 53.4207 99.1704 53.5627 99.1704 53.7101C99.1704 53.9176 99.2523 54.0814 99.4106 54.196C99.5689 54.3107 99.8529 54.4199 100.262 54.5182C100.503 54.5728 100.628 54.6929 100.628 54.884C100.628 55.0368 100.514 55.1133 100.279 55.1133C100.028 55.1133 99.7 55.1024 99.3069 55.0805L98.4169 55.0641C98.1111 55.0641 97.8054 55.0805 97.5106 55.1133C97.4123 55.1242 97.2649 55.1351 97.0629 55.1461C96.8663 55.157 96.6861 55.1624 96.5332 55.1624C96.2329 55.157 96.091 55.0641 96.091 54.8785ZM102.572 50.3249C102.736 50.3249 102.818 50.2867 102.818 50.2103C102.818 50.1994 102.807 50.1393 102.785 50.0301L101.731 46.3829C101.698 46.2737 101.666 46.2191 101.633 46.2191C101.611 46.2191 101.578 46.2737 101.535 46.3829L100.262 50.0301C100.241 50.0738 100.23 50.1175 100.23 50.1611C100.23 50.2157 100.257 50.2594 100.312 50.2867C100.366 50.314 100.432 50.3304 100.508 50.3304H102.572V50.3249Z" fill="#5F5F5F"/>
<path d="M54.7269 55.0533C54.6505 55.0042 54.6123 54.9441 54.6123 54.8786C54.6123 54.693 54.7324 54.5728 54.9781 54.5128C55.4203 54.4145 55.7206 54.2944 55.8953 54.1579C56.0646 54.0214 56.152 53.7921 56.152 53.4754V46.5795C56.152 46.0062 56.1301 45.6404 56.0919 45.4821C56.0537 45.3237 55.9882 45.2145 55.9008 45.1599C55.7698 45.0835 55.5459 45.0453 55.2238 45.0453H54.9453C54.5959 45.0453 54.2519 45.1381 53.9243 45.3183C53.5967 45.4985 53.3237 45.7278 53.1163 46.0008C52.9306 46.2519 52.7614 46.4649 52.603 46.6287C52.4502 46.7925 52.3027 46.8744 52.1553 46.8744C51.9806 46.8744 51.8932 46.7761 51.8932 46.5795C51.8932 46.4376 51.9315 46.2901 52.0079 46.1318C52.2372 45.6677 52.4065 45.2855 52.5048 44.9852C52.603 44.6849 52.6685 44.341 52.7013 43.9533C52.7341 43.6694 52.876 43.522 53.1326 43.522C53.1981 43.522 53.2964 43.6093 53.4275 43.7841C53.5148 43.9151 53.6022 44.0134 53.6896 44.0789C53.7878 44.1553 53.968 44.2208 54.2246 44.27C54.4812 44.3191 54.6996 44.3464 54.8743 44.3464L61.1805 44.33C61.4099 44.33 61.6228 44.3027 61.8084 44.2536C61.9941 44.2045 62.1306 44.1499 62.2234 44.0953C62.2889 44.0625 62.4145 43.9642 62.6056 43.8004C62.7803 43.6257 62.9277 43.5384 63.0533 43.5384C63.1843 43.5384 63.2499 43.6257 63.2499 43.8004C63.2499 43.855 63.239 43.9588 63.2171 44.1116C63.1953 44.1881 63.1461 44.3628 63.0697 44.6413C62.9932 44.9143 62.9332 45.1654 62.895 45.3838C62.8567 45.6022 62.8349 45.8042 62.8349 45.9789V46.3229C62.8349 46.5304 62.8131 46.6887 62.7694 46.787C62.7257 46.8853 62.6547 46.9344 62.5565 46.9344C62.4473 46.9344 62.3544 46.8853 62.2835 46.787C62.2125 46.6887 62.1361 46.5249 62.0596 46.2902C61.9177 45.837 61.7211 45.5148 61.4754 45.3237C61.2297 45.1326 60.8748 45.0344 60.4107 45.0344H59.7337C59.5371 45.0344 59.3842 45.0781 59.2805 45.1654C59.1768 45.2528 59.0949 45.422 59.0403 45.6786C58.9857 45.9298 58.9584 46.2956 58.9584 46.7706V53.4536C58.9584 53.7484 59.0403 53.9668 59.1986 54.1033C59.3569 54.2398 59.6627 54.3763 60.1159 54.5073C60.236 54.551 60.3288 54.5947 60.3889 54.6384C60.4489 54.682 60.4817 54.753 60.4817 54.8513C60.4817 54.9277 60.4489 54.9878 60.3889 55.0315C60.3288 55.0752 60.2524 55.097 60.165 55.097C59.9357 55.097 59.4771 55.0861 58.7946 55.0642L57.5224 55.0315C57.3259 55.0315 56.9163 55.0424 56.2994 55.0642C55.8244 55.097 55.3821 55.1134 54.9617 55.1134C54.8798 55.1243 54.8034 55.1025 54.7269 55.0533Z" fill="#5F5F5F"/>
<path d="M69.108 54.109C68.3 53.3118 67.896 52.2253 67.896 50.8494V46.2303C67.896 45.9246 67.8195 45.6406 67.6721 45.3786C67.5247 45.1219 67.3117 44.9527 67.0388 44.8763C66.7439 44.7998 66.591 44.6797 66.591 44.5159C66.591 44.4395 66.6347 44.3794 66.7166 44.3357C66.7985 44.292 66.9022 44.2702 67.0224 44.2702C67.4045 44.2702 67.8031 44.2866 68.2126 44.3193C68.7204 44.3412 69.0753 44.3521 69.2828 44.3521C69.4902 44.3521 69.8833 44.3412 70.4566 44.3193C71.0518 44.2975 71.4667 44.2866 71.7124 44.2866C71.9964 44.2866 72.1438 44.3685 72.1438 44.5323C72.1438 44.6196 72.1001 44.6906 72.0127 44.7452C71.9254 44.7998 71.8107 44.8544 71.6742 44.9035C71.5377 44.9527 71.4231 45.0018 71.3357 45.0455C70.9262 45.2421 70.7242 45.6734 70.7242 46.3341V50.5928C70.7242 51.6247 70.959 52.4109 71.434 52.946C71.909 53.4811 72.5041 53.7486 73.2303 53.7486C74.2076 53.7486 74.9392 53.4702 75.4142 52.9078C75.8947 52.3454 76.135 51.4718 76.135 50.2816C76.135 49.8175 76.1404 49.4626 76.1514 49.2114L76.1677 47.972C76.1677 47.6226 76.1623 47.366 76.1514 47.2131C76.1404 46.6835 76.1022 46.2795 76.0421 46.001C75.9821 45.7225 75.8893 45.5041 75.7692 45.3567C75.649 45.2093 75.4689 45.0728 75.2232 44.9527C75.1467 44.909 75.0484 44.8653 74.9283 44.8271C74.8082 44.7889 74.7154 44.7452 74.6499 44.7015C74.5844 44.6579 74.5516 44.6033 74.5516 44.5377C74.5516 44.3739 74.7154 44.292 75.0484 44.292C75.387 44.292 75.7364 44.303 76.0858 44.3248L76.7137 44.3412C76.9103 44.3412 77.156 44.3303 77.4399 44.3084C77.7238 44.2866 77.9913 44.2757 78.2316 44.2757C78.5046 44.2757 78.6465 44.3576 78.6465 44.5214C78.6465 44.6742 78.5046 44.7944 78.2152 44.8817C77.8385 44.9909 77.5764 45.1602 77.4235 45.3949C77.2706 45.6243 77.1833 45.9573 77.1614 46.3832C77.1068 47.7154 77.0795 49.1568 77.0795 50.7074C77.0795 51.5974 76.883 52.3946 76.4844 53.0934C76.0858 53.7923 75.5507 54.3383 74.8737 54.7259C74.1967 55.1136 73.4487 55.3101 72.6188 55.3101C71.0845 55.3101 69.9161 54.9116 69.108 54.109Z" fill="#5F5F5F"/>
<path d="M90.7512 54.9935C90.2652 54.7096 89.8284 54.3001 89.4298 53.7705C89.0313 53.2299 88.6818 52.7167 88.3761 52.2199C88.0703 51.723 87.77 51.1661 87.4861 50.5382C87.3769 50.298 87.2459 50.1342 87.0875 50.0413C86.9674 49.9649 86.8364 49.9267 86.689 49.9267C86.5798 49.9267 86.5252 50.0359 86.5252 50.2543V53.4538C86.5252 53.7814 86.618 54.0162 86.7982 54.1472C86.9784 54.2782 87.3169 54.3984 87.8137 54.5076C87.9229 54.5294 88.0048 54.5676 88.054 54.6222C88.1031 54.6768 88.1304 54.7533 88.1304 54.8515C88.1304 55.0153 88.043 55.0972 87.8683 55.0972L86.4323 55.0645L85.0947 55.0317C84.8981 55.0317 84.4995 55.0426 83.9044 55.0645C83.4621 55.0972 83.0363 55.1136 82.6159 55.1136C82.5503 55.1136 82.4848 55.0863 82.4193 55.0372C82.3538 54.988 82.321 54.928 82.321 54.8625C82.321 54.6768 82.4248 54.5567 82.6323 54.4966C83.0636 54.4093 83.3475 54.2946 83.5004 54.1581C83.6478 54.0216 83.7242 53.7868 83.7242 53.4593V45.9846C83.7242 45.6352 83.6587 45.384 83.5277 45.2312C83.3966 45.0837 83.1291 44.9636 82.736 44.8763C82.5067 44.8217 82.3866 44.707 82.3866 44.5323C82.3866 44.4559 82.4193 44.3903 82.4794 44.3412C82.5394 44.2921 82.6213 44.2648 82.7196 44.2648C83.1182 44.2648 83.555 44.2866 84.0409 44.3303C84.4832 44.374 84.8271 44.3958 85.0783 44.3958C85.2858 44.3958 85.5915 44.374 85.9846 44.3303C86.4706 44.2648 86.9565 44.232 87.4533 44.232C88.7746 44.232 89.7848 44.4504 90.4836 44.8926C91.1825 45.3349 91.5319 45.9901 91.5319 46.8746C91.5319 47.5462 91.3244 48.0867 90.904 48.5017C90.4836 48.9166 89.9758 49.206 89.3698 49.3862C89.337 49.3971 89.3207 49.4244 89.3207 49.4681C89.3207 49.5117 89.3316 49.55 89.3534 49.5827C89.9049 50.4072 90.4072 51.1224 90.8713 51.7285C91.3354 52.3345 91.7831 52.8477 92.2253 53.2627C92.5639 53.5794 92.9187 53.7869 93.29 53.8742C93.6613 53.9616 94.1035 54.0052 94.6168 54.0052C94.7806 54.0052 94.8625 54.109 94.8625 54.3165C94.8625 55.0536 94.1581 55.4248 92.7495 55.4248C91.8977 55.4248 91.2316 55.2774 90.7512 54.9935ZM88.3979 48.8074C88.6873 48.4361 88.8347 47.9229 88.8347 47.2732C88.8347 46.5033 88.6928 45.9355 88.4034 45.5642C88.1195 45.1929 87.7045 45.0128 87.164 45.0128C86.9347 45.0128 86.7654 45.1165 86.6671 45.3185C86.5688 45.5205 86.5197 45.9246 86.5197 46.5306V48.7419C86.5197 49.1623 86.7108 49.3698 87.0985 49.3698C87.6718 49.3643 88.1086 49.1787 88.3979 48.8074Z" fill="#5F5F5F"/>
<path d="M111.313 55.0753C111.258 55.0207 111.231 54.9606 111.231 54.8951C111.231 54.8296 111.264 54.7641 111.324 54.6985C111.384 54.633 111.466 54.5839 111.564 54.5511C111.952 54.4419 112.208 54.3218 112.35 54.1908C112.487 54.0597 112.558 53.8359 112.558 53.5137V45.9845C112.558 45.6351 112.487 45.3839 112.345 45.242C112.203 45.1 111.908 44.9799 111.471 44.8762C111.264 44.8216 111.16 44.7014 111.16 44.5158C111.16 44.4503 111.193 44.3902 111.258 44.3411C111.324 44.2919 111.389 44.2646 111.455 44.2646C111.864 44.2646 112.29 44.281 112.743 44.3138C113.338 44.3356 113.731 44.3466 113.933 44.3466C114.141 44.3466 114.556 44.3356 115.173 44.3138C115.812 44.2919 116.248 44.281 116.494 44.281C116.669 44.281 116.756 44.3629 116.756 44.5267C116.756 44.625 116.729 44.7014 116.68 44.7506C116.631 44.7997 116.549 44.8434 116.44 44.8762C115.986 45.0072 115.697 45.1437 115.566 45.2911C115.435 45.4331 115.369 45.6733 115.369 46.0009V53.3445C115.369 53.6393 115.435 53.8577 115.561 53.9888C115.686 54.1198 115.894 54.1853 116.177 54.1853H117.777C118.198 54.1853 118.574 54.0324 118.918 53.7212C119.224 53.4373 119.524 52.9896 119.808 52.3835C119.918 52.1542 120.005 52.0068 120.065 51.9468C120.125 51.8867 120.196 51.8539 120.272 51.8539C120.349 51.8539 120.409 51.8922 120.447 51.9631C120.485 52.0341 120.507 52.116 120.507 52.2034C120.507 52.2361 120.496 52.2907 120.48 52.3617C120.464 52.4327 120.447 52.5091 120.436 52.5856C120.272 53.1698 120.158 53.5956 120.087 53.8741C120.021 54.1471 119.972 54.4747 119.939 54.846C119.918 55.0534 119.825 55.1572 119.661 55.1572L118.225 55.1408C116.554 55.0971 115.124 55.0753 113.933 55.0753C113.562 55.0753 113.158 55.0917 112.727 55.1244C112.154 55.1463 111.766 55.1572 111.553 55.1572C111.444 55.1572 111.367 55.1299 111.313 55.0753Z" fill="#5F5F5F"/>
<path d="M24.5549 62.9157C24.8498 63.085 25.0791 63.3197 25.2483 63.62C25.4176 63.9203 25.5049 64.2643 25.5049 64.641C25.5049 65.0232 25.4176 65.3617 25.2483 65.6675C25.0791 65.9733 24.8443 66.208 24.5549 66.3718C24.2601 66.5411 23.9325 66.623 23.5721 66.623C23.2118 66.623 22.8842 66.5411 22.5893 66.3718C22.2945 66.2026 22.0652 65.9678 21.8959 65.6675C21.7267 65.3672 21.6393 65.0232 21.6393 64.641C21.6393 64.2589 21.7267 63.9203 21.8959 63.62C22.0652 63.3197 22.3 63.085 22.5893 62.9157C22.8842 62.7465 23.2118 62.6646 23.5721 62.6646C23.9325 62.6646 24.2601 62.7465 24.5549 62.9157ZM22.977 63.5272C22.8077 63.631 22.6712 63.7784 22.573 63.9695C22.4747 64.1606 22.4255 64.3844 22.4255 64.641C22.4255 64.8977 22.4747 65.1215 22.573 65.3126C22.6712 65.5037 22.8023 65.6511 22.977 65.7549C23.1463 65.8586 23.3483 65.9077 23.5721 65.9077C23.796 65.9077 23.998 65.8586 24.1673 65.7549C24.3365 65.6511 24.473 65.5037 24.5713 65.3126C24.6696 65.1215 24.7187 64.8977 24.7187 64.641C24.7187 64.3844 24.6696 64.1606 24.5713 63.9695C24.473 63.7784 24.342 63.631 24.1673 63.5272C23.998 63.4235 23.796 63.3743 23.5721 63.3743C23.3428 63.3743 23.1463 63.4235 22.977 63.5272Z" fill="#5F5F5F"/>
<path d="M31.9368 66.5849L31.0305 65.078H30.692V66.5849H29.9221V62.7138H31.3963C31.844 62.7138 32.188 62.823 32.4227 63.0414C32.6575 63.2598 32.7776 63.5492 32.7776 63.9095C32.7776 64.2044 32.6957 64.4446 32.5319 64.6412C32.3681 64.8377 32.1333 64.9688 31.8276 65.0343L32.794 66.5794H31.9368V66.5849ZM30.6974 64.5483H31.3308C31.773 64.5483 31.9914 64.3518 31.9914 63.9641C31.9914 63.7785 31.9368 63.6311 31.8276 63.5273C31.7184 63.4236 31.5546 63.369 31.3253 63.369H30.692V64.5483H30.6974Z" fill="#5F5F5F"/>
<path d="M40.0997 63.025C40.4109 63.2543 40.6075 63.571 40.6948 63.9641H39.8813C39.8048 63.7894 39.6847 63.6474 39.5155 63.5437C39.3517 63.4399 39.1551 63.3853 38.9258 63.3853C38.7019 63.3853 38.5054 63.4345 38.3361 63.5382C38.1669 63.6419 38.0303 63.7894 37.9375 63.975C37.8447 64.1661 37.7956 64.39 37.7956 64.6411C37.7956 65.0451 37.9048 65.3618 38.1232 65.5911C38.3416 65.815 38.6364 65.9297 39.0131 65.9297C39.2916 65.9297 39.5318 65.8477 39.7284 65.6839C39.9304 65.5202 40.056 65.2908 40.1161 65.0015H38.8057V64.45H40.7603V65.1926C40.7057 65.4492 40.5965 65.684 40.4382 65.8969C40.2798 66.1153 40.0724 66.2845 39.8157 66.4156C39.5591 66.5466 39.2643 66.6121 38.9312 66.6121C38.549 66.6121 38.216 66.5302 37.9266 66.361C37.6373 66.1972 37.4134 65.9624 37.255 65.6676C37.0967 65.3673 37.0148 65.0288 37.0148 64.6466C37.0148 64.2644 37.0967 63.9204 37.255 63.6256C37.4134 63.3307 37.6373 63.096 37.9266 62.9267C38.216 62.7574 38.549 62.6755 38.9312 62.6755C39.3953 62.681 39.7885 62.7957 40.0997 63.025Z" fill="#5F5F5F"/>
<path d="M47.5353 65.8093H45.9847L45.7117 66.5901H44.8927L46.3178 62.7627H47.2023L48.6218 66.5901H47.8028L47.5353 65.8093ZM47.3278 65.2197L46.76 63.5871L46.1922 65.2197H47.3278Z" fill="#5F5F5F"/>
<path d="M56.1461 66.5849H55.3762L53.6454 63.9532V66.5849H52.8756V62.7138H53.6454L55.3762 65.3673V62.7138H56.1461V66.5849Z" fill="#5F5F5F"/>
<path d="M61.4586 62.719V66.5901H60.6833V62.719H61.4586Z" fill="#5F5F5F"/>
<path d="M68.9436 63.0524C69.2603 63.3035 69.4732 63.6366 69.5715 64.0679H68.758C68.6761 63.8604 68.5451 63.6966 68.3649 63.5765C68.1902 63.4564 67.9772 63.3963 67.726 63.3963C67.524 63.3963 67.3384 63.4455 67.1746 63.5492C67.0108 63.653 66.8798 63.8004 66.7924 63.986C66.6996 64.1771 66.6559 64.401 66.6559 64.6521C66.6559 64.9033 66.6996 65.1271 66.7924 65.3128C66.8852 65.5039 67.0108 65.6513 67.1746 65.7496C67.3384 65.8533 67.524 65.9024 67.726 65.9024C67.9772 65.9024 68.1847 65.8424 68.3649 65.7223C68.5396 65.6021 68.6706 65.4383 68.758 65.2309H69.5715C69.4678 65.6567 69.2603 65.9953 68.9436 66.2464C68.6269 66.4976 68.2284 66.6177 67.7424 66.6177C67.3712 66.6177 67.049 66.5358 66.7651 66.3665C66.4812 66.2027 66.2628 65.968 66.1099 65.6677C65.957 65.3674 65.8752 65.0288 65.8752 64.6467C65.8752 64.2645 65.9516 63.9205 66.1099 63.6202C66.2628 63.3199 66.4812 63.0851 66.7651 62.9213C67.049 62.7575 67.3712 62.6702 67.7479 62.6702C68.2229 62.6811 68.6269 62.8012 68.9436 63.0524Z" fill="#5F5F5F"/>
<path d="M81.7422 64.9248C81.8841 65.0995 81.9551 65.3015 81.9551 65.5363C81.9551 65.8639 81.8459 66.1205 81.6275 66.3062C81.4091 66.4918 81.0924 66.5901 80.6829 66.5901H79.0231V62.719H80.6502C81.0433 62.719 81.3436 62.8064 81.551 62.9756C81.7585 63.1449 81.8677 63.3906 81.8677 63.6963C81.8677 63.9366 81.8022 64.1331 81.6766 64.286C81.5511 64.4389 81.3873 64.5371 81.1798 64.5863C81.4146 64.6409 81.6002 64.7501 81.7422 64.9248ZM79.793 64.3406H80.4864C80.6775 64.3406 80.8249 64.2969 80.9286 64.2095C81.0269 64.1222 81.0815 64.0021 81.0815 63.8383C81.0815 63.6799 81.0324 63.5544 80.9341 63.467C80.8358 63.3796 80.6829 63.336 80.4809 63.336H79.7984V64.3406H79.793ZM80.9996 65.8202C81.1088 65.7329 81.1634 65.6018 81.1634 65.4271C81.1634 65.2579 81.1088 65.1214 80.9942 65.0285C80.885 64.9357 80.7266 64.8866 80.5191 64.8866H79.793V65.9513H80.5246C80.7321 65.9567 80.8904 65.913 80.9996 65.8202Z" fill="#5F5F5F"/>
<path d="M87.104 63.3308V64.3355H88.4744V64.9251H87.104V65.968H88.6382V66.5849H86.3341V62.7139H88.6382V63.3254H87.104V63.3308Z" fill="#5F5F5F"/>
<path d="M95.3972 65.8093H93.8465L93.5735 66.5901H92.7545L94.1796 62.7627H95.0641L96.4837 66.5901H95.6647L95.3972 65.8093ZM95.1897 65.2197L94.6218 63.5871L94.054 65.2197H95.1897Z" fill="#5F5F5F"/>
<path d="M101.48 62.719V64.9849C101.48 65.2906 101.545 65.5145 101.682 65.6673C101.813 65.8202 102.009 65.8967 102.261 65.8967C102.512 65.8967 102.697 65.8202 102.834 65.6673C102.965 65.5145 103.036 65.2906 103.036 64.9849V62.719H103.806V64.9849C103.806 65.3452 103.74 65.6455 103.604 65.8912C103.473 66.1369 103.287 66.3225 103.052 66.4427C102.817 66.5628 102.55 66.6228 102.25 66.6228C101.786 66.6228 101.414 66.4863 101.136 66.2079C100.857 65.9294 100.721 65.5254 100.721 64.9849V62.719H101.48Z" fill="#5F5F5F"/>
<path d="M110.947 62.719V63.3305H109.877V66.5846H109.102V63.3305H108.037V62.719H110.947Z" fill="#5F5F5F"/>
<path d="M118.329 62.719L117.019 65.236V66.5901H116.243V65.236L114.927 62.719H115.817L116.642 64.4116L117.466 62.719H118.329Z" fill="#5F5F5F"/>
<path d="M85.2418 86.8462C87.5459 85.1646 88.6707 83.472 88.6761 81.6647C88.6761 81.4027 88.485 81.1843 88.2229 81.1515C86.8143 80.9768 85.4384 81.5774 84.4065 82.1179C80.377 84.2309 77.1174 87.4359 73.9725 90.548C73.9671 90.5535 73.9562 90.5535 73.9507 90.5644C72.4492 92.0604 70.8003 93.2725 69.1132 94.2662C73.1918 90.1222 75.8071 83.9033 75.7852 79.5954C75.7798 79.0877 75.7142 78.4598 75.2065 78.0776C74.9499 77.881 74.6223 77.7991 74.251 77.821C74.2455 77.821 74.2401 77.8155 74.2346 77.8155C74.2182 77.8155 74.2019 77.8264 74.1855 77.8264C74.0654 77.8373 73.9453 77.8537 73.8197 77.8865C72.1981 78.3069 71.2535 79.8411 70.5492 81.2825C68.1905 86.1037 66.5252 91.2742 64.9255 96.2809C62.6542 97.1654 60.4647 97.7224 58.6083 98.0663C58.0187 98.1755 57.429 98.2683 56.8393 98.3557C58.1879 97.6678 59.4219 96.7778 60.1644 96.0352C61.5403 94.6648 62.6214 92.863 63.5714 90.3733C64.1501 88.8554 64.8818 86.5677 64.5706 84.28C64.4559 83.4338 64.0683 82.8932 63.4841 82.7676C63.4786 82.7676 63.4786 82.7676 63.4731 82.7676C63.009 82.6694 62.605 82.8714 62.2719 83.0843C59.4055 84.9025 57.7129 88.0255 56.5554 90.548C56.2606 91.1868 55.9821 91.8311 55.7037 92.4754C54.7755 94.6047 53.82 96.8105 52.4223 98.6615C52.395 98.6942 52.384 98.7379 52.3677 98.7761C48.9498 98.9235 45.3244 98.7106 41.1748 98.1318C24.8005 94.9323 11.3855 83.7013 5.28678 68.0914C3.08097 62.4568 1.96171 56.5 1.96171 50.3958C1.96171 50.1119 1.73239 49.8826 1.44848 49.8826C1.16456 49.8826 0.935242 50.1119 0.935242 50.3958C0.935242 56.631 2.07635 62.7134 4.33129 68.4681C10.5556 84.4056 24.26 95.8714 41.0056 99.1474C44.3798 99.617 47.4155 99.8517 50.271 99.8517C52.3895 99.8517 54.4042 99.7152 56.3862 99.4586C56.8011 99.9828 57.216 100.512 57.631 101.042C60.6558 104.908 63.7898 108.91 67.8247 111.847C67.9885 111.967 68.3652 112.24 68.7965 112.24C68.9112 112.24 69.0368 112.218 69.1569 112.169C69.1624 112.169 69.1678 112.169 69.1733 112.164C69.1787 112.164 69.1787 112.158 69.1842 112.158C69.1897 112.153 69.1951 112.153 69.206 112.153C69.5118 112.016 69.8776 111.678 69.8831 110.826C69.8885 108.484 68.8238 106.076 66.8856 104.05C65.1766 102.265 62.9981 100.96 60.8961 99.819C60.3446 99.5187 59.7932 99.2293 59.2253 98.9945C61.786 98.4922 64.1829 97.7442 66.3942 96.7887C66.3997 96.7942 66.4051 96.7996 66.4106 96.8051C69.0859 98.4048 72.1926 99.6443 76.1784 100.703C78.002 101.189 80.0221 101.621 82.0478 101.621C83.2435 101.621 84.4392 101.468 85.6022 101.086H85.6076H85.6131C85.6185 101.086 85.6185 101.08 85.6185 101.08C85.695 101.053 85.766 101.004 85.8206 100.944C85.826 100.938 85.8315 100.933 85.837 100.927C85.8752 100.884 85.9079 100.835 85.9298 100.774C85.9352 100.758 85.9352 100.736 85.9407 100.72C85.9462 100.709 85.9516 100.698 85.9571 100.687C85.9571 100.671 85.9516 100.66 85.9516 100.643C85.9571 100.578 85.9516 100.518 85.9352 100.452C85.9298 100.436 85.9298 100.42 85.9243 100.398C85.8915 100.321 85.8479 100.256 85.7823 100.201C85.7769 100.196 85.7769 100.19 85.7714 100.19C81.6383 96.8379 74.8188 94.9924 69.015 95.4892C71.0351 94.3645 72.8533 93.0432 74.4257 91.5254C76.5059 91.0121 81.5072 89.5707 85.2418 86.8462ZM63.6096 85.3284C63.6315 86.6769 63.3093 88.162 62.5995 90.0184C61.7041 92.3716 60.694 94.0533 59.4273 95.32C58.794 95.9533 57.7894 96.685 56.6974 97.2801C61.4748 93.4636 63.0745 88.1839 63.6096 85.3284ZM62.5395 85.4758C61.9989 88.1566 60.4975 92.7429 56.3971 96.199C57.227 95.1344 58.1115 93.7748 58.9305 92.0714C60.2845 89.254 61.6167 86.9609 62.5395 85.4758ZM56.6319 92.8903C56.9103 92.2515 57.1888 91.6127 57.4781 90.9848C58.4336 88.9046 59.7658 86.3985 61.8297 84.6786C60.8851 86.1856 59.4601 88.6098 58.0077 91.6236C57.0959 93.5237 56.0859 94.9815 55.185 96.0571C55.7091 95.0142 56.1732 93.9441 56.6319 92.8903ZM84.6358 86.0163C82.8122 87.3431 80.2514 88.5934 77.4341 89.5653L87.2729 83.1826C86.8197 84.1217 85.9516 85.0608 84.6358 86.0163ZM84.8815 83.0352C85.4711 82.7294 86.1209 82.4291 86.7979 82.2708L78.4824 87.6652C80.4535 85.8907 82.5392 84.2637 84.8815 83.0352ZM73.2955 80.9713C72.3182 85.4048 69.8394 89.6526 67.8465 92.5354L73.2955 80.9713ZM68.4417 93.5073C70.8495 90.1112 74.0763 84.6295 74.655 79.0003C74.7533 79.175 74.7642 79.4917 74.7642 79.6118C74.7806 83.6849 72.3018 89.5707 68.4417 93.5073ZM71.4664 81.7412C71.8104 81.0368 72.2199 80.3107 72.7277 79.7592L68.6655 88.375C69.5009 86.12 70.4127 83.8924 71.4664 81.7412ZM60.1917 102.642C63.0363 105.366 65.2967 107.938 66.7545 109.69C64.3194 107.621 62.201 105.159 60.1917 102.642ZM60.8469 101.85C63.3257 103.706 66.4378 106.453 67.7974 109.352C66.3341 107.561 63.9208 104.787 60.8469 101.85ZM68.3052 108.107C67.0767 105.956 65.0893 103.968 63.1728 102.363C64.2812 103.089 65.264 103.859 66.1266 104.76C67.1203 105.798 67.8465 106.939 68.3052 108.107ZM76.4295 99.7043C73.9179 99.0382 71.7667 98.3011 69.8667 97.4439C73.0225 97.9025 78.5971 98.8635 83.5601 100.48C81.1632 100.802 78.6517 100.294 76.4295 99.7043ZM81.6219 98.8253C77.314 97.6132 72.8969 96.8542 70.1615 96.4502C74.0053 96.3137 78.1985 97.1873 81.6219 98.8253Z" fill="#5F5F5F"/>
</svg>
