<svg width="153" height="70" viewBox="0 0 153 70" fill="none" xmlns="http://www.w3.org/2000/svg">
<path d="M23.7265 28.6739L24.4611 28.226C24.5686 27.6825 24.3536 27.4138 23.834 27.4138C23.0816 27.4138 22.7053 27.9931 22.7053 29.1457C22.7053 29.5995 22.7651 30.1251 22.8905 30.7223C24.2222 31.6121 24.8851 32.7587 24.8851 34.1501C24.8851 35.5416 24.4014 36.6225 23.4399 37.3929C22.4784 38.1633 21.1705 38.5455 19.5283 38.5455C18.8475 38.5455 18.1368 38.4738 17.4023 38.3365C16.6319 38.8262 16.2497 39.1964 16.2497 39.4413C16.2497 39.6861 16.811 39.8115 17.9278 39.8115H20.6092C24.5805 39.8115 26.5692 41.2388 26.5692 44.0934C26.5692 45.6342 25.972 46.8524 24.7716 47.7542C23.5713 48.6559 21.7021 49.1038 19.164 49.1038C14.8403 49.1038 12.6785 48.1662 12.6785 46.297C12.6785 45.2818 13.3533 44.5831 14.703 44.1949L16.2795 44.9056C16.1362 45.4132 16.0705 45.8969 16.0705 46.3508C16.0705 47.8557 17.1932 48.6082 19.4327 48.6082C20.8003 48.6082 21.8513 48.3514 22.5859 47.8438C23.3204 47.3361 23.6907 46.7031 23.6907 45.9507C23.6907 45.1982 23.4697 44.6966 23.0218 44.4398C22.574 44.183 21.6841 44.0576 20.3584 44.0576H17.8143C16.399 44.0576 15.3837 43.8187 14.7686 43.3469C14.1535 42.8751 13.849 42.2899 13.849 41.6031C13.849 40.9104 14.0699 40.3311 14.5059 39.8712C14.9418 39.4054 15.7241 38.8321 16.8409 38.1513C14.8104 37.5721 13.7952 36.2463 13.7952 34.1621C13.7952 32.8483 14.267 31.7912 15.2106 30.985C16.1541 30.1788 17.5755 29.7787 19.4626 29.7787C20.5973 29.7787 21.5707 29.9997 22.3769 30.4356C22.2694 29.9638 22.2216 29.5338 22.2216 29.1516C22.2216 28.1722 22.4844 27.4616 23.0099 27.0256C23.5354 26.5897 24.1207 26.3687 24.7716 26.3687C25.4226 26.3687 25.9421 26.5419 26.3363 26.8823C26.7304 27.2227 26.9275 27.6945 26.9275 28.2857C26.9275 28.8829 26.7722 29.3248 26.4557 29.6115C26.1392 29.8981 25.757 30.0474 25.3151 30.0474C24.8672 30.0474 24.5029 29.928 24.2103 29.6951C23.8997 29.4502 23.7444 29.1158 23.7265 28.6739ZM18.1607 33.5888V35.0041C18.1607 36.1746 18.2622 36.9749 18.4653 37.3929C18.6683 37.8109 18.9729 38.0199 19.3849 38.0199C19.797 38.0199 20.0956 37.8169 20.2748 37.4048C20.4599 36.9928 20.5495 36.1507 20.5495 34.8727V33.5888C20.5495 32.2212 20.4599 31.3254 20.2867 30.8954C20.1135 30.4655 19.8209 30.2505 19.4088 30.2505C18.9968 30.2505 18.6862 30.4714 18.4772 30.9193C18.2622 31.3672 18.1607 32.257 18.1607 33.5888Z" fill="#5F5F5F"/>
<path d="M38.298 30.776C37.6471 30.776 37.0797 31.194 36.59 32.0361C36.1003 32.8781 35.8555 33.8754 35.8555 35.028V42.0629H37.7187V42.5347H29.5253V42.0629H30.9704V30.5072H29.5253V30.0355H35.8555V32.5556C36.0824 31.6658 36.5184 30.979 37.1693 30.4953C37.8143 30.0116 38.5548 29.7727 39.373 29.7727C40.1971 29.7727 40.8659 30.0056 41.3795 30.4714C41.8931 30.9372 42.1559 31.5941 42.1559 32.4422C42.1559 33.2902 41.9648 33.9411 41.5766 34.4009C41.1884 34.8548 40.6032 35.0817 39.8029 35.0817C39.0027 35.0817 38.4174 34.819 38.0412 34.2934C37.665 33.7679 37.6172 33.0393 37.8979 32.1137H38.8414C39.2893 31.2239 39.1042 30.776 38.298 30.776Z" fill="#5F5F5F"/>
<path d="M46.8438 41.0597C45.7151 39.8952 45.1537 38.2768 45.1537 36.2045C45.1537 34.1323 45.7868 32.5438 47.0588 31.439C48.3248 30.3341 49.9432 29.7847 51.902 29.7847C55.8734 29.7847 57.7844 31.7794 57.6291 35.7686H50.2239V36.7958C50.2239 38.5097 50.4449 39.8056 50.8808 40.6835C51.3168 41.5614 52.0812 41.9973 53.1681 41.9973C55.1985 41.9973 56.5303 40.9104 57.1573 38.7426L57.6291 38.8203C57.2947 40.0803 56.6975 41.0597 55.8316 41.7584C54.9656 42.4572 53.6637 42.8095 51.9319 42.8095C49.6685 42.8035 47.9725 42.2183 46.8438 41.0597ZM50.2478 35.2431H52.9531V33.9591C52.9531 32.5438 52.8695 31.5763 52.7023 31.0568C52.5351 30.5432 52.2006 30.2804 51.705 30.2804C51.2033 30.2804 50.839 30.5551 50.6001 31.1045C50.3613 31.6539 50.2478 32.6035 50.2478 33.9531V35.2431Z" fill="#5F5F5F"/>
<path d="M63.022 41.0597C61.8933 39.8952 61.3259 38.2768 61.3259 36.2045C61.3259 34.1323 61.959 32.5438 63.231 31.439C64.497 30.3341 66.1154 29.7847 68.0742 29.7847C72.0455 29.7847 73.9565 31.7794 73.7953 35.7686H66.3901V36.7958C66.3901 38.5097 66.6111 39.8056 67.047 40.6835C67.483 41.5614 68.2474 41.9973 69.3283 41.9973C71.3588 41.9973 72.6905 40.9104 73.3175 38.7426L73.7893 38.8203C73.4549 40.0803 72.8577 41.0597 71.9918 41.7584C71.1258 42.4572 69.824 42.8095 68.0921 42.8095C65.8407 42.8035 64.1506 42.2183 63.022 41.0597ZM66.42 35.2431H69.1253V33.9591C69.1253 32.5438 69.0416 31.5763 68.8744 31.0568C68.7072 30.5432 68.3728 30.2804 67.8771 30.2804C67.3755 30.2804 67.0112 30.5551 66.7723 31.1045C66.5334 31.6539 66.42 32.6035 66.42 33.9531V35.2431Z" fill="#5F5F5F"/>
<path d="M77.4201 30.0413H83.7504V32.454C84.0311 31.6478 84.4611 31.0028 85.0344 30.5131C85.6136 30.0234 86.4855 29.7786 87.662 29.7786C90.3732 29.7786 91.7348 31.2417 91.7348 34.162V42.0628H93.2039V42.5346H85.7749V42.0628H86.8498V33.5289C86.8498 32.4779 86.7782 31.803 86.6408 31.4925C86.5035 31.1879 86.2466 31.0327 85.8824 31.0327C85.321 31.0327 84.8253 31.4029 84.4013 32.1375C83.9714 32.872 83.7564 33.7678 83.7564 34.8129V42.0628H84.8851V42.5346H77.4201V42.0628H78.8653V30.5071H77.4201V30.0413Z" fill="#5F5F5F"/>
<path d="M97.9934 41.0597C96.8647 39.8952 96.2974 38.2768 96.2974 36.2045C96.2974 34.1323 96.9304 32.5438 98.2024 31.439C99.4685 30.3341 101.087 29.7847 103.046 29.7847C107.017 29.7847 108.928 31.7794 108.773 35.7686H101.368V36.7958C101.368 38.5097 101.589 39.8056 102.024 40.6835C102.46 41.5614 103.225 41.9973 104.312 41.9973C106.342 41.9973 107.674 40.9104 108.301 38.7426L108.773 38.8203C108.438 40.0803 107.841 41.0597 106.975 41.7584C106.109 42.4572 104.807 42.8095 103.076 42.8095C100.818 42.8035 99.1221 42.2183 97.9934 41.0597ZM101.397 35.2431H104.103V33.9591C104.103 32.5438 104.019 31.5763 103.852 31.0568C103.685 30.5432 103.35 30.2804 102.855 30.2804C102.353 30.2804 101.989 30.5551 101.75 31.1045C101.511 31.6539 101.397 32.6035 101.397 33.9531V35.2431Z" fill="#5F5F5F"/>
<path d="M121.117 30.776C120.472 30.776 119.899 31.194 119.409 32.0361C118.919 32.8781 118.674 33.8754 118.674 35.028V42.0629H120.538V42.5347H112.344V42.0629H113.789V30.5072H112.344V30.0355H118.674V32.5556C118.901 31.6658 119.337 30.979 119.988 30.4953C120.633 30.0116 121.374 29.7727 122.192 29.7727C123.016 29.7727 123.685 30.0056 124.198 30.4714C124.712 30.9372 124.975 31.5941 124.975 32.4422C124.975 33.2902 124.784 33.9411 124.395 34.4009C124.013 34.8548 123.422 35.0817 122.622 35.0817C121.828 35.0817 121.236 34.819 120.86 34.2934C120.484 33.7679 120.436 33.0393 120.717 32.1137H121.66C122.102 31.2239 121.917 30.776 121.117 30.776Z" fill="#5F5F5F"/>
<path d="M127.441 30.5133V30.0416H135.055V30.5133H133.64L136.5 39.2324L139.546 30.5133H137.784V30.0416H141.487V30.5133H140.173L135.264 44.6668C134.685 46.3091 134.04 47.4617 133.323 48.1186C132.607 48.7755 131.729 49.104 130.695 49.104C129.662 49.104 128.85 48.8651 128.253 48.3933C127.656 47.9215 127.363 47.3183 127.363 46.5838C127.363 45.8493 127.554 45.2879 127.942 44.9057C128.325 44.5175 128.832 44.3264 129.465 44.3264C130.916 44.3264 131.645 44.9296 131.645 46.1359C131.645 46.3987 131.591 46.7152 131.49 47.0795H130.57C130.427 47.4796 130.415 47.814 130.516 48.0768C130.624 48.3395 130.857 48.4709 131.227 48.4709C131.944 48.4709 132.583 48.1186 133.144 47.4079C133.705 46.6973 134.237 45.6163 134.744 44.1652L135.324 42.5348H133.013L128.522 30.5074H127.441V30.5133Z" fill="#5F5F5F"/>
<path d="M76.3454 14.6755C76.2738 14.6755 76.2021 14.6575 76.1364 14.6098C75.9632 14.4963 75.9214 14.2634 76.0349 14.0902C77.3606 12.1434 77.5756 10.6564 77.7787 9.21712C77.8563 8.69756 77.928 8.16009 78.0594 7.61067C78.3699 6.2849 78.764 5.18607 79.2657 4.27833C78.6565 4.18875 78.0474 4.08125 77.4562 3.97376C76.4828 3.80057 75.4735 3.62142 74.4762 3.53184C72.7503 3.38254 70.3257 3.49601 68.6177 4.91136C68.1818 5.27564 67.6383 5.86089 67.5428 6.60738C67.5129 6.81043 67.3218 6.95376 67.1248 6.92987C66.9217 6.90598 66.7724 6.71487 66.8023 6.51183C66.9337 5.52646 67.6025 4.78594 68.146 4.33805C70.051 2.76146 72.6727 2.62411 74.5479 2.78535C75.575 2.87493 76.6022 3.06006 77.5935 3.23325C78.2863 3.35866 78.991 3.48406 79.7016 3.57364C80.1197 2.9645 80.6034 2.4569 81.1468 2.05081C82.0128 1.39987 83.3684 0.892249 84.5568 1.41181C85.0047 1.60888 85.4825 2.02692 85.4765 2.61814C85.4705 3.08395 85.154 3.51393 84.5807 3.83044C83.6252 4.35597 82.4607 4.54707 80.8901 4.45151C80.6213 4.4336 80.3466 4.40971 80.0779 4.37985C79.5463 5.26967 79.1283 6.39239 78.7999 7.78385C78.6804 8.29744 78.6088 8.79311 78.5311 9.32461C78.3102 10.8475 78.0832 12.424 76.6619 14.5142C76.5843 14.6217 76.4649 14.6755 76.3454 14.6755ZM80.5497 3.67516C80.6751 3.68711 80.8065 3.69308 80.9319 3.70502C82.3472 3.7946 83.3863 3.62739 84.2164 3.17352C84.3657 3.08992 84.724 2.86895 84.724 2.61216C84.724 2.40314 84.4911 2.20607 84.2523 2.10455C83.3505 1.71638 82.2875 2.13441 81.5888 2.65397C81.2066 2.94062 80.8662 3.28102 80.5497 3.67516Z" fill="#5F5F5F"/>
<path d="M80.6984 14.8008C80.4357 14.8008 80.2386 14.7172 80.0953 14.6157C79.8086 14.4127 79.6414 14.0543 79.6235 13.6005C79.5996 12.9197 79.8444 12.3105 80.0833 11.7193C80.2505 11.3073 80.4118 10.9191 80.4715 10.519C80.4715 10.507 80.4715 10.501 80.4775 10.4891C80.4237 10.501 80.352 10.5249 80.2684 10.5727C79.0263 11.3132 77.6945 12.7584 76.7152 14.4425C76.6077 14.6217 76.3807 14.6814 76.2016 14.5799C76.0224 14.4784 75.9627 14.2455 76.0642 14.0663C77.1093 12.2747 78.5366 10.728 79.8863 9.92774C80.3998 9.62317 80.9015 9.67095 81.1284 10.0532C81.2657 10.2741 81.224 10.5249 81.212 10.6324C81.1344 11.1221 80.9552 11.57 80.7761 12.006C80.5551 12.5435 80.3521 13.057 80.37 13.5766C80.376 13.7856 80.4356 13.9469 80.5252 14.0066C80.6506 14.0961 80.9134 14.0543 81.2299 13.8871C81.5465 13.7199 81.857 13.5229 82.1675 13.3317L82.3168 13.2362C82.6154 13.0511 82.9021 12.86 83.1947 12.6569C83.0812 11.8806 83.3261 10.9609 83.8397 10.3816C84.3115 9.85011 84.9445 9.65304 85.6193 9.8322C85.8343 9.89192 86.0015 9.99941 86.103 10.1487C86.2583 10.3816 86.2583 10.6862 86.103 11.0087C85.8044 11.6178 85.2431 12.0478 84.7534 12.43L84.5802 12.5673C84.413 12.6987 84.2398 12.8301 84.0666 12.9555C84.1442 13.1227 84.2637 13.3138 84.4488 13.4213C84.6041 13.5109 84.8131 13.5527 85.1236 13.5587C86.1209 13.5706 87.1123 13.2302 87.9006 12.6091C87.9842 12.5435 88.0797 12.5136 88.1872 12.5315C88.2887 12.5494 88.3783 12.6032 88.438 12.6927C88.438 12.6927 89.513 13.911 95.4312 13.911H103.905C104.114 13.911 104.282 14.0782 104.282 14.2873C104.282 14.4963 104.114 14.6635 103.905 14.6635H95.4312C90.5222 14.6635 88.7247 13.8394 88.1096 13.3915C87.2317 14.0006 86.1986 14.2992 85.1176 14.3111C84.8131 14.3111 84.4189 14.2753 84.0725 14.0723C83.8277 13.923 83.6127 13.696 83.4575 13.3974C83.2186 13.5587 82.9797 13.7199 82.7348 13.8692L82.5855 13.9648C82.2631 14.1678 81.9346 14.3709 81.6002 14.55C81.2299 14.7351 80.9373 14.8008 80.6984 14.8008ZM85.1714 10.513C84.8668 10.513 84.61 10.6324 84.3951 10.8773C84.1203 11.1878 83.9472 11.6656 83.9173 12.1254C83.977 12.0776 84.0427 12.0299 84.1024 11.9821L84.2816 11.8447C84.7295 11.4984 85.1953 11.14 85.4162 10.6862C85.4521 10.6085 85.458 10.5608 85.458 10.5488C85.3625 10.519 85.267 10.513 85.1714 10.513Z" fill="#5F5F5F"/>
<path d="M59.7968 14.801H53.3471C53.1381 14.801 52.9708 14.6338 52.9708 14.4248C52.9708 14.2158 53.1381 14.0486 53.3471 14.0486H59.7968C66.6884 14.0486 68.3963 12.6571 68.4143 12.6452C68.4979 12.5735 68.6053 12.5496 68.7069 12.5556C68.8144 12.5675 68.9099 12.6273 68.9696 12.7109C70.0625 14.2994 71.0658 13.8634 71.1016 13.8396C72.1467 13.5171 72.6424 12.3346 72.8812 11.3911C73.0962 10.555 73.2276 9.6831 73.353 8.83509C73.4784 8.01693 73.6039 7.17489 73.8069 6.35077C74.3145 4.27253 75.27 2.71983 76.5779 1.85391C76.751 1.74044 76.984 1.78821 77.0974 1.9614C77.2109 2.13458 77.1631 2.36748 76.9899 2.48095C75.5387 3.43646 74.852 5.21013 74.5355 6.52992C74.3444 7.31822 74.219 8.14831 74.0995 8.94855C73.9681 9.81448 73.8368 10.7043 73.6158 11.5762C73.2037 13.1946 72.4274 14.2218 71.3763 14.5383C71.3703 14.5442 69.9729 15.2071 68.5695 13.4335C67.7752 13.8814 65.4522 14.801 59.7968 14.801Z" fill="#5F5F5F"/>
<path d="M37.5404 62.0506L37.0268 63.6929L36.1429 63.4182L37.5344 58.993L39.1468 59.5006C39.6664 59.6678 40.0247 59.9127 40.2098 60.2471C40.3949 60.5815 40.4248 60.9637 40.2874 61.3937C40.1561 61.8177 39.9112 62.1103 39.5589 62.2716C39.2065 62.4388 38.7766 62.4388 38.2749 62.2775L37.5404 62.0506ZM39.3857 61.107C39.4573 60.8861 39.4514 60.695 39.3618 60.5397C39.2782 60.3844 39.099 60.265 38.8243 60.1754L38.1913 59.9784L37.7613 61.34L38.3943 61.537C38.9139 61.7042 39.2424 61.5609 39.3857 61.107Z" fill="#5F5F5F"/>
<path d="M46.2296 61.4892L45.5906 64.1347C45.507 64.4871 45.519 64.7737 45.6324 64.9887C45.7459 65.2037 45.9489 65.347 46.2416 65.4187C46.5342 65.4904 46.7731 65.4545 46.9761 65.3172C47.1732 65.1798 47.3165 64.935 47.4001 64.5767L48.0391 61.9311L48.9349 62.1461L48.2959 64.7916C48.1944 65.2097 48.0331 65.5441 47.8062 65.7949C47.5793 66.0458 47.3165 66.207 47.006 66.2787C46.6954 66.3503 46.367 66.3503 46.0206 66.2667C45.4772 66.1353 45.089 65.8726 44.8441 65.4665C44.5993 65.0663 44.5515 64.5528 44.7008 63.9257L45.3398 61.2802L46.2296 61.4892Z" fill="#5F5F5F"/>
<path d="M55.4563 68.1241L54.6919 66.1594L54.2918 66.0937L53.9872 67.8733L53.0735 67.7181L53.8498 63.1436L55.5937 63.4422C56.1252 63.5317 56.5073 63.7288 56.7403 64.0393C56.9732 64.3439 57.0568 64.7082 56.9851 65.1322C56.9254 65.4786 56.7821 65.7533 56.5492 65.9504C56.3163 66.1474 56.0117 66.2609 55.6355 66.2728L56.4656 68.2914L55.4563 68.1241ZM54.3933 65.4607L55.1458 65.5861C55.6653 65.6757 55.9699 65.4905 56.0475 65.0247C56.0833 64.8038 56.0475 64.6246 55.946 64.4753C55.8385 64.332 55.6534 64.2364 55.3846 64.1886L54.6322 64.0632L54.3933 65.4607Z" fill="#5F5F5F"/>
<path d="M62.9034 65.1917L62.778 66.3861L64.4083 66.5593L64.3366 67.264L62.7063 67.0908L62.5749 68.333L64.4023 68.5241L64.3247 69.2646L61.5716 68.9779L62.0554 64.3676L64.8084 64.6543L64.7308 65.3888L62.9034 65.1917Z" fill="#5F5F5F"/>
<path d="M79.4692 69.8023L78.5435 69.8083L76.4474 66.673L76.4713 69.8262L75.5456 69.8322L75.5098 65.198L76.4354 65.192L78.5316 68.3571L78.5077 65.1801L79.4333 65.1741L79.4692 69.8023Z" fill="#5F5F5F"/>
<path d="M87.5791 68.4226L85.7279 68.5659L85.4711 69.5214L84.4977 69.5991L85.8413 64.8932L86.8984 64.8096L88.9527 69.2467L87.9793 69.3243L87.5791 68.4226ZM87.2746 67.7418L86.4445 65.8427L85.913 67.8493L87.2746 67.7418Z" fill="#5F5F5F"/>
<path d="M96.3994 63.6271L96.5069 64.3557L95.2409 64.5408L95.8022 68.4047L94.8826 68.5361L94.3212 64.6722L93.0611 64.8574L92.9536 64.1288L96.3994 63.6271Z" fill="#5F5F5F"/>
<path d="M101.947 62.6L102.521 65.2575C102.598 65.6158 102.73 65.8607 102.927 66.004C103.118 66.1473 103.369 66.1891 103.661 66.1235C103.954 66.0637 104.157 65.9264 104.276 65.7114C104.396 65.5024 104.414 65.2157 104.342 64.8634L103.769 62.2059L104.671 62.0148L105.244 64.6723C105.333 65.0903 105.333 65.4606 105.238 65.7831C105.142 66.1055 104.975 66.3683 104.73 66.5654C104.485 66.7684 104.187 66.9058 103.835 66.9774C103.291 67.0969 102.819 67.0252 102.425 66.7684C102.031 66.5116 101.762 66.0697 101.631 65.4427L101.058 62.7852L101.947 62.6Z" fill="#5F5F5F"/>
<path d="M113.133 64.5767L111.592 63.1374L111.198 63.2509L111.7 64.9887L110.81 65.2455L109.526 60.7905L111.222 60.3008C111.741 60.1515 112.171 60.1634 112.512 60.3366C112.858 60.5098 113.085 60.8024 113.205 61.2145C113.3 61.5489 113.288 61.8594 113.169 62.1401C113.049 62.4208 112.822 62.6477 112.488 62.8269L114.112 64.29L113.133 64.5767ZM111.025 62.6418L111.759 62.4327C112.267 62.2834 112.458 61.9908 112.327 61.537C112.267 61.322 112.153 61.1727 111.998 61.0891C111.837 61.0055 111.628 60.9995 111.371 61.0771L110.637 61.2861L111.025 62.6418Z" fill="#5F5F5F"/>
<path d="M118.561 58.7124L118.967 59.8411L120.514 59.2857L120.753 59.9545L119.206 60.5099L119.63 61.6864L121.362 61.0653L121.613 61.764L119.009 62.6957L117.444 58.3302L120.048 57.3986L120.299 58.0913L118.561 58.7124Z" fill="#5F5F5F"/>
<path d="M85.1774 52.5018H69.7818V54.0008H85.1774V52.5018Z" fill="#5F5F5F"/>
<path d="M45.4582 13.6066C43.5233 13.523 41.3436 13.3677 39.1519 12.9378C38.7518 11.9345 38.5427 10.8595 38.3397 9.72487C38.274 9.36058 38.2083 8.9963 38.1367 8.63798C37.8381 7.17486 37.3304 5.32357 36.0286 4.00974C35.9211 3.90225 35.6464 3.62156 35.2403 3.62156C35.2343 3.62156 35.2343 3.62156 35.2283 3.62156C34.7924 3.62156 34.4281 3.92613 34.2191 4.45166C33.7533 5.65202 33.8548 6.9539 33.9742 7.83177C34.1653 9.25906 34.5177 10.346 35.079 11.2417C35.2462 11.5105 35.4373 11.7553 35.6404 11.9763C34.7685 11.6538 33.813 11.2238 32.8515 10.6565C32.7858 10.5609 32.6962 10.4893 32.5947 10.4534C32.1468 7.86163 31.6631 5.20412 30.8151 2.65411C30.5284 1.78818 30.1104 0.856563 29.1788 0.480331C28.8204 0.337005 28.4681 0.342976 28.1874 0.498246C27.7336 0.755039 27.6559 1.26265 27.6261 1.45973C27.3872 3.0602 27.7156 5.02497 28.4144 6.84641C26.9333 5.34148 25.3687 3.84253 23.4457 2.79744C22.8664 2.48093 22.0961 2.13455 21.2719 2.22413C20.9913 2.25399 20.7763 2.4869 20.7703 2.77355C20.7464 3.82461 21.3555 4.79803 22.6335 5.76548C24.6222 7.26443 27.3096 8.08259 28.4144 8.36924C28.8802 8.93657 29.3997 9.47405 29.973 9.97569C27.2439 9.47405 24.3534 9.96375 21.9527 11.4149C21.7736 11.5224 21.6721 11.7195 21.684 11.9225C21.6959 12.1256 21.8154 12.3107 22.0005 12.4003C22.9859 12.8721 24.0549 13.0214 25.1119 13.0214C25.8046 13.0214 26.4914 12.9557 27.1364 12.8721C29.1728 12.6153 30.8151 12.2092 32.2782 11.6239C33.1322 12.1256 34.0459 12.5735 35.0313 12.9497C33.8309 13.4036 32.5768 13.9411 31.5198 14.7771C30.2955 15.7446 29.5192 16.9867 29.34 18.2826C29.2504 18.9157 29.549 19.2023 29.7341 19.3158C29.8775 19.4054 30.0268 19.4352 30.1641 19.4352C30.4329 19.4352 30.6658 19.3098 30.7613 19.2561C33.1262 17.99 35.079 16.1089 36.9662 14.2934L37.5454 13.738C37.8918 13.8276 38.2322 13.9052 38.5786 13.9829C38.5905 13.9888 38.6025 13.9888 38.6204 13.9888C40.9912 14.4845 43.3382 14.6517 45.4164 14.7413C45.4224 14.7413 45.4344 14.7413 45.4403 14.7413C45.7389 14.7413 45.9897 14.5024 46.0017 14.2038C46.0136 13.8873 45.7688 13.6245 45.4582 13.6066ZM23.3084 4.85178C22.6335 4.34416 22.2036 3.86044 22.0125 3.38866C22.329 3.47226 22.6335 3.62157 22.9142 3.77684C24.2639 4.51138 25.4463 5.50869 26.5571 6.57169C25.2791 6.07602 24.1385 5.47883 23.3084 4.85178ZM35.2642 4.85775C35.2642 4.85178 35.2642 4.85178 35.2701 4.84581C36.3391 5.95061 36.775 7.569 37.0318 8.86491C37.1035 9.21726 37.1692 9.57557 37.2349 9.93389C37.3663 10.6565 37.4977 11.397 37.6947 12.1196C37.0498 11.8449 36.4585 11.3313 36.0286 10.6386C35.5568 9.88611 35.2522 8.94255 35.085 7.6765C34.9238 6.4642 34.9775 5.59827 35.2642 4.85775ZM28.7368 1.61499C28.7428 1.57319 28.7488 1.53736 28.7548 1.51347C29.2564 1.71652 29.5371 2.3794 29.7401 2.99451C30.4448 5.13246 30.8987 7.37791 31.2928 9.58752C31.2809 9.57557 31.2689 9.5696 31.257 9.55766C29.4893 7.49137 28.3845 4.02168 28.7368 1.61499ZM26.993 11.7494C25.942 11.8807 24.7775 11.9703 23.6965 11.7613C25.721 10.8834 28.0501 10.6565 30.194 11.1342C29.2445 11.397 28.1874 11.5941 26.993 11.7494ZM30.5165 18.1035C30.7315 17.2137 31.3287 16.3537 32.2185 15.655C33.1083 14.9563 34.1534 14.4845 35.4433 13.9948C35.5627 13.953 35.6762 13.9052 35.7897 13.8694C34.1594 15.4221 32.4633 16.9987 30.5165 18.1035Z" fill="#5F5F5F"/>
<path d="M134.589 11.3969C132.189 9.94576 129.304 9.45606 126.569 9.9577C127.142 9.45606 127.662 8.91858 128.128 8.35125C129.232 8.0646 131.914 7.24644 133.908 5.74749C135.186 4.78601 135.796 3.80662 135.772 2.75556C135.766 2.47488 135.551 2.236 135.27 2.20614C134.434 2.12253 133.67 2.4689 133.096 2.77944C131.173 3.82453 129.609 5.31752 128.128 6.82841C128.826 5.00698 129.155 3.04818 128.916 1.4477C128.886 1.2566 128.814 0.743015 128.355 0.486223C128.074 0.330953 127.722 0.324981 127.363 0.468308C126.432 0.844539 126.014 1.77616 125.733 2.64209C124.891 5.18613 124.407 7.84961 123.953 10.4414C123.846 10.4773 123.762 10.5549 123.697 10.6504C122.735 11.2178 121.779 11.6478 120.908 11.9702C121.111 11.7433 121.296 11.4985 121.463 11.2357C122.024 10.3399 122.377 9.25302 122.568 7.82573C122.687 6.94785 122.789 5.64597 122.323 4.44561C122.114 3.91411 121.726 3.59163 121.302 3.61552C120.896 3.62149 120.621 3.90216 120.513 4.00369C119.206 5.32348 118.698 7.16881 118.399 8.63193C118.328 8.99622 118.262 9.36051 118.196 9.72479C117.993 10.8595 117.784 11.9284 117.384 12.9317C115.192 13.3617 113.013 13.517 111.078 13.6006C110.767 13.6125 110.528 13.8753 110.54 14.1858C110.552 14.4904 110.803 14.7233 111.102 14.7233C111.108 14.7233 111.12 14.7233 111.126 14.7233C113.204 14.6337 115.551 14.4665 117.922 13.9708C117.934 13.9708 117.946 13.9649 117.957 13.9649C118.304 13.8932 118.644 13.8096 118.991 13.72L119.564 14.2694C121.451 16.0849 123.404 17.9661 125.769 19.2321C125.864 19.2858 126.097 19.4053 126.366 19.4053C126.503 19.4053 126.653 19.3754 126.796 19.2859C126.981 19.1724 127.28 18.8917 127.19 18.2587C127.011 16.9687 126.235 15.7206 125.01 14.7532C123.953 13.9231 122.699 13.3856 121.499 12.9257C122.478 12.5495 123.392 12.1076 124.246 11.606C125.709 12.1912 127.357 12.5853 129.4 12.8481C130.045 12.9317 130.731 12.9974 131.424 12.9974C132.475 12.9974 133.55 12.8481 134.53 12.3763C134.715 12.2868 134.84 12.1016 134.846 11.8986C134.87 11.7015 134.768 11.5044 134.589 11.3969ZM133.634 3.77676C133.914 3.62746 134.219 3.47219 134.53 3.38858C134.338 3.86036 133.902 4.34409 133.228 4.8517C132.398 5.47875 131.257 6.07595 129.985 6.57162C131.102 5.50264 132.29 4.51131 133.634 3.77676ZM126.802 2.99443C127.005 2.37335 127.28 1.71644 127.787 1.51339C127.793 1.53728 127.799 1.57311 127.805 1.61492C128.158 4.0216 127.053 7.49129 125.279 9.56355C125.267 9.56952 125.255 9.58147 125.243 9.58744C125.643 7.37783 126.097 5.13238 126.802 2.99443ZM119.307 9.93381C119.373 9.5755 119.439 9.21718 119.51 8.86483C119.773 7.5749 120.209 5.95651 121.278 4.84573C121.278 4.8517 121.278 4.85171 121.284 4.85768C121.57 5.59222 121.624 6.46412 121.463 7.6824C121.296 8.94247 120.997 9.88604 120.519 10.6445C120.095 11.3253 119.498 11.8448 118.853 12.1195C119.044 11.391 119.176 10.6504 119.307 9.93381ZM126.032 18.1034C124.079 16.9986 122.383 15.428 120.752 13.8574C120.866 13.8992 120.985 13.941 121.105 13.9887C122.401 14.4784 123.446 14.9502 124.33 15.6489C125.219 16.3536 125.817 17.2136 126.032 18.1034ZM129.549 11.7493C128.349 11.6 127.298 11.3969 126.348 11.1401C128.492 10.6624 130.827 10.8833 132.845 11.7672C131.771 11.9702 130.606 11.8807 129.549 11.7493Z" fill="#5F5F5F"/>
<path d="M2.55017 39.0114C3.95851 39.0114 5.10018 37.8697 5.10018 36.4614C5.10018 35.0531 3.95851 33.9114 2.55017 33.9114C1.14184 33.9114 0.000167847 35.0531 0.000167847 36.4614C0.000167847 37.8697 1.14184 39.0114 2.55017 39.0114Z" fill="#5F5F5F"/>
<path d="M149.961 39.0114C151.369 39.0114 152.511 37.8697 152.511 36.4614C152.511 35.0531 151.369 33.9114 149.961 33.9114C148.553 33.9114 147.411 35.0531 147.411 36.4614C147.411 37.8697 148.553 39.0114 149.961 39.0114Z" fill="#5F5F5F"/>
</svg>
