<svg width="106" height="105" viewBox="0 0 106 105" fill="none" xmlns="http://www.w3.org/2000/svg">
<path d="M11.3433 77.9032C11.6763 77.8704 11.993 77.936 12.2988 78.0998C12.6045 78.2581 12.8775 78.5147 13.1123 78.8587L13.8876 79.9944L10.6881 82.1729L9.91279 81.0372C9.67801 80.6878 9.53605 80.3438 9.49783 80.0053C9.45961 79.6613 9.51417 79.3446 9.66159 79.0498C9.80901 78.755 10.0493 78.4983 10.3659 78.2799C10.6881 78.0561 11.0157 77.936 11.3433 77.9032ZM11.7637 78.684C11.4525 78.6185 11.1358 78.6949 10.8082 78.9188C10.4806 79.1426 10.2895 79.4102 10.2349 79.7214C10.1803 80.0326 10.2731 80.3602 10.5079 80.7041L10.8082 81.1464L12.8775 79.7378L12.5772 79.2955C12.3479 78.957 12.0749 78.755 11.7637 78.684Z" fill="#5F5F5F"/>
<path d="M6.91528 74.7692L7.81072 74.3214L7.19921 73.093L7.7288 72.8309L8.34031 74.0594L9.27394 73.5953L8.59145 72.2194L9.1429 71.9409L10.1694 74.0048L6.7078 75.7301L5.68134 73.6663L6.23279 73.3933L6.91528 74.7692Z" fill="#5F5F5F"/>
<path d="M6.44007 66.4155C6.63117 66.4537 6.8004 66.5465 6.95874 66.6994C7.11708 66.8468 7.24269 67.0543 7.33551 67.3164C7.42287 67.573 7.46106 67.8242 7.44468 68.0535C7.4283 68.2882 7.35731 68.4957 7.23174 68.6759C7.10616 68.8561 6.93694 68.9926 6.724 69.0854L6.4564 68.3101C6.59836 68.2391 6.70213 68.1408 6.76219 68.0043C6.82771 67.8678 6.82771 67.7149 6.76766 67.5457C6.71306 67.3928 6.63658 67.2891 6.52738 67.2399C6.41819 67.1908 6.29812 67.1853 6.17254 67.229C6.05789 67.2672 5.97595 67.3328 5.92681 67.4256C5.87767 67.5184 5.84495 67.6221 5.83403 67.7368C5.82311 67.8514 5.81764 68.0098 5.8231 68.2063C5.8231 68.463 5.81761 68.6704 5.79031 68.8452C5.76847 69.0144 5.70296 69.1782 5.59376 69.3256C5.48456 69.4785 5.32074 69.5932 5.09142 69.6696C4.78021 69.7788 4.49086 69.7515 4.22878 69.5877C3.9667 69.4239 3.77564 69.1564 3.6446 68.7851C3.5081 68.3974 3.49714 68.0589 3.60634 67.7641C3.71008 67.4693 3.91755 67.2563 4.21785 67.1144L4.49085 67.9006C4.36527 67.9661 4.27791 68.0589 4.22332 68.179C4.16872 68.2992 4.16872 68.4357 4.22332 68.5885C4.26699 68.725 4.34345 68.8179 4.44173 68.8779C4.54 68.938 4.66013 68.9434 4.79117 68.8943C4.90037 68.8561 4.97677 68.796 5.02591 68.7087C5.07505 68.6213 5.10236 68.5176 5.11328 68.4029C5.1242 68.2882 5.12968 68.1354 5.12422 67.9497C5.12422 67.6877 5.1351 67.4693 5.15694 67.2945C5.17878 67.1253 5.24436 66.9615 5.35356 66.8086C5.46275 66.6557 5.63198 66.5356 5.86676 66.4537C6.05785 66.3882 6.24898 66.3718 6.44007 66.4155Z" fill="#5F5F5F"/>
<path d="M1.99042 62.681L5.76324 61.8347L5.93246 62.5882L2.15964 63.4345L1.99042 62.681Z" fill="#5F5F5F"/>
<path d="M1.25337 55.5285C1.45539 55.1955 1.74476 54.9662 2.13241 54.8406L2.20886 55.6486C2.0396 55.7415 1.91398 55.878 1.82663 56.0527C1.73927 56.2274 1.70654 56.4294 1.72838 56.6533C1.75022 56.8771 1.82121 57.0682 1.93586 57.2266C2.05598 57.3904 2.21432 57.505 2.41087 57.5815C2.60743 57.6579 2.83674 57.6852 3.0879 57.6579C3.49193 57.6197 3.79765 57.4777 3.99966 57.2429C4.20168 57.0027 4.28908 56.6969 4.25086 56.3257C4.22356 56.0472 4.11978 55.8179 3.93415 55.6377C3.74851 55.4575 3.5083 55.3483 3.21347 55.321L3.33903 56.626L2.78758 56.6806L2.59649 54.7314L3.33903 54.6604C3.60111 54.6877 3.84133 54.7751 4.07611 54.9116C4.30543 55.048 4.49655 55.2391 4.65489 55.4848C4.80777 55.7251 4.90605 56.0145 4.93335 56.3475C4.97157 56.7242 4.92242 57.0682 4.78592 57.374C4.64943 57.6797 4.44194 57.9254 4.15802 58.1111C3.87957 58.2967 3.54654 58.4114 3.16435 58.4496C2.78215 58.4878 2.43816 58.4387 2.12148 58.3131C1.81027 58.182 1.55364 57.9855 1.36255 57.7125C1.16599 57.445 1.05132 57.1174 1.0131 56.7406C0.974884 56.2602 1.05136 55.8616 1.25337 55.5285Z" fill="#5F5F5F"/>
<path d="M4.82404 47.6279L4.78585 48.3977L2.07229 49.9975L4.69847 50.1285L4.66028 50.8984L0.794617 50.7073L0.832873 49.9374L3.5683 48.3377L0.920251 48.2066L0.958441 47.4368L4.82404 47.6279Z" fill="#5F5F5F"/>
<path d="M6.8881 37.1886L6.05818 37.5653C6.11824 37.6145 6.16739 37.6527 6.20015 37.6854C6.3421 37.7946 6.4404 37.9421 6.495 38.1277C6.5496 38.3133 6.54413 38.5153 6.48407 38.7228C6.41309 38.9576 6.30937 39.1487 6.15649 39.2961C6.00907 39.4435 5.83432 39.5418 5.63776 39.5855C5.4412 39.6292 5.23378 39.6237 5.01539 39.5582C4.80245 39.4981 4.62768 39.3999 4.48572 39.2688C4.34923 39.1378 4.2564 38.9904 4.20726 38.8211C4.15812 38.6518 4.15812 38.4826 4.2018 38.3024L4.08716 38.3352C3.96704 38.3788 3.85785 38.4007 3.74865 38.4116C3.63945 38.4225 3.52479 38.4116 3.41014 38.3734C3.25726 38.3297 3.1317 38.2478 3.0225 38.1332C2.9133 38.0185 2.84232 37.8656 2.80956 37.6854C2.77134 37.5053 2.78769 37.3087 2.85321 37.0903C2.94603 36.7791 3.08254 36.5552 3.27364 36.4297C3.46473 36.2986 3.6777 36.244 3.91247 36.2604C4.02713 36.2549 4.14726 36.2713 4.26191 36.3041L4.36016 36.3368L4.15814 37.0248C4.07078 36.9975 4.01075 36.9866 3.97799 36.9811C3.85241 36.9483 3.74316 36.9538 3.65581 37.0029C3.56845 37.0521 3.50841 37.134 3.47019 37.2541C3.43743 37.3633 3.44291 37.4561 3.49205 37.538C3.53573 37.6199 3.6067 37.6745 3.69406 37.7018C3.77596 37.7237 3.84696 37.7291 3.91794 37.7127C3.98346 37.6964 4.07627 37.6691 4.18547 37.6199L7.11198 36.4187L6.8881 37.1886ZM5.83437 38.1277C5.76885 38.0021 5.66507 37.9202 5.51766 37.8765C5.36478 37.8329 5.21741 37.8492 5.08637 37.9311C4.94987 38.013 4.86245 38.1277 4.81877 38.2806C4.77509 38.4225 4.78604 38.5536 4.8461 38.6737C4.90616 38.7938 5.01535 38.8757 5.17914 38.9194C5.34294 38.9685 5.48492 38.9521 5.6105 38.8757C5.73608 38.7993 5.82342 38.6846 5.8671 38.5372C5.91078 38.3898 5.89989 38.2533 5.83437 38.1277Z" fill="#5F5F5F"/>
<path d="M10.0111 26.1814C10.2295 26.1432 10.4425 26.1814 10.6499 26.2961C10.9339 26.4544 11.1031 26.6783 11.1631 26.9567C11.2232 27.2406 11.1468 27.5573 10.9448 27.9177L10.1313 29.3645L6.75702 27.4699L7.55415 26.0504C7.74524 25.7118 7.96915 25.488 8.22031 25.3897C8.47146 25.2914 8.73351 25.3187 9.0065 25.4716C9.21398 25.5917 9.35595 25.7391 9.43239 25.9248C9.50337 26.1104 9.50885 26.3015 9.45425 26.5035C9.60713 26.3288 9.79271 26.2196 10.0111 26.1814ZM8.54789 27.5955L8.8864 26.9895C8.97922 26.8202 9.01741 26.6728 8.99011 26.5418C8.96281 26.4107 8.88093 26.307 8.73897 26.2305C8.59701 26.1541 8.46599 26.1323 8.34041 26.1759C8.21483 26.2196 8.10563 26.3288 8.0019 26.509L7.66885 27.1041L8.54789 27.5955ZM10.4315 27.2734C10.4097 27.1314 10.3223 27.0222 10.1695 26.9403C10.022 26.8584 9.87462 26.8421 9.74358 26.8912C9.60708 26.9458 9.48695 27.0604 9.38867 27.2352L9.03383 27.8685L9.96199 28.3872L10.3224 27.7484C10.4206 27.5682 10.4588 27.4099 10.4315 27.2734Z" fill="#5F5F5F"/>
<path d="M14.7664 22.2011L13.0192 22.0154L12.8171 22.2884L14.0184 23.1948L13.5542 23.8117L10.4694 21.4749L11.3594 20.301C11.6324 19.9407 11.9218 19.7332 12.2384 19.6786C12.5551 19.624 12.8554 19.7004 13.1447 19.9188C13.3795 20.0935 13.5215 20.3065 13.5815 20.5576C13.6416 20.8088 13.6034 21.0709 13.4724 21.3548L15.285 21.5186L14.7664 22.2011ZM12.3913 21.9608L12.7735 21.4531C13.041 21.0982 13.0192 20.8088 12.708 20.5686C12.5606 20.4539 12.4131 20.4102 12.2602 20.4321C12.1128 20.4539 11.9709 20.5576 11.8344 20.7378L11.4522 21.2456L12.3913 21.9608Z" fill="#5F5F5F"/>
<path d="M18.7082 16.6209L17.6326 17.7347L18.0038 18.4718L17.4361 19.0615L15.6779 15.376L16.2894 14.7427L20.0241 16.3861L19.4562 16.9703L18.7082 16.6209ZM18.1458 16.3643L16.5788 15.6381L17.3541 17.1833L18.1458 16.3643Z" fill="#5F5F5F"/>
<path d="M25.2982 12.1822L24.6812 12.6463L21.722 11.5761L23.2945 13.6837L22.6775 14.1478L20.3625 11.052L20.9795 10.5879L23.9551 11.6744L22.3662 9.55051L22.9832 9.08643L25.2982 12.1822Z" fill="#5F5F5F"/>
<path d="M30.7914 7.8524C30.7859 8.18545 30.6931 8.49667 30.502 8.78604C30.3109 9.07542 30.0324 9.31565 29.6611 9.51767L28.4491 10.1729L26.6091 6.76587L27.8212 6.11068C28.1924 5.90867 28.5474 5.81039 28.8913 5.80493C29.2353 5.79947 29.5465 5.88682 29.825 6.067C30.1034 6.24718 30.3382 6.5038 30.5184 6.84777C30.704 7.18083 30.7968 7.51934 30.7914 7.8524ZM29.9669 8.19091C30.0652 7.89061 30.0161 7.56302 29.8304 7.21904C29.6393 6.86961 29.3936 6.65122 29.0879 6.56386C28.7821 6.48196 28.4491 6.53656 28.0833 6.73311L27.6083 6.98973L28.7985 9.19554L29.268 8.93892C29.6393 8.74236 29.8687 8.4912 29.9669 8.19091Z" fill="#5F5F5F"/>
<path d="M34.0837 3.21704L35.4978 6.82059L34.7771 7.1045L33.363 3.50096L34.0837 3.21704Z" fill="#5F5F5F"/>
<path d="M42.2355 4.7621L41.4875 4.9532L39.1561 2.84022L39.8113 5.38453L39.0633 5.57563L38.0969 1.83013L38.8449 1.63903L41.1872 3.77386L40.521 1.2077L41.269 1.0166L42.2355 4.7621Z" fill="#5F5F5F"/>
<path d="M48.4925 0.241228C48.8256 0.437785 49.0548 0.73262 49.1859 1.11481L48.3778 1.19671C48.285 1.02746 48.1485 0.901877 47.9738 0.819978C47.7991 0.732619 47.5971 0.699861 47.3732 0.727161C47.1548 0.749 46.9637 0.819979 46.7999 0.940097C46.6416 1.06022 46.5214 1.21855 46.4505 1.41511C46.374 1.61167 46.3522 1.84098 46.3795 2.0976C46.4232 2.50163 46.5651 2.80193 46.8054 3.00394C47.0456 3.20596 47.3514 3.28786 47.7281 3.24964C48.0011 3.22234 48.2304 3.11314 48.4106 2.92751C48.5908 2.74187 48.6945 2.50163 48.7218 2.2068L47.4169 2.3433L47.3623 1.79185L49.306 1.58983L49.3824 2.33238C49.3551 2.59445 49.2733 2.84015 49.1368 3.06947C49.0003 3.29878 48.8146 3.49534 48.5689 3.64822C48.3287 3.80109 48.0393 3.89937 47.7117 3.93213C47.335 3.97035 46.991 3.92121 46.6853 3.79017C46.3795 3.65368 46.1284 3.4462 45.9427 3.16774C45.7516 2.88929 45.637 2.55623 45.5987 2.17404C45.5605 1.79185 45.5987 1.44787 45.7298 1.13119C45.8554 0.819978 46.0574 0.563365 46.3249 0.366808C46.5924 0.170251 46.92 0.0501321 47.2968 0.0119126C47.7609 -0.0317667 48.1649 0.0446711 48.4925 0.241228Z" fill="#5F5F5F"/>
<path d="M60.8429 102.91L61.0831 104.324L60.3187 104.455L59.6745 100.638L61.0613 100.404C61.509 100.327 61.8694 100.376 62.1369 100.556C62.4045 100.737 62.5682 101.01 62.6283 101.381C62.6883 101.747 62.6228 102.052 62.4208 102.309C62.2188 102.566 61.9021 102.73 61.4708 102.806L60.8429 102.91ZM61.8585 101.512C61.8257 101.321 61.7492 101.184 61.6291 101.102C61.509 101.021 61.3288 100.999 61.0886 101.037L60.5426 101.13L60.7392 102.304L61.2851 102.211C61.7329 102.129 61.924 101.9 61.8585 101.512Z" fill="#5F5F5F"/>
<path d="M68.8962 102.473L67.5912 101.294L67.2636 101.392L67.7004 102.833L66.9633 103.057L65.8386 99.3553L67.2473 98.9239C67.6786 98.7929 68.0389 98.7984 68.3283 98.9403C68.6177 99.0823 68.8142 99.3225 68.918 99.6665C69.0053 99.945 68.9944 100.202 68.8962 100.442C68.7979 100.677 68.6122 100.873 68.3392 101.026L69.7152 102.222L68.8962 102.473ZM67.1108 100.884L67.7168 100.698C68.1372 100.567 68.2955 100.316 68.1809 99.9449C68.1263 99.7648 68.0335 99.6446 67.897 99.5737C67.7659 99.5081 67.5858 99.5027 67.3728 99.5682L66.7668 99.7538L67.1108 100.884Z" fill="#5F5F5F"/>
<path d="M72.8111 97.5149L73.2206 98.4321L74.471 97.8752L74.7112 98.4158L73.4609 98.9727L73.8867 99.9227L75.29 99.2948L75.5411 99.8626L73.4336 100.802L71.8557 97.2692L73.9632 96.3301L74.2144 96.8924L72.8111 97.5149Z" fill="#5F5F5F"/>
<path d="M80.673 92.5361L82.704 95.7793L82.0543 96.1888L80.6402 93.9284L81.2244 96.713L80.6566 97.0679L78.4126 95.3371L79.8212 97.592L79.166 98.0015L77.1349 94.7583L77.9266 94.2615L80.4382 96.0851L79.8758 93.0439L80.673 92.5361Z" fill="#5F5F5F"/>
<path d="M84.2004 89.7622L86.6464 92.7597L86.0458 93.2511L83.5998 90.2536L84.2004 89.7622Z" fill="#5F5F5F"/>
<path d="M87.5037 86.7755L89.1362 88.3535C89.3546 88.5664 89.5621 88.6756 89.7641 88.6865C89.9661 88.6974 90.1572 88.6101 90.3319 88.4299C90.5012 88.2497 90.5831 88.0641 90.5667 87.8621C90.5503 87.66 90.4357 87.4526 90.2173 87.2451L88.5902 85.6672L89.1253 85.1157L90.7578 86.6936C91.0144 86.9448 91.1837 87.2014 91.2711 87.4689C91.353 87.7365 91.3584 87.9986 91.282 88.2497C91.2056 88.5009 91.0636 88.7356 90.8561 88.954C90.534 89.2871 90.1736 89.4564 89.7805 89.4618C89.3874 89.4673 88.9997 89.2871 88.6121 88.9104L86.985 87.3324L87.5037 86.7755Z" fill="#5F5F5F"/>
<path d="M94.001 78.9897L97.0967 81.2338L96.6436 81.8562L94.4815 80.2892L96.0648 82.6479L95.6717 83.1884L92.9472 82.424L95.0984 83.9856L94.6452 84.608L91.5495 82.364L92.101 81.6051L95.1093 82.3531L93.4495 79.7432L94.001 78.9897Z" fill="#5F5F5F"/>
<path d="M103.108 71.0837L102.212 71.3676C102.19 71.5151 102.147 71.6734 102.081 71.8372C101.945 72.1702 101.743 72.4432 101.475 72.6562C101.208 72.8637 100.902 72.9892 100.558 73.0329C100.214 73.0766 99.8646 73.0275 99.5152 72.88C99.1657 72.7381 98.8818 72.5306 98.6634 72.2576C98.4505 71.9846 98.3194 71.6843 98.2758 71.3458C98.2321 71.0127 98.2758 70.6742 98.4123 70.3412C98.5488 70.0081 98.7508 69.7351 99.0183 69.5276C99.2858 69.3202 99.5916 69.1946 99.9356 69.1509C100.28 69.1072 100.623 69.1564 100.978 69.2983C101.306 69.4294 101.579 69.6205 101.787 69.8662C101.999 70.1119 102.136 70.3849 102.201 70.6906L103.468 70.2211L103.108 71.0837ZM100.482 72.2685C100.695 72.2522 100.88 72.1812 101.044 72.0611C101.202 71.9409 101.328 71.7771 101.41 71.5642C101.497 71.3567 101.524 71.1492 101.492 70.9527C101.459 70.7561 101.377 70.576 101.235 70.4122C101.093 70.2484 100.902 70.1228 100.667 70.0245C100.432 69.9262 100.203 69.888 99.9902 69.9044C99.7772 69.9208 99.5916 69.9917 99.4278 70.1119C99.2695 70.232 99.1439 70.3958 99.062 70.6087C98.9747 70.8162 98.9473 71.0237 98.9801 71.2202C99.0074 71.4168 99.0947 71.597 99.2367 71.7608C99.3787 71.9246 99.5643 72.0501 99.8046 72.1484C100.045 72.2467 100.269 72.2849 100.482 72.2685Z" fill="#5F5F5F"/>
<path d="M100.444 64.4609L102.644 65.0124C102.939 65.0833 103.174 65.0779 103.354 64.9851C103.534 64.8922 103.655 64.723 103.715 64.4773C103.775 64.2371 103.747 64.035 103.633 63.8658C103.518 63.702 103.316 63.5819 103.021 63.5054L100.821 62.954L101.006 62.2114L103.207 62.7629C103.556 62.8502 103.829 62.9867 104.037 63.1778C104.244 63.3689 104.375 63.5928 104.435 63.8494C104.495 64.106 104.49 64.3845 104.419 64.6738C104.304 65.1216 104.08 65.4491 103.747 65.6512C103.409 65.8532 102.983 65.8914 102.459 65.7604L100.258 65.2089L100.444 64.4609Z" fill="#5F5F5F"/>
<path d="M104.981 56.5932L104.812 58.1329L105.554 58.4878L105.467 59.3013L101.82 57.4722L101.912 56.5932L105.871 55.594L105.783 56.4075L104.981 56.5932ZM104.38 56.7351L102.693 57.1282L104.255 57.8708L104.38 56.7351Z" fill="#5F5F5F"/>
<path d="M105.39 50.9312L105.369 49.6318L105.958 49.6208L105.991 51.6902L102.125 51.7557L102.114 50.9804L105.39 50.9312Z" fill="#5F5F5F"/>
<path d="M101.727 45.444L105.571 44.9908L105.663 45.7607L101.82 46.2139L101.727 45.444Z" fill="#5F5F5F"/>
<path d="M100.553 39.209L101.153 39.0725L101.388 40.1154L104.56 39.3946L104.73 40.1481L101.558 40.8688L101.792 41.9062L101.192 42.0427L100.553 39.209Z" fill="#5F5F5F"/>
<path d="M98.5055 32.99L101.317 33.3503L102.589 32.8862L102.857 33.6179L101.585 34.082L99.6739 36.184L99.3681 35.3487L100.673 33.9946L98.8003 33.809L98.5055 32.99Z" fill="#5F5F5F"/>
<path d="M35.0337 47.4747C34.9682 47.4365 34.9354 47.3874 34.9354 47.3273C34.9354 47.1963 35.05 47.1089 35.2848 47.0598C35.5851 47.0052 35.7926 46.896 35.9072 46.7431C36.0219 46.5902 36.0819 46.3828 36.0819 46.1261V44.4772C36.0819 44.2042 36.0492 43.9749 35.9837 43.7948C35.9182 43.6146 35.8199 43.4071 35.6834 43.1832L34.0945 40.7481C33.958 40.5406 33.827 40.3714 33.696 40.2458C33.5649 40.1202 33.3902 40.0274 33.1773 39.9728C33.0899 39.9401 33.0244 39.9073 32.9807 39.8745C32.9371 39.8418 32.9152 39.7926 32.9152 39.7162C32.9152 39.6616 32.9371 39.6179 32.9807 39.5852C33.0244 39.5524 33.079 39.536 33.1445 39.536C33.3192 39.536 33.5158 39.5415 33.7342 39.5524C33.9471 39.5633 34.1055 39.5688 34.2147 39.5688C34.5477 39.5906 34.8862 39.607 35.2302 39.607C35.3503 39.607 35.4923 39.6015 35.6452 39.5961C35.8035 39.5906 35.9236 39.5797 36.0164 39.5742C36.3713 39.5415 36.6553 39.5251 36.8627 39.5251C36.9337 39.5251 37.0102 39.5415 37.0811 39.5797C37.1521 39.6179 37.1903 39.6561 37.1903 39.7053C37.1903 39.8254 37.0757 39.9128 36.8518 39.9728C36.5952 40.0274 36.415 40.0875 36.3167 40.153C36.2185 40.2185 36.1693 40.3168 36.1693 40.4533C36.1693 40.5843 36.213 40.7263 36.3003 40.8792L37.5725 43.0467C37.6271 43.1505 37.6927 43.2051 37.7636 43.2051C37.8182 43.2051 37.8783 43.1505 37.9438 43.0467C38.3697 42.2824 38.73 41.578 39.0194 40.9392C39.1013 40.7645 39.1395 40.6062 39.1395 40.4806C39.1395 40.3277 39.0686 40.2076 38.9321 40.1257C38.7956 40.0438 38.6318 39.9892 38.4461 39.9728C38.3588 39.9674 38.2768 39.9346 38.2004 39.88C38.1239 39.8254 38.0857 39.7708 38.0857 39.7053C38.0857 39.6561 38.1239 39.6179 38.1949 39.5852C38.2659 39.5524 38.3478 39.536 38.4352 39.536C38.67 39.536 38.8938 39.5469 39.1122 39.5742C39.3852 39.5906 39.5982 39.5961 39.7401 39.5961C39.8548 39.5961 40.0404 39.5797 40.297 39.5469C40.5537 39.5142 40.7775 39.4978 40.9631 39.4978C41.2034 39.4978 41.3289 39.5688 41.3289 39.7053C41.3289 39.7708 41.3071 39.8145 41.2634 39.8472C41.2197 39.8745 41.1706 39.8964 41.116 39.9128C41.0614 39.9291 41.0286 39.9401 41.0123 39.951C40.7775 40.0165 40.57 40.1148 40.3898 40.2458C40.2096 40.3768 40.0677 40.5352 39.9694 40.7099C39.6964 41.1631 39.4835 41.4961 39.3416 41.7145C38.9048 42.4352 38.6153 42.9157 38.4679 43.1559C38.2441 43.5491 38.1294 43.9531 38.1294 44.3571V46.1152C38.1294 46.421 38.184 46.6339 38.2878 46.7486C38.3915 46.8632 38.6045 46.967 38.9266 47.0598C39.0467 47.0926 39.1341 47.1253 39.1941 47.1581C39.2487 47.1908 39.276 47.24 39.276 47.3164C39.276 47.371 39.2433 47.4201 39.1832 47.4638C39.1231 47.502 39.0467 47.5239 38.9593 47.5239C38.7901 47.5239 38.4625 47.5075 37.9766 47.4747C37.5234 47.442 37.2231 47.4256 37.0702 47.4256C36.9228 47.4256 36.6334 47.442 36.1966 47.4747C35.8308 47.513 35.5196 47.5348 35.2521 47.5348C35.1811 47.5348 35.0992 47.5184 35.0337 47.4747Z" fill="#5F5F5F"/>
<path d="M45.719 47.1309C45.0693 46.7979 44.5506 46.3283 44.163 45.7223C43.7753 45.1162 43.5842 44.4283 43.5842 43.653C43.5842 42.9104 43.7535 42.217 44.092 41.5728C44.4305 40.9285 44.9273 40.4098 45.588 40.0167C46.2432 39.6236 47.0294 39.427 47.9303 39.427C48.6783 39.427 49.3826 39.5963 50.0324 39.9293C50.6821 40.2624 51.2008 40.7374 51.5884 41.338C51.9761 41.944 52.1672 42.632 52.1672 43.4073C52.1672 44.1498 51.9979 44.8432 51.6594 45.4875C51.3209 46.1318 50.824 46.6505 50.1634 47.0436C49.5027 47.4367 48.722 47.6333 47.8211 47.6333C47.0731 47.6333 46.3687 47.4695 45.719 47.1309ZM49.4754 46.241C49.8085 45.6895 49.9778 44.9579 49.9778 44.0352C49.9778 43.3472 49.8958 42.6975 49.732 42.086C49.5682 41.4745 49.3117 40.9722 48.9677 40.5845C48.6237 40.1969 48.1978 40.0058 47.69 40.0058C47.0676 40.0058 46.5926 40.2788 46.265 40.8302C45.9374 41.3817 45.7736 42.1078 45.7736 43.0196C45.7736 43.6967 45.8555 44.3464 46.0193 44.9634C46.1831 45.5803 46.4398 46.0881 46.7783 46.4758C47.1168 46.8689 47.5372 47.0654 48.0395 47.0654C48.6619 47.0654 49.1424 46.7924 49.4754 46.241Z" fill="#5F5F5F"/>
<path d="M57.081 46.7542C56.4859 46.17 56.191 45.3729 56.191 44.3628V40.9722C56.191 40.7483 56.1364 40.5354 56.0272 40.3497C55.918 40.1587 55.7597 40.0385 55.5631 39.9785C55.3447 39.9239 55.2355 39.8311 55.2355 39.7109C55.2355 39.6563 55.2683 39.6127 55.3283 39.5799C55.3884 39.5471 55.4648 39.5308 55.5522 39.5308C55.8361 39.5308 56.1255 39.5417 56.4258 39.569C56.797 39.5854 57.0591 39.5908 57.212 39.5908C57.3649 39.5908 57.6488 39.5854 58.0692 39.569C58.506 39.5526 58.8118 39.5471 58.992 39.5471C59.1994 39.5471 59.3086 39.6072 59.3086 39.7273C59.3086 39.7928 59.2758 39.842 59.2103 39.8857C59.1448 39.9239 59.0629 39.9621 58.9592 40.0003C58.8554 40.0385 58.7736 40.0713 58.7135 40.1041C58.4132 40.2515 58.2657 40.5627 58.2657 41.0486V44.1717C58.2657 44.9306 58.4405 45.5039 58.7845 45.897C59.1339 46.2901 59.5707 46.4867 60.1057 46.4867C60.8264 46.4867 61.3616 46.2792 61.711 45.8697C62.0604 45.4602 62.2351 44.816 62.2351 43.9424C62.2351 43.6039 62.2406 43.3418 62.246 43.1561L62.257 42.2498C62.257 41.9932 62.2515 41.8076 62.246 41.6929C62.2406 41.3052 62.2133 41.0104 62.1696 40.8029C62.1259 40.5954 62.0604 40.4371 61.9676 40.3334C61.8802 40.2242 61.7437 40.1259 61.569 40.0385C61.5144 40.0058 61.438 39.9785 61.3506 39.9457C61.2633 39.9184 61.1923 39.8857 61.1431 39.8529C61.094 39.8201 61.0722 39.7819 61.0722 39.7328C61.0722 39.6127 61.1923 39.5526 61.438 39.5526C61.6891 39.5526 61.9403 39.5635 62.2024 39.5744L62.661 39.5854C62.8084 39.5854 62.9831 39.5799 63.1961 39.5635C63.4035 39.5471 63.6001 39.5417 63.7749 39.5417C63.9769 39.5417 64.0806 39.6017 64.0806 39.7219C64.0806 39.8365 63.9769 39.9239 63.7639 39.9894C63.4909 40.0713 63.2943 40.1969 63.1851 40.3661C63.0705 40.5354 63.0104 40.7756 62.9941 41.0923C62.9558 42.0696 62.934 43.1288 62.934 44.2645C62.934 44.9197 62.7866 45.5039 62.4972 46.0117C62.2078 46.5249 61.8147 46.9235 61.3179 47.2129C60.821 47.4968 60.2696 47.6442 59.6635 47.6442C58.5333 47.6333 57.6761 47.3439 57.081 46.7542Z" fill="#5F5F5F"/>
<path d="M73.2039 47.4038C72.849 47.1963 72.5269 46.8961 72.2376 46.5084C71.9482 46.1153 71.6861 45.7331 71.4622 45.3673C71.2384 45.0015 71.02 44.592 70.8071 44.1333C70.7252 43.9586 70.6269 43.833 70.5177 43.7675C70.4303 43.7129 70.332 43.6856 70.2283 43.6856C70.1464 43.6856 70.1082 43.7675 70.1082 43.9259V46.2736C70.1082 46.5139 70.1737 46.6831 70.3102 46.7814C70.4412 46.8797 70.6924 46.967 71.0527 47.0489C71.1346 47.0653 71.1892 47.0926 71.2274 47.1308C71.2656 47.169 71.2821 47.2291 71.2821 47.3001C71.2821 47.4202 71.2165 47.4803 71.0855 47.4803L70.0317 47.4584L69.0489 47.4366C68.9015 47.4366 68.6121 47.442 68.1754 47.4584C67.8532 47.4803 67.5366 47.4966 67.2308 47.4966C67.1817 47.4966 67.1325 47.4803 67.0834 47.442C67.0342 47.4038 67.0124 47.3656 67.0124 47.3165C67.0124 47.18 67.0889 47.0926 67.2417 47.0489C67.5584 46.9834 67.7713 46.9015 67.8805 46.8032C67.9897 46.705 68.0443 46.5302 68.0443 46.29V40.7919C68.0443 40.5352 67.9952 40.3496 67.8969 40.2404C67.7986 40.1312 67.6076 40.0439 67.3182 39.9783C67.1489 39.9401 67.0615 39.8528 67.0615 39.7217C67.0615 39.6671 67.0833 39.618 67.127 39.5852C67.1707 39.547 67.2308 39.5306 67.3018 39.5306C67.5912 39.5306 67.9133 39.547 68.2682 39.5798C68.5903 39.6125 68.847 39.6289 69.0326 39.6289C69.1855 39.6289 69.4093 39.6125 69.6987 39.5798C70.0536 39.5306 70.4139 39.5088 70.7743 39.5088C71.7407 39.5088 72.4832 39.6726 72.9964 39.9947C73.5097 40.3169 73.7663 40.8028 73.7663 41.4471C73.7663 41.9384 73.6134 42.337 73.3077 42.6373C73.0019 42.9376 72.6252 43.156 72.1829 43.2871C72.1611 43.2925 72.1447 43.3144 72.1447 43.3471C72.1447 43.3799 72.1502 43.4072 72.1666 43.429C72.5706 44.0351 72.9418 44.5592 73.2804 45.0015C73.6189 45.4437 73.952 45.8204 74.2741 46.1262C74.5253 46.361 74.7818 46.5084 75.0548 46.5739C75.3224 46.6394 75.65 46.6722 76.0322 46.6722C76.1523 46.6722 76.2123 46.7486 76.2123 46.9015C76.2123 47.442 75.6937 47.715 74.6617 47.715C74.0448 47.7205 73.5588 47.6113 73.2039 47.4038ZM71.4786 42.8612C71.6916 42.5882 71.8007 42.2114 71.8007 41.7364C71.8007 41.1686 71.697 40.7536 71.4841 40.4807C71.2766 40.2131 70.9708 40.0766 70.5777 40.0766C70.4085 40.0766 70.2883 40.1531 70.2119 40.3005C70.1409 40.4479 70.1027 40.7482 70.1027 41.1904V42.812C70.1027 43.1178 70.2447 43.2707 70.5286 43.2707C70.949 43.2761 71.2657 43.1396 71.4786 42.8612Z" fill="#5F5F5F"/>
<path d="M18.1025 61.8344C17.4037 61.5014 16.8522 61.0264 16.4427 60.4258C16.0332 59.8197 15.8312 59.1318 15.8312 58.3565C15.8312 57.6139 16.0277 56.9205 16.4263 56.2762C16.8194 55.632 17.3927 55.1133 18.1407 54.7202C18.8887 54.3271 19.7678 54.1305 20.7724 54.1305C21.1273 54.1305 21.515 54.1742 21.9299 54.2561C22.3449 54.3434 22.7052 54.4417 23.0001 54.5673C23.1638 54.6383 23.2512 54.7475 23.2676 54.8949C23.3331 55.3371 23.3659 55.8285 23.3659 56.3581C23.3659 56.4291 23.3441 56.4837 23.3058 56.5219C23.2676 56.5602 23.2185 56.5765 23.1584 56.5765C23.1038 56.5765 23.0492 56.5602 22.9946 56.5219C22.94 56.4837 22.9018 56.4291 22.8799 56.3581C22.798 56.1234 22.7271 55.9323 22.6615 55.7903C22.596 55.6429 22.5032 55.5119 22.3831 55.3917C22.0063 54.9986 21.433 54.7966 20.6632 54.7966C20.139 54.7966 19.6805 54.944 19.2819 55.2389C18.8833 55.5337 18.583 55.9268 18.3701 56.4182C18.1571 56.9096 18.0479 57.4392 18.0479 58.007C18.0479 59.1318 18.2718 60.0163 18.714 60.6715C19.1563 61.3267 19.806 61.6543 20.6632 61.6543C21.2583 61.6543 21.7443 61.5287 22.1155 61.283C22.4868 61.0373 22.798 60.6387 23.0492 60.0927C23.1038 59.9562 23.1966 59.8852 23.3167 59.8852C23.3713 59.8852 23.4204 59.9016 23.4532 59.9398C23.4914 59.9781 23.5079 60.0272 23.5079 60.0927C23.5079 60.464 23.4204 60.939 23.2512 61.5232C23.213 61.687 23.1038 61.8071 22.9345 61.889C22.2575 62.1948 21.4167 62.3477 20.4175 62.3477C19.5712 62.3368 18.7959 62.1675 18.1025 61.8344Z" fill="#5F5F5F"/>
<path d="M29.219 61.8344C28.5693 61.5014 28.0506 61.0264 27.663 60.4258C27.2753 59.8197 27.0842 59.1318 27.0842 58.3565C27.0842 57.6139 27.2535 56.9205 27.592 56.2762C27.9305 55.632 28.4273 55.1133 29.088 54.7202C29.7432 54.3271 30.5294 54.1305 31.4303 54.1305C32.1783 54.1305 32.8826 54.2997 33.5324 54.6328C34.1821 54.9659 34.7008 55.4409 35.0884 56.0415C35.4761 56.6475 35.6671 57.3355 35.6671 58.1108C35.6671 58.8533 35.4979 59.5467 35.1594 60.191C34.8209 60.8353 34.324 61.354 33.6634 61.7471C33.0027 62.1402 32.222 62.3367 31.3211 62.3367C30.5676 62.3367 29.8687 62.1675 29.219 61.8344ZM32.97 60.9445C33.303 60.393 33.4723 59.6614 33.4723 58.7387C33.4723 58.0507 33.3904 57.401 33.2266 56.7895C33.0628 56.178 32.8061 55.6756 32.4622 55.288C32.1182 54.9003 31.6923 54.7092 31.1846 54.7092C30.5621 54.7092 30.0871 54.9822 29.7595 55.5337C29.4319 56.0851 29.2681 56.8113 29.2681 57.7231C29.2681 58.4001 29.3501 59.0499 29.5139 59.6668C29.6777 60.2838 29.9342 60.7861 30.2727 61.1792C30.6113 61.5724 31.0317 61.7689 31.534 61.7689C32.1564 61.7689 32.6369 61.4905 32.97 60.9445Z" fill="#5F5F5F"/>
<path d="M38.8723 62.02C38.8723 61.9709 38.8887 61.9327 38.9269 61.9108C38.9651 61.889 39.0088 61.8672 39.0634 61.8508C39.118 61.8344 39.1617 61.818 39.1944 61.8016C39.3965 61.7197 39.5657 61.5996 39.6967 61.4358C39.8277 61.272 39.9151 61.0755 39.9424 60.8407C40.008 60.3821 40.0844 59.6013 40.1772 58.5093C40.27 57.4173 40.3301 56.7348 40.3519 56.4673L40.4011 55.9104C40.4065 55.8613 40.412 55.7248 40.412 55.5009C40.412 55.217 40.3083 55.0204 40.0953 54.9058C39.8715 54.7857 39.6585 54.6983 39.4674 54.6492C39.249 54.5946 39.1399 54.5017 39.1399 54.3816C39.1399 54.2506 39.2436 54.1905 39.4565 54.1905L40.3519 54.2124C41.2965 54.2342 41.7988 54.2506 41.8643 54.2506C41.9189 54.2506 41.979 54.2724 42.039 54.3216C42.0991 54.3707 42.1373 54.4198 42.1537 54.469C42.2902 54.8512 42.4048 55.146 42.4922 55.3535L44.2339 59.4593C44.2503 59.4921 44.2667 59.5085 44.2885 59.5085C44.3104 59.5085 44.3213 59.4921 44.3322 59.4593L45.9156 55.6429C46.0302 55.0368 46.1122 54.6492 46.1722 54.4799C46.205 54.3762 46.2704 54.3216 46.3796 54.3216H46.9256C47.1659 54.3161 47.3788 54.2997 47.5645 54.2833C47.7501 54.267 47.903 54.256 48.0231 54.2451C48.4435 54.2069 48.7602 54.1851 48.9677 54.1851C49.1752 54.1851 49.2844 54.2506 49.2844 54.3762C49.2844 54.4417 49.2625 54.4908 49.2188 54.5236C49.1752 54.5563 49.1042 54.5891 49.0059 54.6219C48.9513 54.6382 48.8967 54.6601 48.853 54.6819C48.8093 54.7038 48.7766 54.7201 48.7493 54.7311C48.4927 54.8512 48.3125 54.9822 48.2088 55.1242C48.105 55.2661 48.0668 55.4791 48.0832 55.7739C48.1487 57.2426 48.2361 58.8096 48.3507 60.4749L48.3889 60.9717C48.4217 61.3376 48.711 61.5942 49.2625 61.747C49.3499 61.7798 49.4208 61.8126 49.4645 61.8453C49.5082 61.8781 49.53 61.9327 49.53 62.0037C49.53 62.0583 49.5082 62.1074 49.4645 62.1347C49.4208 62.1675 49.3663 62.1838 49.3007 62.1838L48.2852 62.162L47.3406 62.1402C47.1932 62.1402 46.9038 62.1456 46.467 62.162C46.1449 62.1838 45.8282 62.2002 45.5225 62.2002C45.4515 62.2002 45.3914 62.1838 45.3423 62.1511C45.2932 62.1183 45.2713 62.0746 45.2713 62.02C45.2713 61.8835 45.3587 61.7962 45.5389 61.7525C45.8555 61.6815 46.0684 61.5942 46.1776 61.4904C46.2923 61.3922 46.3414 61.2229 46.336 60.9881C46.3032 60.453 46.2705 59.6013 46.2377 58.422C46.2323 57.9524 46.2104 57.3627 46.1776 56.642C46.1776 56.6038 46.1667 56.582 46.1394 56.582C46.1176 56.582 46.0903 56.6093 46.0685 56.6693L43.8626 62.1292C43.8244 62.233 43.7644 62.2876 43.6825 62.2876C43.6006 62.2876 43.5351 62.2439 43.4859 62.1565C43.3112 61.7634 43.1419 61.3976 42.9836 61.0755C42.8252 60.7479 42.6887 60.453 42.5686 60.1855C41.8479 58.684 41.3292 57.532 41.0071 56.7348C40.9853 56.6802 40.9525 56.6475 40.9089 56.6475C40.8433 56.6475 40.8051 56.713 40.7887 56.8386C40.7668 57.259 40.7505 57.7613 40.7505 58.3401L40.7614 59.7433C40.7669 60.0272 40.7724 60.4148 40.7724 60.9062C40.7724 61.1301 40.8433 61.3103 40.9907 61.4413C41.1381 61.5723 41.3675 61.6761 41.6951 61.758C41.9135 61.8126 42.0226 61.8999 42.0226 62.0146C42.0226 62.0692 41.9899 62.1183 41.9299 62.1456C41.8698 62.1784 41.8043 62.1948 41.7278 62.1948C41.4876 62.1948 41.2419 62.1893 41.0016 62.1729L40.483 62.162C40.2482 62.162 39.9861 62.1675 39.7022 62.1784C39.4183 62.1893 39.2272 62.2002 39.1399 62.2111C38.9651 62.2002 38.8723 62.1402 38.8723 62.02Z" fill="#5F5F5F"/>
<path d="M52.702 62.1456C52.6529 62.1074 52.631 62.0691 52.631 62.02C52.631 61.8835 52.7075 61.7961 52.8604 61.7525C53.1771 61.6869 53.39 61.6051 53.4992 61.5013C53.6083 61.403 53.663 61.2283 53.663 60.9881V55.4899C53.663 55.2333 53.6138 55.0477 53.5155 54.9385C53.4173 54.8293 53.2261 54.7419 52.9368 54.6764C52.7675 54.6382 52.6802 54.5508 52.6802 54.4198C52.6802 54.3652 52.702 54.3161 52.7457 54.2833C52.7894 54.2451 52.8495 54.2287 52.9204 54.2287C53.2098 54.2287 53.5155 54.2396 53.8267 54.2669C54.2308 54.2833 54.5092 54.2888 54.6621 54.2888C54.815 54.2888 55.0388 54.2724 55.3282 54.2396C55.6831 54.1905 56.0435 54.1686 56.4039 54.1686C57.3976 54.1686 58.1838 54.3816 58.7625 54.802C59.3413 55.2279 59.6361 55.8066 59.6361 56.5382C59.6361 57.0624 59.5214 57.5429 59.2976 57.9742C59.0737 58.4055 58.7352 58.7495 58.293 59.0007C57.8507 59.2573 57.3047 59.3829 56.6605 59.3829C56.453 59.3829 56.2892 59.3501 56.1691 59.2846C56.0544 59.2191 55.9944 59.1372 55.9944 59.0444C55.9944 58.9898 56.0216 58.9406 56.0708 58.9024C56.1253 58.8642 56.1745 58.8478 56.2236 58.8478C56.2892 58.8478 56.3656 58.8587 56.4584 58.8806C56.5513 58.9024 56.6331 58.9133 56.7041 58.9133C57.0044 58.9133 57.2337 58.7277 57.3921 58.3619C57.5559 57.996 57.6323 57.5047 57.6323 56.8877C57.6323 56.1397 57.5286 55.5882 57.3156 55.2497C57.1082 54.9057 56.797 54.7365 56.3984 54.7365C55.9452 54.7365 55.7214 54.9494 55.7214 55.3807L55.7104 60.9772C55.7104 61.2174 55.776 61.3867 55.9125 61.4849C56.0435 61.5832 56.2946 61.6706 56.655 61.7525C56.7369 61.7688 56.7915 61.7961 56.8297 61.8344C56.8679 61.8726 56.8843 61.9326 56.8843 62.0036C56.8843 62.1237 56.8188 62.1838 56.6877 62.1838L55.634 62.162L54.6512 62.1401C54.5038 62.1401 54.2144 62.1456 53.7776 62.162C53.4555 62.1838 53.1388 62.2002 52.8331 62.2002C52.8003 62.2002 52.7512 62.1838 52.702 62.1456Z" fill="#5F5F5F"/>
<path d="M61.5803 62.0202C61.5803 61.9492 61.6021 61.8946 61.6458 61.8564C61.6895 61.8182 61.755 61.7854 61.8478 61.7527C62.088 61.6871 62.2955 61.5889 62.4702 61.4524C62.6449 61.3159 62.7705 61.1575 62.8524 60.9773C63.6222 59.192 64.3102 57.4393 64.9217 55.7194C65.02 55.4519 65.0964 55.2117 65.151 54.9987C65.2056 54.7858 65.2439 54.6766 65.2602 54.6766C65.6097 54.5947 65.91 54.5128 66.1666 54.42C66.3031 54.3709 66.4341 54.3053 66.5542 54.2289C66.6744 54.147 66.7672 54.0706 66.8327 53.9996C66.8982 53.9668 66.9364 53.9504 66.9528 53.9504C66.991 53.9504 67.0238 53.9777 67.0511 54.0378C67.1057 54.1579 67.1548 54.2726 67.1821 54.3763C67.6845 56.0088 68.2359 57.7451 68.8419 59.5851L69.2897 60.9773C69.4043 61.3486 69.7265 61.6052 70.2561 61.7527C70.3434 61.7854 70.4144 61.8182 70.4581 61.8509C70.5018 61.8837 70.5236 61.9383 70.5236 62.0093C70.5236 62.0639 70.5018 62.113 70.4581 62.1403C70.4144 62.1731 70.3598 62.1895 70.2943 62.1895C70.1305 62.1895 69.8083 62.184 69.3224 62.1676C68.8201 62.1512 68.4761 62.1458 68.2796 62.1458C68.1158 62.1458 67.81 62.1512 67.3568 62.1676C66.9856 62.1895 66.647 62.2058 66.3413 62.2058C66.2703 62.2058 66.2103 62.1895 66.1611 62.1567C66.112 62.1239 66.0902 62.0803 66.0902 62.0257C66.0902 61.8892 66.1775 61.8018 66.3577 61.7581C66.6416 61.7035 66.8491 61.6325 66.9801 61.5452C67.1166 61.4578 67.1821 61.3432 67.1821 61.1903C67.1821 61.1084 67.1767 61.0429 67.1603 60.9937L66.7836 59.5905C66.7672 59.5196 66.7453 59.465 66.718 59.4322C66.6907 59.3994 66.647 59.3831 66.5924 59.3831H64.4849C64.4194 59.3831 64.3757 59.3994 64.3539 59.4322C64.332 59.465 64.3047 59.5141 64.2829 59.5905L64.1137 60.1092C64.0918 60.1966 64.0536 60.3167 64.0044 60.4587C63.9553 60.6061 63.9171 60.7317 63.8843 60.8463C63.8516 60.9501 63.8352 61.0538 63.8352 61.163C63.8352 61.3159 63.8952 61.436 64.0099 61.5179C64.1246 61.6052 64.3375 61.6817 64.6323 61.7527C64.8125 61.7909 64.8999 61.8837 64.8999 62.0202C64.8999 62.1349 64.8125 62.1895 64.6433 62.1895C64.4576 62.1895 64.2174 62.184 63.928 62.1676L63.2728 62.1567C63.049 62.1567 62.8251 62.1676 62.6067 62.1949C62.5357 62.2004 62.4266 62.2113 62.2791 62.2168C62.1317 62.2222 62.0061 62.2277 61.8914 62.2277C61.684 62.2277 61.5803 62.1567 61.5803 62.0202ZM66.3358 58.6787C66.4559 58.6787 66.516 58.6514 66.516 58.5914C66.516 58.5859 66.5106 58.5368 66.4942 58.4603L65.7189 55.785C65.6916 55.7031 65.6697 55.6649 65.6479 55.6649C65.6315 55.6649 65.6097 55.7031 65.5769 55.785L64.6433 58.4603C64.6269 58.4931 64.6159 58.5259 64.6159 58.5586C64.6159 58.5968 64.6378 58.6296 64.676 58.6514C64.7142 58.6733 64.7634 58.6842 64.8234 58.6842H66.3358V58.6787Z" fill="#5F5F5F"/>
<path d="M80.6189 62.1838C80.3786 62.0419 80.1384 61.8289 79.8981 61.5341L75.1862 56.5328C75.1316 56.4509 75.0825 56.4127 75.0552 56.4127C75.0006 56.4127 74.9679 56.4891 74.9679 56.642C74.9679 57.2317 74.9788 57.8978 75.0061 58.6403C75.0115 58.9297 75.0225 59.2628 75.0279 59.634C75.0334 60.0053 75.0389 60.393 75.0389 60.797C75.0389 61.0645 75.1207 61.2666 75.2845 61.414C75.4483 61.5614 75.7049 61.6706 76.0435 61.7525C76.2619 61.8071 76.371 61.8944 76.371 62.0091C76.371 62.0637 76.3383 62.1128 76.2782 62.1401C76.2181 62.1729 76.1526 62.1893 76.0762 62.1893C75.8196 62.1893 75.5521 62.1838 75.2791 62.1674L74.6839 62.1565C74.4492 62.1565 74.2198 62.162 73.996 62.1729C73.7721 62.1838 73.6247 62.1947 73.5592 62.2057C73.5046 62.2057 73.4391 62.1893 73.379 62.1511C73.3135 62.1128 73.2807 62.0746 73.2807 62.0255C73.2807 61.96 73.3026 61.9108 73.3517 61.8726C73.4008 61.8344 73.4718 61.7962 73.5701 61.7579C73.9359 61.6105 74.1325 61.2829 74.1761 60.7752C74.3454 58.9843 74.4327 57.3955 74.4327 56.0141C74.4327 55.6374 74.3399 55.348 74.1597 55.1569C73.9796 54.9658 73.712 54.7966 73.3517 54.6601C73.1333 54.6055 73.0241 54.5126 73.0241 54.3925C73.0241 54.2615 73.1278 54.2014 73.3408 54.2014L74.2635 54.2233C75.2299 54.2451 75.7431 54.2615 75.8032 54.2615C75.9069 54.2615 75.9889 54.2997 76.0435 54.3816L80.5096 59.3337C80.5915 59.432 80.6462 59.4812 80.6789 59.4812C80.7444 59.4812 80.7772 59.4266 80.7772 59.3119V58.0397C80.7772 56.7785 80.7663 55.9268 80.739 55.4736C80.7281 55.2497 80.6516 55.0805 80.5096 54.9767C80.3622 54.873 80.1275 54.7747 79.7944 54.6873C79.6088 54.6382 79.516 54.5563 79.516 54.4307C79.516 54.3816 79.5433 54.3379 79.5924 54.3052C79.647 54.2669 79.7016 54.2506 79.7671 54.2506L80.5534 54.2615C80.6571 54.2669 80.8208 54.2724 81.0502 54.2724L81.6071 54.2615C81.8637 54.2451 82.1094 54.2396 82.3333 54.2396C82.4207 54.2396 82.4916 54.256 82.5462 54.2888C82.6008 54.3215 82.6226 54.3652 82.6226 54.4198C82.6226 54.5509 82.5189 54.6328 82.3169 54.6764C82.0275 54.731 81.82 54.8129 81.6999 54.9221C81.5798 55.0313 81.5198 55.2006 81.5198 55.4354C81.5198 55.9213 81.4925 56.8386 81.4379 58.1981C81.3996 58.9898 81.3778 59.6286 81.3778 60.1145C81.3778 60.3001 81.3942 60.5295 81.4215 60.797C81.4488 61.07 81.4706 61.2447 81.476 61.3266C81.5088 61.6324 81.5252 61.7962 81.5252 61.8125C81.5252 62.2057 81.4106 62.4077 81.1758 62.4077C81.0448 62.3968 80.8591 62.3258 80.6189 62.1838Z" fill="#5F5F5F"/>
<path d="M87.542 62.1784C87.4765 62.1402 87.4438 62.0911 87.4438 62.031C87.4438 61.9 87.5584 61.8126 87.7932 61.7635C88.0935 61.7089 88.301 61.5997 88.4156 61.4468C88.5303 61.2939 88.5903 61.0864 88.5903 60.8298V59.1809C88.5903 58.9079 88.5575 58.6786 88.492 58.4984C88.4265 58.3183 88.3283 58.1108 88.1918 57.8869L86.6029 55.4518C86.4664 55.2443 86.3354 55.0751 86.2044 54.9495C86.0733 54.8239 85.9041 54.7311 85.6857 54.6765C85.5983 54.6437 85.5328 54.611 85.4837 54.5782C85.44 54.5455 85.4181 54.4963 85.4181 54.4199C85.4181 54.3653 85.44 54.3216 85.4837 54.2888C85.5274 54.2561 85.5819 54.2397 85.6474 54.2397C85.8221 54.2397 86.0187 54.2452 86.2371 54.2561C86.45 54.267 86.6084 54.2725 86.7176 54.2725C87.0506 54.2943 87.3892 54.3107 87.7332 54.3107C87.8533 54.3107 87.9952 54.3052 88.148 54.2998C88.3064 54.2943 88.4265 54.2834 88.5194 54.2779C88.8742 54.2452 89.1582 54.2288 89.3657 54.2288C89.4366 54.2288 89.513 54.2452 89.584 54.2834C89.655 54.3216 89.6932 54.3598 89.6932 54.409C89.6932 54.5291 89.5786 54.6164 89.3547 54.6765C89.0981 54.7311 88.918 54.7912 88.8197 54.8567C88.7214 54.9222 88.6722 55.0205 88.6722 55.157C88.6722 55.288 88.7159 55.43 88.8033 55.5828L90.0754 57.7504C90.13 57.8542 90.1955 57.9088 90.2665 57.9088C90.3211 57.9088 90.3812 57.8542 90.4467 57.7504C90.8726 56.986 91.2329 56.2817 91.5223 55.6429C91.6042 55.4682 91.6424 55.3098 91.6424 55.1843C91.6424 55.0314 91.5714 54.9113 91.4349 54.8294C91.2984 54.7475 91.1346 54.6929 90.949 54.6765C90.8616 54.671 90.7798 54.6383 90.7033 54.5837C90.6269 54.5291 90.5887 54.4745 90.5887 54.409C90.5887 54.3598 90.6269 54.3216 90.6979 54.2888C90.7688 54.2561 90.8508 54.2397 90.9381 54.2397C91.1729 54.2397 91.3968 54.2506 91.6151 54.2779C91.8881 54.2943 92.101 54.2998 92.243 54.2998C92.3576 54.2998 92.5433 54.2834 92.7999 54.2506C93.0565 54.2179 93.2804 54.2015 93.4661 54.2015C93.7063 54.2015 93.8318 54.2725 93.8318 54.409C93.8318 54.4745 93.81 54.5182 93.7663 54.5509C93.7226 54.5782 93.6735 54.6001 93.6189 54.6164C93.5643 54.6328 93.5316 54.6437 93.5152 54.6547C93.2804 54.7202 93.0729 54.8185 92.8928 54.9495C92.7126 55.0805 92.5706 55.2389 92.4723 55.4136C92.1993 55.8668 91.9864 56.1998 91.8444 56.4182C91.4076 57.1389 91.1183 57.6194 90.9709 57.8596C90.747 58.2527 90.6323 58.6568 90.6323 59.0608V60.8189C90.6323 61.1247 90.687 61.3376 90.7907 61.4522C90.8944 61.5669 91.1073 61.6706 91.4295 61.7635C91.5496 61.7962 91.6369 61.829 91.697 61.8617C91.7516 61.8945 91.7789 61.9491 91.7789 62.0201C91.7789 62.0747 91.7462 62.1238 91.6861 62.1675C91.6261 62.2057 91.5496 62.2276 91.4623 62.2276C91.293 62.2276 90.9654 62.2112 90.4794 62.1784C90.0263 62.1457 89.726 62.1293 89.5731 62.1293C89.4257 62.1293 89.1363 62.1457 88.6995 62.1784C88.3337 62.2166 88.0225 62.2385 87.755 62.2385C87.684 62.2385 87.6021 62.2166 87.542 62.1784Z" fill="#5F5F5F"/>
<path d="M57.8549 16.4919L48.8093 25.5376L49.7783 26.5066L58.824 17.461L57.8549 16.4919Z" fill="#5F5F5F"/>
<path d="M57.8398 76.762L48.7941 85.8076L49.7632 86.7767L58.8088 77.731L57.8398 76.762Z" fill="#5F5F5F"/>
</svg>
