<svg width="37" height="37" viewBox="0 0 37 37" fill="none" xmlns="http://www.w3.org/2000/svg">
<path d="M21.1731 18.3499C21.1731 19.9089 19.909 21.173 18.35 21.173C16.791 21.173 15.5269 19.9089 15.5269 18.3499C15.5269 16.7909 16.791 15.5269 18.35 15.5269C19.909 15.5269 21.1731 16.7909 21.1731 18.3499Z" fill="white"/>
<path d="M18.35 0C8.18692 0 0 8.18692 0 18.35C0 28.5131 8.18692 36.7 18.35 36.7C28.5131 36.7 36.7 28.5131 36.7 18.35C36.7 8.18692 28.5131 0 18.35 0ZM8.46923 9.88077C8.46923 9.03385 9.03385 8.46923 9.88077 8.46923C10.7277 8.46923 11.2923 9.03385 11.2923 9.88077C11.2923 10.7277 10.7277 11.2923 9.88077 11.2923C9.03385 11.2923 8.46923 10.7277 8.46923 9.88077ZM18.4912 25.5488L10.7277 27.6662C9.73961 27.9485 8.75154 26.9604 9.03385 25.9723L11.1512 18.2088C12.1392 14.8212 14.68 12.1392 18.0677 11.2923L25.8312 9.175C26.8192 8.89269 27.8073 9.88077 27.525 10.8688L25.4077 18.6323C24.5608 21.8788 21.8788 24.5608 18.4912 25.5488ZM26.8192 28.2308C25.9723 28.2308 25.4077 27.6662 25.4077 26.8192C25.4077 25.9723 25.9723 25.4077 26.8192 25.4077C27.6662 25.4077 28.2308 25.9723 28.2308 26.8192C28.2308 27.6662 27.6662 28.2308 26.8192 28.2308Z" fill="white"/>
</svg>
