<svg width="13" height="13" viewBox="0 0 13 13" fill="none" xmlns="http://www.w3.org/2000/svg">
<path d="M12.9776 4.91636C12.9229 4.74006 12.7776 4.61141 12.6028 4.58476L8.67358 3.98552L6.91662 0.249428C6.76023 -0.0831426 6.24018 -0.0831426 6.08368 0.249428L4.32672 3.98552L0.397482 4.58468C0.222649 4.61132 0.0773596 4.73998 0.0227324 4.91627C-0.0318843 5.09279 0.0137162 5.28626 0.140153 5.4159L2.98321 8.32397L2.31195 12.4304C2.28221 12.6131 2.35392 12.798 2.49673 12.9069C2.64006 13.0159 2.82951 13.0304 2.9857 12.944L6.49999 11.0051L10.0143 12.944C10.1704 13.0299 10.3598 13.0161 10.5032 12.9069C10.6461 12.798 10.7177 12.6131 10.688 12.4304L10.0168 8.32397L12.8598 5.4159C12.9864 5.28626 13.0319 5.09288 12.9773 4.91639L12.9776 4.91636Z" fill="#FFB800"/>
</svg>
