<svg width="60" height="60" viewBox="0 0 60 60" fill="none" xmlns="http://www.w3.org/2000/svg">
<rect width="60" height="60" rx="7" fill="#F9FAFF"/>
<path d="M41.4857 30.1624L31.0805 19.7572C30.426 19.1027 30.426 18.0556 31.0805 17.4666C31.7349 16.8776 32.782 16.8122 33.371 17.4666L44.955 29.0506C45.6094 29.705 45.6094 30.7521 44.955 31.3411L32.8475 43.3828C32.5202 43.7101 32.1276 43.841 31.6695 43.841C31.2114 43.841 30.8187 43.7101 30.4915 43.3828C29.837 42.7284 29.837 41.6813 30.4915 41.0923L41.4857 30.1624Z" fill="#EF6010"/>
<path d="M15.6361 28.7871L33.306 28.7871C34.2222 28.7871 34.9421 29.507 34.9421 30.4232C34.9421 31.3394 34.2222 32.0593 33.306 32.0593H15.6361C14.7199 32.0593 14 31.3394 14 30.4232C14 29.507 14.7199 28.7871 15.6361 28.7871Z" fill="#EF6010"/>
</svg>
