<svg width="13" height="13" viewBox="0 0 13 13" fill="none" xmlns="http://www.w3.org/2000/svg">
<path d="M2.80117 12.5103L2.79956 12.5101L2.76864 12.5506L2.76837 12.5509L2.49673 12.9069L2.80067 12.5099C2.80084 12.5101 2.80101 12.5102 2.80117 12.5103ZM2.80117 12.5103C2.80539 12.5139 2.80614 12.5164 2.80581 12.5155C2.80545 12.5146 2.80512 12.5128 2.80545 12.5107L2.8054 12.511L2.80117 12.5103ZM0.498264 5.06696L0.498089 5.06678M0.498264 5.06696L0.472885 5.07896M0.498264 5.06696C0.498207 5.0669 0.498149 5.06684 0.498089 5.06678M0.498264 5.06696L0.498089 5.06678M0.498089 5.06678L0.497681 5.06636L0.491636 5.07227C0.487208 5.075 0.48092 5.07773 0.472885 5.07896M0.472885 5.07896L0.486995 5.07681L0.472885 5.07896ZM8.5982 4.47981L12.4948 5.07407L9.65924 7.97444L9.48254 8.15518L9.52332 8.40464L10.1876 12.4686L6.74153 10.5673L6.49999 10.434L6.25845 10.5673L2.81234 12.4686L3.47666 8.40464L3.51744 8.15518L3.34074 7.97444L0.505182 5.07404L4.40209 4.47981L4.6657 4.43961L4.77918 4.1983L6.50015 0.538752L8.22111 4.1983L8.33459 4.43961L8.5982 4.47981ZM12.5275 5.07905C12.5274 5.07905 12.5274 5.07904 12.5273 5.07903L12.5274 5.07905L12.5275 5.07905Z" stroke="#FFB800"/>
</svg>
