<svg width="13" height="18" viewBox="0 0 13 18" fill="none" xmlns="http://www.w3.org/2000/svg">
<path d="M6.12292 0C2.73932 0 0 2.85003 0 6.3497C0 7.61121 0.368096 8.57031 0.97096 9.54584L5.93166 17.5749H5.9315C5.9731 17.6404 6.0454 17.6801 6.12291 17.6801C6.20042 17.6801 6.27271 17.6404 6.31431 17.5749L11.275 9.54584C11.8777 8.57031 12.2458 7.61125 12.2458 6.3497C12.2458 2.84999 9.5065 0 6.12289 0H6.12292ZM6.12292 0.453509C9.25201 0.453509 11.7923 3.08604 11.7923 6.34966C11.7923 7.5256 11.469 8.37868 10.8922 9.31182L6.12304 17.0291L1.35389 9.31182C0.777149 8.37868 0.453792 7.5256 0.453792 6.34966C0.453792 3.08596 2.99408 0.453509 6.12316 0.453509H6.12292ZM6.12292 3.17477C4.49739 3.17477 3.17481 4.49735 3.17481 6.12288C3.17481 7.74841 4.49739 9.07099 6.12292 9.07099C7.74845 9.07099 9.07103 7.74841 9.07103 6.12288C9.07103 4.49735 7.74845 3.17477 6.12292 3.17477ZM6.12292 3.62828C7.50325 3.62828 8.61753 4.74239 8.61753 6.12288C8.61753 7.50321 7.50341 8.61749 6.12292 8.61749C4.74259 8.61749 3.62832 7.50337 3.62832 6.12288C3.62832 4.74255 4.74243 3.62828 6.12292 3.62828Z" fill="black"/>
</svg>
