<svg width="16" height="18" viewBox="0 0 16 18" fill="none" xmlns="http://www.w3.org/2000/svg">
<path d="M5.34153 18H9.85085C12.7952 18 15.1911 15.6034 15.1911 12.6575C15.1911 11.4129 14.5939 9.96257 13.5943 8.77781L10.3529 4.93341L12.3806 1.11472C12.4391 1.00537 12.4288 0.872349 12.3549 0.772762C12.281 0.673748 12.1576 0.626822 12.0347 0.648636L9.0769 1.22594L7.81169 0.0829779C7.68957 -0.0276593 7.50316 -0.0276593 7.38033 0.0829779L6.11581 1.22594L3.15715 0.647938C3.0356 0.6267 2.91162 0.67305 2.837 0.772064C2.7631 0.871651 2.75349 1.00482 2.81132 1.11402L4.84024 4.93271L1.59757 8.77711C0.59725 9.96257 0 11.4135 0 12.6575C0.000573997 15.6034 2.39657 18 5.34175 18L5.34153 18ZM3.69573 1.40787L6.15027 1.88746C6.25058 1.90611 6.35218 1.87842 6.42737 1.81025L7.59546 0.754101L8.76425 1.81099C8.83944 1.87915 8.94362 1.90685 9.04134 1.88819L11.4952 1.40861L9.85199 4.50345C9.84683 4.50259 9.84238 4.49943 9.83649 4.49943H5.35546C5.34972 4.49943 5.34513 4.50259 5.33939 4.50331L3.69573 1.40787ZM2.08983 9.19256L5.50541 5.14243H9.68742L13.1024 9.19256C13.9941 10.2494 14.5483 11.5769 14.5483 12.6589C14.5483 15.2496 12.441 17.3578 9.85089 17.3578H5.34157C2.7514 17.3578 0.643429 15.2498 0.643429 12.6582C0.643429 11.5776 1.19763 10.2494 2.0899 9.19252L2.08983 9.19256Z" fill="black"/>
<path d="M7.01854 11.698L7.95258 12.0368C8.48812 12.2322 8.76452 12.8256 8.56978 13.3599C8.42198 13.7674 8.03168 14.0406 7.59772 14.0406H7.59585C7.30713 14.0406 7.03592 13.9281 6.83472 13.7262C6.73441 13.6246 6.65736 13.5108 6.60527 13.3887C6.53524 13.2254 6.34625 13.1508 6.18354 13.2197C6.02024 13.2897 5.94433 13.4787 6.01449 13.642C6.09801 13.8374 6.22027 14.0174 6.37769 14.1788C6.62523 14.4269 6.93574 14.5883 7.27254 14.6519V15.4228C7.27254 15.6001 7.41661 15.7442 7.59398 15.7442C7.77134 15.7442 7.91541 15.6001 7.91541 15.4228V14.6494C8.48497 14.5388 8.97098 14.1383 9.1742 13.5797C9.32717 13.1599 9.30794 12.7048 9.11896 12.2991C8.92997 11.8942 8.59433 11.5867 8.17257 11.4325L7.23911 11.0944C6.70358 10.899 6.42718 10.3056 6.62191 9.77133C6.76972 9.36379 7.16002 9.09058 7.59398 9.09058H7.59585C7.88327 9.09058 8.15449 9.20308 8.35896 9.40628C8.45539 9.50329 8.53259 9.61708 8.58784 9.74379C8.65859 9.90638 8.84628 9.97913 9.01089 9.91097C9.17348 9.84022 9.24881 9.65066 9.17735 9.48792C9.08996 9.28673 8.96784 9.10664 8.81343 8.9518C8.56403 8.70297 8.25277 8.54168 7.91598 8.47927V7.7084C7.91598 7.53104 7.77191 7.38696 7.59454 7.38696C7.41718 7.38696 7.2731 7.53104 7.2731 7.7084V8.48242C6.70484 8.59435 6.22139 8.99415 6.01821 9.55151C5.86524 9.97125 5.88447 10.4264 6.07346 10.8321C6.26244 11.237 6.59808 11.545 7.01856 11.6979L7.01854 11.698Z" fill="black"/>
</svg>
