<svg width="60" height="60" viewBox="0 0 60 60" fill="none" xmlns="http://www.w3.org/2000/svg">
<rect width="60" height="60" rx="7" fill="#EF6010"/>
<path d="M17.5143 30.8376L27.9195 41.2428C28.574 41.8973 28.574 42.9444 27.9195 43.5334C27.2651 44.1224 26.218 44.1878 25.629 43.5334L14.045 31.9494C13.3906 31.295 13.3906 30.2479 14.045 29.6589L26.1525 17.6172C26.4798 17.2899 26.8724 17.159 27.3305 17.159C27.7886 17.159 28.1813 17.2899 28.5085 17.6172C29.163 18.2716 29.163 19.3187 28.5085 19.9077L17.5143 30.8376Z" fill="white"/>
<path d="M43.3639 32.2129L25.694 32.2129C24.7778 32.2129 24.0579 31.493 24.0579 30.5768C24.0579 29.6606 24.7778 28.9407 25.694 28.9407L43.3639 28.9407C44.2801 28.9407 45 29.6606 45 30.5768C45 31.493 44.2801 32.2129 43.3639 32.2129Z" fill="white"/>
</svg>
